<svg xmlns="http://www.w3.org/2000/svg" xmlns:xlink="http://www.w3.org/1999/xlink" width="40" zoomAndPan="magnify" viewBox="0 0 30 30.000001" height="40" preserveAspectRatio="xMidYMid meet" version="1.0"><defs><clipPath id="7575004807"><path d="M 0.484375 0 L 29.515625 0 L 29.515625 29.03125 L 0.484375 29.03125 Z M 0.484375 0 " clip-rule="nonzero"/></clipPath><clipPath id="d1fd3cc3be"><path d="M 3.386719 10 L 12 10 L 12 20.066406 L 3.386719 20.066406 Z M 3.386719 10 " clip-rule="nonzero"/></clipPath><clipPath id="d781637dd4"><path d="M 3.386719 11 L 12 11 L 12 20 L 3.386719 20 Z M 3.386719 11 " clip-rule="nonzero"/></clipPath><clipPath id="4d30e595d0"><path d="M 17 10 L 25.886719 10 L 25.886719 20.066406 L 17 20.066406 Z M 17 10 " clip-rule="nonzero"/></clipPath><clipPath id="b6f56f7ebf"><path d="M 18 11 L 25.886719 11 L 25.886719 20 L 18 20 Z M 18 11 " clip-rule="nonzero"/></clipPath><clipPath id="551380d89d"><path d="M 9 9.179688 L 20 9.179688 L 20 20.066406 L 9 20.066406 Z M 9 9.179688 " clip-rule="nonzero"/></clipPath><clipPath id="b0ae5919c2"><path d="M 10 9.179688 L 19 9.179688 L 19 20 L 10 20 Z M 10 9.179688 " clip-rule="nonzero"/></clipPath></defs><g clip-path="url(#7575004807)"><path fill="#ffffff" d="M 0.484375 0 L 29.515625 0 L 29.515625 29.03125 L 0.484375 29.03125 Z M 0.484375 0 " fill-opacity="1" fill-rule="nonzero"/><path fill="#ffffff" d="M 0.484375 0 L 29.515625 0 L 29.515625 29.03125 L 0.484375 29.03125 Z M 0.484375 0 " fill-opacity="1" fill-rule="nonzero"/></g><g clip-path="url(#d1fd3cc3be)"><path fill="#373737" d="M 11.007812 10.734375 L 3.386719 10.734375 L 3.386719 14.875 L 6.261719 14.875 C 6.042969 15.238281 5.835938 15.609375 5.640625 15.984375 C 5.359375 16.53125 5.121094 17.105469 4.9375 17.683594 C 4.746094 18.289062 4.648438 18.902344 4.648438 19.507812 L 4.648438 20.066406 L 8.941406 20.066406 L 8.941406 19.507812 C 8.941406 19.183594 8.976562 18.847656 9.042969 18.5 C 9.113281 18.140625 9.207031 17.777344 9.324219 17.421875 C 9.441406 17.0625 9.585938 16.691406 9.757812 16.3125 C 9.933594 15.921875 10.148438 15.480469 10.398438 15 C 10.640625 14.523438 11.003906 13.921875 11.472656 13.207031 L 11.5625 13.066406 L 11.5625 10.734375 Z M 11.007812 12.898438 C 10.527344 13.632812 10.160156 14.246094 9.902344 14.742188 C 9.648438 15.238281 9.429688 15.683594 9.25 16.082031 C 9.070312 16.480469 8.921875 16.867188 8.796875 17.246094 C 8.671875 17.628906 8.574219 18.007812 8.5 18.394531 C 8.460938 18.585938 8.433594 18.773438 8.414062 18.957031 C 8.40625 19.050781 8.398438 19.144531 8.394531 19.234375 C 8.386719 19.328125 8.386719 19.417969 8.386719 19.507812 L 5.203125 19.507812 C 5.203125 18.957031 5.292969 18.40625 5.46875 17.855469 C 5.644531 17.300781 5.867188 16.765625 6.136719 16.238281 C 6.339844 15.847656 6.558594 15.457031 6.792969 15.074219 C 6.871094 14.949219 6.949219 14.820312 7.03125 14.695312 C 7.152344 14.503906 7.273438 14.320312 7.394531 14.148438 C 7.59375 13.859375 7.789062 13.589844 7.980469 13.34375 L 6.304688 13.34375 L 6.304688 14.3125 L 3.945312 14.3125 L 3.945312 11.296875 L 11.007812 11.296875 L 11.007812 12.898438 " fill-opacity="1" fill-rule="nonzero"/></g><path fill="#ff0000" d="M 7.980469 12.921875 L 8.839844 12.921875 L 8.308594 13.601562 C 8.011719 13.984375 7.699219 14.429688 7.382812 14.921875 C 7.167969 15.25 6.96875 15.589844 6.777344 15.929688 C 6.683594 16.097656 6.59375 16.265625 6.507812 16.433594 C 6.441406 16.558594 6.378906 16.683594 6.320312 16.8125 C 6.203125 17.066406 6.09375 17.328125 6 17.589844 C 5.953125 17.71875 5.90625 17.851562 5.863281 17.984375 C 5.804688 18.167969 5.757812 18.351562 5.71875 18.535156 C 5.683594 18.71875 5.65625 18.902344 5.640625 19.085938 L 7.984375 19.085938 C 8.003906 18.832031 8.039062 18.574219 8.089844 18.3125 C 8.167969 17.914062 8.269531 17.511719 8.398438 17.117188 C 8.429688 17.019531 8.464844 16.921875 8.5 16.820312 C 8.609375 16.519531 8.734375 16.214844 8.871094 15.90625 C 9.054688 15.503906 9.277344 15.046875 9.535156 14.546875 C 9.78125 14.066406 10.136719 13.46875 10.589844 12.773438 L 10.589844 11.714844 L 4.359375 11.714844 L 4.359375 13.894531 L 5.886719 13.894531 L 5.886719 12.921875 Z M 7.953125 18.285156 C 7.910156 18.507812 7.875 18.730469 7.855469 18.945312 L 5.792969 18.945312 C 5.832031 18.640625 5.898438 18.332031 5.996094 18.027344 C 6.164062 17.507812 6.375 16.992188 6.628906 16.496094 C 6.699219 16.367188 6.773438 16.226562 6.859375 16.066406 C 7.453125 16.058594 8.0625 16.035156 8.675781 16.007812 C 8.519531 16.367188 8.378906 16.726562 8.265625 17.074219 C 8.136719 17.472656 8.03125 17.882812 7.953125 18.285156 " fill-opacity="1" fill-rule="nonzero"/><path fill="#373737" d="M 6.097656 13.34375 L 6.097656 13.132812 L 8.410156 13.132812 L 8.144531 13.472656 C 7.84375 13.859375 7.527344 14.308594 7.207031 14.808594 C 6.886719 15.304688 6.585938 15.820312 6.320312 16.335938 C 6.058594 16.847656 5.835938 17.378906 5.667969 17.917969 C 5.519531 18.378906 5.4375 18.839844 5.417969 19.296875 L 8.179688 19.296875 C 8.191406 18.988281 8.230469 18.671875 8.292969 18.351562 C 8.371094 17.964844 8.472656 17.570312 8.597656 17.183594 C 8.722656 16.796875 8.878906 16.398438 9.0625 15.996094 C 9.242188 15.59375 9.464844 15.140625 9.71875 14.644531 C 9.96875 14.15625 10.332031 13.550781 10.796875 12.835938 L 10.796875 11.503906 L 4.152344 11.503906 L 4.152344 14.105469 L 6.097656 14.105469 Z M 5.886719 13.34375 L 5.886719 13.894531 L 4.359375 13.894531 L 4.359375 11.714844 L 10.589844 11.714844 L 10.589844 12.773438 C 10.136719 13.46875 9.78125 14.066406 9.535156 14.546875 C 9.277344 15.046875 9.054688 15.503906 8.871094 15.90625 C 8.734375 16.214844 8.609375 16.519531 8.5 16.820312 C 8.464844 16.921875 8.429688 17.019531 8.398438 17.117188 C 8.269531 17.511719 8.167969 17.914062 8.089844 18.3125 C 8.039062 18.574219 8.003906 18.832031 7.984375 19.085938 L 5.640625 19.085938 C 5.65625 18.902344 5.683594 18.71875 5.71875 18.535156 C 5.757812 18.351562 5.804688 18.167969 5.863281 17.984375 C 5.90625 17.851562 5.953125 17.71875 6 17.589844 C 6.09375 17.328125 6.203125 17.066406 6.320312 16.8125 C 6.378906 16.683594 6.441406 16.558594 6.507812 16.433594 C 6.59375 16.265625 6.683594 16.097656 6.777344 15.929688 C 6.96875 15.589844 7.167969 15.25 7.382812 14.921875 C 7.699219 14.429688 8.011719 13.984375 8.308594 13.601562 L 8.839844 12.921875 L 5.886719 12.921875 L 5.886719 13.34375 " fill-opacity="1" fill-rule="nonzero"/><g clip-path="url(#d781637dd4)"><path fill="#ffffff" d="M 3.945312 14.3125 L 6.304688 14.3125 L 6.304688 13.34375 L 7.980469 13.34375 C 7.789062 13.589844 7.59375 13.859375 7.394531 14.148438 C 7.273438 14.320312 7.152344 14.503906 7.03125 14.695312 C 6.949219 14.820312 6.871094 14.949219 6.792969 15.074219 C 6.558594 15.457031 6.339844 15.847656 6.136719 16.238281 C 5.867188 16.765625 5.644531 17.300781 5.46875 17.855469 C 5.292969 18.40625 5.203125 18.957031 5.203125 19.507812 L 8.386719 19.507812 C 8.386719 19.417969 8.386719 19.328125 8.394531 19.234375 C 8.398438 19.144531 8.40625 19.050781 8.414062 18.957031 C 8.433594 18.773438 8.460938 18.585938 8.5 18.394531 C 8.574219 18.007812 8.671875 17.628906 8.796875 17.246094 C 8.921875 16.867188 9.070312 16.480469 9.25 16.082031 C 9.429688 15.683594 9.648438 15.238281 9.902344 14.742188 C 10.160156 14.246094 10.527344 13.632812 11.007812 12.898438 L 11.007812 11.296875 L 3.945312 11.296875 Z M 4.152344 11.503906 L 10.796875 11.503906 L 10.796875 12.835938 C 10.332031 13.550781 9.96875 14.15625 9.71875 14.644531 C 9.464844 15.140625 9.242188 15.59375 9.0625 15.996094 C 8.878906 16.398438 8.722656 16.796875 8.597656 17.183594 C 8.472656 17.570312 8.371094 17.964844 8.292969 18.351562 C 8.230469 18.671875 8.191406 18.988281 8.179688 19.296875 L 5.417969 19.296875 C 5.4375 18.839844 5.519531 18.378906 5.667969 17.917969 C 5.835938 17.378906 6.058594 16.847656 6.320312 16.335938 C 6.585938 15.820312 6.886719 15.304688 7.207031 14.808594 C 7.527344 14.308594 7.84375 13.859375 8.144531 13.472656 L 8.410156 13.132812 L 6.097656 13.132812 L 6.097656 14.105469 L 4.152344 14.105469 L 4.152344 11.503906 " fill-opacity="1" fill-rule="nonzero"/></g><path fill="#a80000" d="M 6.859375 16.066406 C 6.773438 16.226562 6.699219 16.367188 6.628906 16.496094 C 6.375 16.992188 6.164062 17.507812 5.996094 18.027344 C 5.898438 18.332031 5.832031 18.640625 5.792969 18.945312 L 7.855469 18.945312 C 7.875 18.730469 7.910156 18.507812 7.953125 18.285156 C 8.03125 17.882812 8.136719 17.472656 8.265625 17.074219 C 8.378906 16.726562 8.519531 16.367188 8.675781 16.007812 C 8.0625 16.035156 7.453125 16.058594 6.859375 16.066406 " fill-opacity="1" fill-rule="nonzero"/><g clip-path="url(#4d30e595d0)"><path fill="#373737" d="M 25.332031 10.734375 L 17.710938 10.734375 L 17.710938 14.875 L 20.585938 14.875 C 20.367188 15.238281 20.160156 15.609375 19.96875 15.984375 C 19.683594 16.53125 19.445312 17.105469 19.261719 17.683594 C 19.070312 18.289062 18.972656 18.902344 18.972656 19.507812 L 18.972656 20.066406 L 23.265625 20.066406 L 23.265625 19.507812 C 23.265625 19.183594 23.300781 18.847656 23.367188 18.5 C 23.4375 18.140625 23.53125 17.777344 23.648438 17.421875 C 23.765625 17.0625 23.910156 16.691406 24.082031 16.3125 C 24.257812 15.921875 24.472656 15.480469 24.722656 15 C 24.96875 14.523438 25.328125 13.921875 25.796875 13.207031 L 25.886719 13.066406 L 25.886719 10.734375 Z M 25.332031 12.898438 C 24.851562 13.632812 24.484375 14.246094 24.226562 14.742188 C 23.972656 15.238281 23.757812 15.683594 23.578125 16.082031 C 23.394531 16.480469 23.246094 16.867188 23.121094 17.246094 C 22.996094 17.628906 22.898438 18.007812 22.824219 18.394531 C 22.785156 18.585938 22.757812 18.773438 22.738281 18.957031 C 22.730469 19.050781 22.722656 19.144531 22.71875 19.234375 C 22.710938 19.328125 22.710938 19.417969 22.710938 19.507812 L 19.527344 19.507812 C 19.527344 18.957031 19.617188 18.40625 19.792969 17.855469 C 19.96875 17.300781 20.191406 16.765625 20.460938 16.238281 C 20.664062 15.847656 20.882812 15.457031 21.117188 15.074219 C 21.195312 14.949219 21.273438 14.820312 21.355469 14.695312 C 21.476562 14.503906 21.597656 14.320312 21.71875 14.148438 C 21.917969 13.859375 22.113281 13.589844 22.304688 13.34375 L 20.628906 13.34375 L 20.628906 14.3125 L 18.269531 14.3125 L 18.269531 11.296875 L 25.332031 11.296875 L 25.332031 12.898438 " fill-opacity="1" fill-rule="nonzero"/></g><path fill="#ff0000" d="M 22.304688 12.921875 L 23.164062 12.921875 L 22.632812 13.601562 C 22.558594 13.699219 22.484375 13.796875 22.40625 13.898438 C 22.253906 14.105469 22.101562 14.328125 21.941406 14.5625 C 21.863281 14.679688 21.785156 14.796875 21.707031 14.921875 C 21.625 15.042969 21.546875 15.167969 21.472656 15.292969 C 21.277344 15.609375 21.097656 15.933594 20.925781 16.253906 C 20.894531 16.3125 20.863281 16.375 20.832031 16.433594 C 20.703125 16.683594 20.582031 16.9375 20.476562 17.199219 C 20.421875 17.328125 20.371094 17.457031 20.324219 17.589844 C 20.277344 17.71875 20.230469 17.851562 20.1875 17.984375 C 20.070312 18.351562 19.996094 18.71875 19.964844 19.085938 L 22.308594 19.085938 C 22.316406 18.960938 22.332031 18.832031 22.347656 18.703125 C 22.367188 18.574219 22.386719 18.441406 22.414062 18.3125 C 22.453125 18.113281 22.496094 17.914062 22.550781 17.714844 C 22.601562 17.515625 22.660156 17.316406 22.722656 17.117188 C 22.789062 16.921875 22.859375 16.722656 22.9375 16.519531 C 22.976562 16.417969 23.019531 16.316406 23.0625 16.214844 C 23.105469 16.113281 23.148438 16.011719 23.195312 15.90625 C 23.378906 15.503906 23.601562 15.046875 23.859375 14.546875 C 23.902344 14.460938 23.953125 14.371094 24.003906 14.273438 C 24.058594 14.171875 24.117188 14.070312 24.179688 13.960938 C 24.304688 13.746094 24.441406 13.519531 24.59375 13.277344 C 24.691406 13.117188 24.800781 12.949219 24.914062 12.773438 L 24.914062 11.714844 L 18.683594 11.714844 L 18.683594 13.894531 L 20.210938 13.894531 L 20.210938 12.921875 Z M 23.734375 14.484375 C 23.476562 14.984375 23.253906 15.445312 23.070312 15.851562 C 22.882812 16.265625 22.722656 16.675781 22.59375 17.074219 C 22.460938 17.472656 22.355469 17.882812 22.277344 18.285156 C 22.234375 18.507812 22.199219 18.730469 22.179688 18.945312 L 20.117188 18.945312 C 20.15625 18.640625 20.222656 18.332031 20.320312 18.027344 C 20.488281 17.507812 20.699219 16.992188 20.957031 16.496094 C 21.214844 15.992188 21.507812 15.484375 21.820312 14.996094 C 22.136719 14.507812 22.449219 14.066406 22.742188 13.6875 L 22.84375 13.558594 C 23.484375 13.347656 24.09375 13.128906 24.664062 12.90625 C 24.269531 13.515625 23.957031 14.046875 23.734375 14.484375 " fill-opacity="1" fill-rule="nonzero"/><g clip-path="url(#b6f56f7ebf)"><path fill="#373737" d="M 20.421875 13.34375 L 20.421875 13.132812 L 22.734375 13.132812 L 22.46875 13.472656 C 22.167969 13.859375 21.851562 14.308594 21.53125 14.808594 C 21.210938 15.304688 20.914062 15.820312 20.644531 16.335938 C 20.382812 16.847656 20.164062 17.378906 19.992188 17.917969 C 19.84375 18.378906 19.761719 18.839844 19.742188 19.296875 L 22.503906 19.296875 C 22.519531 18.988281 22.554688 18.671875 22.617188 18.351562 C 22.695312 17.964844 22.796875 17.570312 22.921875 17.183594 C 23.046875 16.796875 23.203125 16.398438 23.386719 15.996094 C 23.566406 15.59375 23.789062 15.140625 24.042969 14.644531 C 24.292969 14.15625 24.65625 13.550781 25.121094 12.835938 L 25.121094 11.503906 L 18.476562 11.503906 L 18.476562 14.105469 L 20.421875 14.105469 Z M 20.210938 13.34375 L 20.210938 13.894531 L 18.683594 13.894531 L 18.683594 11.714844 L 24.914062 11.714844 L 24.914062 12.773438 C 24.800781 12.949219 24.691406 13.117188 24.59375 13.277344 C 24.441406 13.519531 24.304688 13.746094 24.179688 13.960938 C 24.117188 14.070312 24.058594 14.171875 24.003906 14.273438 C 23.953125 14.371094 23.902344 14.460938 23.859375 14.546875 C 23.601562 15.046875 23.378906 15.503906 23.195312 15.90625 C 23.148438 16.011719 23.105469 16.113281 23.0625 16.214844 C 23.019531 16.316406 22.976562 16.417969 22.9375 16.519531 C 22.859375 16.722656 22.789062 16.921875 22.722656 17.117188 C 22.660156 17.316406 22.601562 17.515625 22.550781 17.714844 C 22.496094 17.914062 22.453125 18.113281 22.414062 18.3125 C 22.386719 18.441406 22.367188 18.574219 22.347656 18.703125 C 22.332031 18.832031 22.316406 18.960938 22.308594 19.085938 L 19.964844 19.085938 C 19.996094 18.71875 20.070312 18.351562 20.1875 17.984375 C 20.230469 17.851562 20.277344 17.71875 20.324219 17.589844 C 20.371094 17.457031 20.421875 17.328125 20.476562 17.199219 C 20.582031 16.9375 20.703125 16.683594 20.832031 16.433594 C 20.863281 16.375 20.894531 16.3125 20.925781 16.253906 C 21.097656 15.933594 21.277344 15.609375 21.472656 15.292969 C 21.546875 15.167969 21.625 15.042969 21.707031 14.921875 C 21.785156 14.796875 21.863281 14.679688 21.941406 14.5625 C 22.101562 14.328125 22.253906 14.105469 22.40625 13.898438 C 22.484375 13.796875 22.558594 13.699219 22.632812 13.601562 L 23.164062 12.921875 L 20.210938 12.921875 L 20.210938 13.34375 " fill-opacity="1" fill-rule="nonzero"/><path fill="#ffffff" d="M 18.269531 14.3125 L 20.628906 14.3125 L 20.628906 13.34375 L 22.304688 13.34375 C 22.113281 13.589844 21.917969 13.859375 21.71875 14.148438 C 21.597656 14.320312 21.476562 14.503906 21.355469 14.695312 C 21.273438 14.820312 21.195312 14.949219 21.117188 15.074219 C 20.882812 15.457031 20.664062 15.847656 20.460938 16.238281 C 20.191406 16.765625 19.96875 17.300781 19.792969 17.855469 C 19.617188 18.40625 19.527344 18.957031 19.527344 19.507812 L 22.710938 19.507812 C 22.710938 19.417969 22.710938 19.328125 22.71875 19.234375 C 22.722656 19.144531 22.730469 19.050781 22.738281 18.957031 C 22.757812 18.773438 22.785156 18.585938 22.824219 18.394531 C 22.898438 18.007812 22.996094 17.628906 23.121094 17.246094 C 23.246094 16.867188 23.394531 16.480469 23.578125 16.082031 C 23.757812 15.683594 23.972656 15.238281 24.226562 14.742188 C 24.484375 14.246094 24.851562 13.632812 25.332031 12.898438 L 25.332031 11.296875 L 18.269531 11.296875 Z M 18.476562 11.503906 L 25.121094 11.503906 L 25.121094 12.835938 C 24.65625 13.550781 24.292969 14.15625 24.042969 14.644531 C 23.789062 15.140625 23.566406 15.59375 23.386719 15.996094 C 23.203125 16.398438 23.046875 16.796875 22.921875 17.183594 C 22.796875 17.570312 22.695312 17.964844 22.617188 18.351562 C 22.554688 18.671875 22.519531 18.988281 22.503906 19.296875 L 19.742188 19.296875 C 19.761719 18.839844 19.84375 18.378906 19.992188 17.917969 C 20.164062 17.378906 20.382812 16.847656 20.644531 16.335938 C 20.914062 15.820312 21.210938 15.304688 21.53125 14.808594 C 21.851562 14.308594 22.167969 13.859375 22.46875 13.472656 L 22.734375 13.132812 L 20.421875 13.132812 L 20.421875 14.105469 L 18.476562 14.105469 L 18.476562 11.503906 " fill-opacity="1" fill-rule="nonzero"/></g><path fill="#a80000" d="M 22.84375 13.558594 L 22.742188 13.6875 C 22.449219 14.066406 22.136719 14.507812 21.820312 14.996094 C 21.507812 15.484375 21.214844 15.992188 20.957031 16.496094 C 20.699219 16.992188 20.488281 17.507812 20.320312 18.027344 C 20.222656 18.332031 20.15625 18.640625 20.117188 18.945312 L 22.179688 18.945312 C 22.199219 18.730469 22.234375 18.507812 22.277344 18.285156 C 22.355469 17.882812 22.460938 17.472656 22.59375 17.074219 C 22.722656 16.675781 22.882812 16.265625 23.070312 15.851562 C 23.253906 15.445312 23.476562 14.984375 23.734375 14.484375 C 23.957031 14.046875 24.269531 13.515625 24.664062 12.90625 C 24.09375 13.128906 23.484375 13.347656 22.84375 13.558594 " fill-opacity="1" fill-rule="nonzero"/><g clip-path="url(#551380d89d)"><path fill="#373737" d="M 18.757812 9.179688 L 9.867188 9.179688 L 9.867188 14.007812 L 13.222656 14.007812 C 12.964844 14.433594 12.722656 14.867188 12.5 15.300781 C 12.167969 15.945312 11.890625 16.613281 11.675781 17.285156 C 11.453125 17.992188 11.335938 18.707031 11.335938 19.414062 L 11.335938 20.066406 L 16.347656 20.066406 L 16.347656 19.414062 C 16.347656 19.039062 16.390625 18.644531 16.46875 18.238281 C 16.550781 17.820312 16.660156 17.398438 16.796875 16.980469 C 16.933594 16.5625 17.101562 16.128906 17.300781 15.6875 C 17.507812 15.234375 17.757812 14.714844 18.046875 14.152344 C 18.332031 13.597656 18.753906 12.894531 19.300781 12.0625 L 19.40625 11.898438 L 19.40625 9.179688 Z M 18.757812 11.703125 C 18.199219 12.558594 17.769531 13.273438 17.472656 13.851562 C 17.171875 14.433594 16.921875 14.953125 16.710938 15.417969 C 16.5 15.882812 16.324219 16.335938 16.179688 16.777344 C 16.035156 17.222656 15.917969 17.667969 15.832031 18.113281 C 15.789062 18.335938 15.753906 18.558594 15.734375 18.773438 C 15.722656 18.882812 15.714844 18.988281 15.707031 19.097656 C 15.703125 19.203125 15.699219 19.308594 15.699219 19.414062 L 11.988281 19.414062 C 11.988281 18.773438 12.089844 18.128906 12.292969 17.484375 C 12.5 16.839844 12.761719 16.214844 13.074219 15.601562 C 13.3125 15.144531 13.566406 14.691406 13.839844 14.242188 C 13.929688 14.09375 14.023438 13.945312 14.117188 13.796875 C 14.261719 13.578125 14.402344 13.363281 14.542969 13.160156 C 14.773438 12.820312 15.003906 12.507812 15.226562 12.222656 L 13.273438 12.222656 L 13.273438 13.355469 L 10.515625 13.355469 L 10.515625 9.832031 L 18.757812 9.832031 L 18.757812 11.703125 " fill-opacity="1" fill-rule="nonzero"/></g><path fill="#ff0000" d="M 15.226562 11.730469 L 16.226562 11.730469 L 15.609375 12.523438 C 15.261719 12.96875 14.898438 13.488281 14.527344 14.0625 C 14.15625 14.636719 13.816406 15.230469 13.507812 15.828125 C 13.207031 16.414062 12.953125 17.019531 12.757812 17.636719 C 12.621094 18.0625 12.535156 18.496094 12.496094 18.921875 L 15.230469 18.921875 C 15.253906 18.628906 15.292969 18.324219 15.351562 18.019531 C 15.445312 17.554688 15.566406 17.085938 15.714844 16.625 C 15.867188 16.167969 16.050781 15.691406 16.265625 15.214844 C 16.480469 14.742188 16.742188 14.210938 17.039062 13.628906 C 17.328125 13.066406 17.742188 12.371094 18.269531 11.558594 L 18.269531 10.320312 L 11.003906 10.320312 L 11.003906 12.863281 L 12.785156 12.863281 L 12.785156 11.730469 Z M 12.675781 18.761719 C 12.71875 18.402344 12.800781 18.042969 12.914062 17.683594 C 13.105469 17.078125 13.355469 16.480469 13.652344 15.902344 C 13.710938 15.789062 13.773438 15.671875 13.839844 15.550781 C 14.59375 15.449219 15.351562 15.332031 16.09375 15.203125 C 15.886719 15.667969 15.707031 16.128906 15.5625 16.574219 C 15.410156 17.042969 15.285156 17.519531 15.195312 17.988281 C 15.144531 18.246094 15.105469 18.507812 15.082031 18.761719 L 12.675781 18.761719 " fill-opacity="1" fill-rule="nonzero"/><path fill="#373737" d="M 13.027344 12.222656 L 13.027344 11.976562 L 15.726562 11.976562 L 15.417969 12.371094 C 15.066406 12.824219 14.699219 13.347656 14.324219 13.929688 C 13.949219 14.511719 13.601562 15.113281 13.292969 15.714844 C 12.984375 16.3125 12.726562 16.933594 12.527344 17.5625 C 12.355469 18.097656 12.257812 18.636719 12.234375 19.167969 L 15.460938 19.167969 C 15.476562 18.8125 15.519531 18.441406 15.59375 18.066406 C 15.679688 17.613281 15.800781 17.152344 15.949219 16.703125 C 16.09375 16.253906 16.277344 15.785156 16.488281 15.316406 C 16.699219 14.847656 16.957031 14.316406 17.253906 13.742188 C 17.546875 13.171875 17.96875 12.460938 18.515625 11.632812 L 18.515625 10.078125 L 10.761719 10.078125 L 10.761719 13.109375 L 13.027344 13.109375 Z M 12.785156 12.222656 L 12.785156 12.863281 L 11.003906 12.863281 L 11.003906 10.320312 L 18.269531 10.320312 L 18.269531 11.558594 C 17.742188 12.371094 17.328125 13.066406 17.039062 13.628906 C 16.742188 14.210938 16.480469 14.742188 16.265625 15.214844 C 16.050781 15.691406 15.867188 16.167969 15.714844 16.625 C 15.566406 17.085938 15.445312 17.554688 15.351562 18.019531 C 15.292969 18.324219 15.253906 18.628906 15.230469 18.921875 L 12.496094 18.921875 C 12.535156 18.496094 12.621094 18.0625 12.757812 17.636719 C 12.953125 17.019531 13.207031 16.414062 13.507812 15.828125 C 13.816406 15.230469 14.15625 14.636719 14.527344 14.0625 C 14.898438 13.488281 15.261719 12.96875 15.609375 12.523438 L 16.226562 11.730469 L 12.785156 11.730469 L 12.785156 12.222656 " fill-opacity="1" fill-rule="nonzero"/><g clip-path="url(#b0ae5919c2)"><path fill="#ffffff" d="M 10.515625 13.355469 L 13.273438 13.355469 L 13.273438 12.222656 L 15.226562 12.222656 C 15.003906 12.507812 14.773438 12.820312 14.542969 13.160156 C 14.402344 13.363281 14.261719 13.578125 14.117188 13.796875 C 14.023438 13.945312 13.929688 14.09375 13.839844 14.242188 C 13.566406 14.691406 13.3125 15.144531 13.074219 15.601562 C 12.761719 16.214844 12.5 16.839844 12.292969 17.484375 C 12.089844 18.128906 11.988281 18.773438 11.988281 19.414062 L 15.699219 19.414062 C 15.699219 19.308594 15.703125 19.203125 15.707031 19.097656 C 15.714844 18.988281 15.722656 18.882812 15.734375 18.773438 C 15.753906 18.558594 15.789062 18.335938 15.832031 18.113281 C 15.917969 17.667969 16.035156 17.222656 16.179688 16.777344 C 16.324219 16.335938 16.5 15.882812 16.710938 15.417969 C 16.921875 14.953125 17.171875 14.433594 17.472656 13.851562 C 17.769531 13.273438 18.199219 12.558594 18.757812 11.703125 L 18.757812 9.832031 L 10.515625 9.832031 Z M 10.761719 10.078125 L 18.515625 10.078125 L 18.515625 11.632812 C 17.96875 12.460938 17.546875 13.171875 17.253906 13.742188 C 16.957031 14.316406 16.699219 14.847656 16.488281 15.316406 C 16.277344 15.785156 16.09375 16.253906 15.949219 16.703125 C 15.800781 17.152344 15.679688 17.613281 15.59375 18.066406 C 15.519531 18.441406 15.476562 18.8125 15.460938 19.167969 L 12.234375 19.167969 C 12.257812 18.636719 12.355469 18.097656 12.527344 17.5625 C 12.726562 16.933594 12.984375 16.3125 13.292969 15.714844 C 13.601562 15.113281 13.949219 14.511719 14.324219 13.929688 C 14.699219 13.347656 15.066406 12.824219 15.417969 12.371094 L 15.726562 11.976562 L 13.027344 11.976562 L 13.027344 13.109375 L 10.761719 13.109375 L 10.761719 10.078125 " fill-opacity="1" fill-rule="nonzero"/></g><path fill="#a80000" d="M 15.5625 16.574219 C 15.707031 16.128906 15.886719 15.667969 16.09375 15.203125 C 15.351562 15.332031 14.59375 15.449219 13.839844 15.550781 C 13.773438 15.671875 13.710938 15.789062 13.652344 15.902344 C 13.355469 16.480469 13.105469 17.078125 12.914062 17.683594 C 12.800781 18.042969 12.71875 18.402344 12.675781 18.761719 L 15.082031 18.761719 C 15.105469 18.507812 15.144531 18.246094 15.195312 17.988281 C 15.285156 17.519531 15.410156 17.042969 15.5625 16.574219 " fill-opacity="1" fill-rule="nonzero"/></svg>