<svg xmlns="http://www.w3.org/2000/svg" xmlns:xlink="http://www.w3.org/1999/xlink" width="60" zoomAndPan="magnify" viewBox="0 0 45 44.999999" height="60" preserveAspectRatio="xMidYMid meet" version="1.0"><defs><g/><clipPath id="2489afb5a8"><path d="M 3.839844 18 L 10 18 L 10 26 L 3.839844 26 Z M 3.839844 18 " clip-rule="nonzero"/></clipPath><clipPath id="6b6bf6bedf"><path d="M 4.382812 18.109375 L 9.992188 18.109375 L 9.992188 24.480469 L 4.382812 24.480469 Z M 4.382812 18.109375 " clip-rule="nonzero"/></clipPath><clipPath id="d496016a60"><path d="M 9.46875 24.292969 C 9.46875 24.292969 8.945312 23.835938 8.945312 23.535156 C 9.148438 23.433594 10.09375 22.375 9.925781 21.882812 C 9.757812 21.390625 8.472656 21.390625 8.472656 21.390625 C 8.472656 21.390625 7.832031 20.253906 7.832031 20.152344 C 7.832031 20.054688 8.335938 18.75 7.695312 18.28125 C 7.050781 17.8125 6.917969 18.503906 6.917969 18.726562 C 6.917969 18.949219 6.679688 19.71875 6.578125 19.617188 C 6.476562 19.519531 6.003906 18.222656 5.429688 18.636719 C 4.855469 19.050781 5.429688 19.988281 5.429688 19.988281 C 5.363281 20.1875 5.429688 20.515625 5.429688 20.515625 C 5.429688 20.515625 4.542969 20.210938 4.378906 20.449219 C 4.214844 20.6875 4.789062 21.453125 5.261719 21.621094 C 5.292969 22.128906 5.363281 22.296875 5.363281 22.296875 C 5.363281 22.296875 3.839844 21.960938 3.941406 22.53125 C 4.042969 23.097656 5.226562 23.632812 5.53125 23.5 C 5.902344 23.902344 6.207031 24.695312 6.75 24.550781 C 7.289062 24.402344 7.929688 24.394531 7.964844 24.550781 C 8 24.703125 8.574219 25.898438 8.574219 25.898438 L 9.6875 25.039062 Z M 9.46875 24.292969 " clip-rule="nonzero"/></clipPath><clipPath id="f8776d5a9b"><path d="M 6.804688 18.109375 L 8.273438 18.109375 L 8.273438 20.570312 L 6.804688 20.570312 Z M 6.804688 18.109375 " clip-rule="nonzero"/></clipPath><clipPath id="7c65bae094"><path d="M 9.46875 24.292969 C 9.46875 24.292969 8.945312 23.835938 8.945312 23.535156 C 9.148438 23.433594 10.09375 22.375 9.925781 21.882812 C 9.757812 21.390625 8.472656 21.390625 8.472656 21.390625 C 8.472656 21.390625 7.832031 20.253906 7.832031 20.152344 C 7.832031 20.054688 8.335938 18.75 7.695312 18.28125 C 7.050781 17.8125 6.917969 18.503906 6.917969 18.726562 C 6.917969 18.949219 6.679688 19.71875 6.578125 19.617188 C 6.476562 19.519531 6.003906 18.222656 5.429688 18.636719 C 4.855469 19.050781 5.429688 19.988281 5.429688 19.988281 C 5.363281 20.1875 5.429688 20.515625 5.429688 20.515625 C 5.429688 20.515625 4.542969 20.210938 4.378906 20.449219 C 4.214844 20.6875 4.789062 21.453125 5.261719 21.621094 C 5.292969 22.128906 5.363281 22.296875 5.363281 22.296875 C 5.363281 22.296875 3.839844 21.960938 3.941406 22.53125 C 4.042969 23.097656 5.226562 23.632812 5.53125 23.5 C 5.902344 23.902344 6.207031 24.695312 6.75 24.550781 C 7.289062 24.402344 7.929688 24.394531 7.964844 24.550781 C 8 24.703125 8.574219 25.898438 8.574219 25.898438 L 9.6875 25.039062 Z M 9.46875 24.292969 " clip-rule="nonzero"/></clipPath><clipPath id="759e77ce3c"><path d="M 4.703125 18.109375 L 6.871094 18.109375 L 6.871094 21 L 4.703125 21 Z M 4.703125 18.109375 " clip-rule="nonzero"/></clipPath><clipPath id="0b5139e4b8"><path d="M 9.46875 24.292969 C 9.46875 24.292969 8.945312 23.835938 8.945312 23.535156 C 9.148438 23.433594 10.09375 22.375 9.925781 21.882812 C 9.757812 21.390625 8.472656 21.390625 8.472656 21.390625 C 8.472656 21.390625 7.832031 20.253906 7.832031 20.152344 C 7.832031 20.054688 8.335938 18.75 7.695312 18.28125 C 7.050781 17.8125 6.917969 18.503906 6.917969 18.726562 C 6.917969 18.949219 6.679688 19.71875 6.578125 19.617188 C 6.476562 19.519531 6.003906 18.222656 5.429688 18.636719 C 4.855469 19.050781 5.429688 19.988281 5.429688 19.988281 C 5.363281 20.1875 5.429688 20.515625 5.429688 20.515625 C 5.429688 20.515625 4.542969 20.210938 4.378906 20.449219 C 4.214844 20.6875 4.789062 21.453125 5.261719 21.621094 C 5.292969 22.128906 5.363281 22.296875 5.363281 22.296875 C 5.363281 22.296875 3.839844 21.960938 3.941406 22.53125 C 4.042969 23.097656 5.226562 23.632812 5.53125 23.5 C 5.902344 23.902344 6.207031 24.695312 6.75 24.550781 C 7.289062 24.402344 7.929688 24.394531 7.964844 24.550781 C 8 24.703125 8.574219 25.898438 8.574219 25.898438 L 9.6875 25.039062 Z M 9.46875 24.292969 " clip-rule="nonzero"/></clipPath><clipPath id="fdd0c90e60"><path d="M 4.066406 19.875 L 6.359375 19.875 L 6.359375 22.082031 L 4.066406 22.082031 Z M 4.066406 19.875 " clip-rule="nonzero"/></clipPath><clipPath id="7c1f6f3828"><path d="M 9.46875 24.292969 C 9.46875 24.292969 8.945312 23.835938 8.945312 23.535156 C 9.148438 23.433594 10.09375 22.375 9.925781 21.882812 C 9.757812 21.390625 8.472656 21.390625 8.472656 21.390625 C 8.472656 21.390625 7.832031 20.253906 7.832031 20.152344 C 7.832031 20.054688 8.335938 18.75 7.695312 18.28125 C 7.050781 17.8125 6.917969 18.503906 6.917969 18.726562 C 6.917969 18.949219 6.679688 19.71875 6.578125 19.617188 C 6.476562 19.519531 6.003906 18.222656 5.429688 18.636719 C 4.855469 19.050781 5.429688 19.988281 5.429688 19.988281 C 5.363281 20.1875 5.429688 20.515625 5.429688 20.515625 C 5.429688 20.515625 4.542969 20.210938 4.378906 20.449219 C 4.214844 20.6875 4.789062 21.453125 5.261719 21.621094 C 5.292969 22.128906 5.363281 22.296875 5.363281 22.296875 C 5.363281 22.296875 3.839844 21.960938 3.941406 22.53125 C 4.042969 23.097656 5.226562 23.632812 5.53125 23.5 C 5.902344 23.902344 6.207031 24.695312 6.75 24.550781 C 7.289062 24.402344 7.929688 24.394531 7.964844 24.550781 C 8 24.703125 8.574219 25.898438 8.574219 25.898438 L 9.6875 25.039062 Z M 9.46875 24.292969 " clip-rule="nonzero"/></clipPath><clipPath id="7b8b98cc76"><path d="M 3.9375 21.832031 L 6.550781 21.832031 L 6.550781 23.914062 L 3.9375 23.914062 Z M 3.9375 21.832031 " clip-rule="nonzero"/></clipPath><clipPath id="d1c1c7b08d"><path d="M 9.46875 24.292969 C 9.46875 24.292969 8.945312 23.835938 8.945312 23.535156 C 9.148438 23.433594 10.09375 22.375 9.925781 21.882812 C 9.757812 21.390625 8.472656 21.390625 8.472656 21.390625 C 8.472656 21.390625 7.832031 20.253906 7.832031 20.152344 C 7.832031 20.054688 8.335938 18.75 7.695312 18.28125 C 7.050781 17.8125 6.917969 18.503906 6.917969 18.726562 C 6.917969 18.949219 6.679688 19.71875 6.578125 19.617188 C 6.476562 19.519531 6.003906 18.222656 5.429688 18.636719 C 4.855469 19.050781 5.429688 19.988281 5.429688 19.988281 C 5.363281 20.1875 5.429688 20.515625 5.429688 20.515625 C 5.429688 20.515625 4.542969 20.210938 4.378906 20.449219 C 4.214844 20.6875 4.789062 21.453125 5.261719 21.621094 C 5.292969 22.128906 5.363281 22.296875 5.363281 22.296875 C 5.363281 22.296875 3.839844 21.960938 3.941406 22.53125 C 4.042969 23.097656 5.226562 23.632812 5.53125 23.5 C 5.902344 23.902344 6.207031 24.695312 6.75 24.550781 C 7.289062 24.402344 7.929688 24.394531 7.964844 24.550781 C 8 24.703125 8.574219 25.898438 8.574219 25.898438 L 9.6875 25.039062 Z M 9.46875 24.292969 " clip-rule="nonzero"/></clipPath><clipPath id="addc43e167"><path d="M 7.253906 20.820312 L 9.992188 20.820312 L 9.992188 23.597656 L 7.253906 23.597656 Z M 7.253906 20.820312 " clip-rule="nonzero"/></clipPath><clipPath id="403194ea3b"><path d="M 9.46875 24.292969 C 9.46875 24.292969 8.945312 23.835938 8.945312 23.535156 C 9.148438 23.433594 10.09375 22.375 9.925781 21.882812 C 9.757812 21.390625 8.472656 21.390625 8.472656 21.390625 C 8.472656 21.390625 7.832031 20.253906 7.832031 20.152344 C 7.832031 20.054688 8.335938 18.75 7.695312 18.28125 C 7.050781 17.8125 6.917969 18.503906 6.917969 18.726562 C 6.917969 18.949219 6.679688 19.71875 6.578125 19.617188 C 6.476562 19.519531 6.003906 18.222656 5.429688 18.636719 C 4.855469 19.050781 5.429688 19.988281 5.429688 19.988281 C 5.363281 20.1875 5.429688 20.515625 5.429688 20.515625 C 5.429688 20.515625 4.542969 20.210938 4.378906 20.449219 C 4.214844 20.6875 4.789062 21.453125 5.261719 21.621094 C 5.292969 22.128906 5.363281 22.296875 5.363281 22.296875 C 5.363281 22.296875 3.839844 21.960938 3.941406 22.53125 C 4.042969 23.097656 5.226562 23.632812 5.53125 23.5 C 5.902344 23.902344 6.207031 24.695312 6.75 24.550781 C 7.289062 24.402344 7.929688 24.394531 7.964844 24.550781 C 8 24.703125 8.574219 25.898438 8.574219 25.898438 L 9.6875 25.039062 Z M 9.46875 24.292969 " clip-rule="nonzero"/></clipPath><clipPath id="cf0204e979"><path d="M 40 20 L 41.339844 20 L 41.339844 22 L 40 22 Z M 40 20 " clip-rule="nonzero"/></clipPath><clipPath id="cb34556825"><path d="M 40.140625 22.148438 L 41.296875 22.148438 L 41.296875 22.714844 L 40.140625 22.714844 Z M 40.140625 22.148438 " clip-rule="nonzero"/></clipPath><clipPath id="507cfb0f3c"><path d="M 40 25 L 41.339844 25 L 41.339844 27 L 40 27 Z M 40 25 " clip-rule="nonzero"/></clipPath><clipPath id="2cf9f46299"><path d="M 34 20 L 41.339844 20 L 41.339844 28 L 34 28 Z M 34 20 " clip-rule="nonzero"/></clipPath><clipPath id="066d5a4516"><path d="M 34.914062 22.96875 L 41.226562 22.96875 L 41.226562 27.761719 L 34.914062 27.761719 Z M 34.914062 22.96875 " clip-rule="nonzero"/></clipPath><clipPath id="9d3a209bbd"><path d="M 34.984375 26.257812 C 34.984375 26.257812 35.285156 26.164062 35.320312 25.796875 C 35.359375 25.433594 35.191406 25.066406 35.628906 24.613281 C 36.066406 24.160156 36.507812 23.378906 36.980469 23.535156 C 37.230469 23.15625 37.628906 22.882812 37.800781 22.660156 C 37.972656 22.441406 38.492188 21.367188 38.863281 21.203125 C 39.234375 21.039062 39.964844 20.800781 40.199219 21.042969 C 40.4375 21.289062 40.613281 21.546875 40.382812 21.617188 C 40.152344 21.683594 39.285156 21.800781 39.214844 21.9375 C 39.144531 22.078125 38.925781 22.425781 38.925781 22.425781 C 39.1875 22.378906 39.757812 22.097656 40.109375 22.109375 C 40.460938 22.121094 40.558594 22.09375 40.640625 22.378906 C 40.722656 22.660156 40.691406 22.972656 40.398438 22.921875 C 40.105469 22.875 39.632812 22.773438 39.484375 22.921875 C 39.339844 23.074219 38.894531 23.230469 38.898438 23.378906 C 39.117188 23.421875 39.847656 23.015625 40.296875 23.191406 C 40.742188 23.363281 41.136719 23.328125 41.136719 23.699219 C 41.136719 23.855469 41.066406 23.988281 40.984375 24.085938 C 40.890625 24.203125 40.726562 24.234375 40.59375 24.164062 C 40.445312 24.085938 40.25 24.011719 40.25 24.011719 L 40.085938 24.492188 C 40.285156 24.570312 40.90625 24.523438 41.027344 24.792969 C 41.144531 25.0625 41.339844 25.339844 41.117188 25.5 C 40.894531 25.660156 40.425781 25.539062 40.328125 25.382812 C 40.234375 25.226562 39.824219 25.074219 39.777344 25.144531 C 39.734375 25.214844 39.511719 25.394531 39.289062 25.371094 C 39.070312 25.347656 38.667969 25.085938 38.257812 25.632812 C 37.847656 26.183594 38.042969 26.085938 37.386719 26.5 C 36.730469 26.914062 36.328125 27.039062 36.113281 26.964844 C 35.902344 27.199219 35.644531 27.339844 35.515625 27.683594 C 35.386719 28.03125 34.835938 26.496094 34.976562 26.339844 " clip-rule="nonzero"/></clipPath><clipPath id="656f19d55b"><path d="M 34.914062 23.410156 L 37.402344 23.410156 L 37.402344 25.996094 L 34.914062 25.996094 Z M 34.914062 23.410156 " clip-rule="nonzero"/></clipPath><clipPath id="4b75ae7655"><path d="M 34.984375 26.257812 C 34.984375 26.257812 35.285156 26.164062 35.320312 25.796875 C 35.359375 25.433594 35.191406 25.066406 35.628906 24.613281 C 36.066406 24.160156 36.507812 23.378906 36.980469 23.535156 C 37.230469 23.15625 37.628906 22.882812 37.800781 22.660156 C 37.972656 22.441406 38.492188 21.367188 38.863281 21.203125 C 39.234375 21.039062 39.964844 20.800781 40.199219 21.042969 C 40.4375 21.289062 40.613281 21.546875 40.382812 21.617188 C 40.152344 21.683594 39.285156 21.800781 39.214844 21.9375 C 39.144531 22.078125 38.925781 22.425781 38.925781 22.425781 C 39.1875 22.378906 39.757812 22.097656 40.109375 22.109375 C 40.460938 22.121094 40.558594 22.09375 40.640625 22.378906 C 40.722656 22.660156 40.691406 22.972656 40.398438 22.921875 C 40.105469 22.875 39.632812 22.773438 39.484375 22.921875 C 39.339844 23.074219 38.894531 23.230469 38.898438 23.378906 C 39.117188 23.421875 39.847656 23.015625 40.296875 23.191406 C 40.742188 23.363281 41.136719 23.328125 41.136719 23.699219 C 41.136719 23.855469 41.066406 23.988281 40.984375 24.085938 C 40.890625 24.203125 40.726562 24.234375 40.59375 24.164062 C 40.445312 24.085938 40.25 24.011719 40.25 24.011719 L 40.085938 24.492188 C 40.285156 24.570312 40.90625 24.523438 41.027344 24.792969 C 41.144531 25.0625 41.339844 25.339844 41.117188 25.5 C 40.894531 25.660156 40.425781 25.539062 40.328125 25.382812 C 40.234375 25.226562 39.824219 25.074219 39.777344 25.144531 C 39.734375 25.214844 39.511719 25.394531 39.289062 25.371094 C 39.070312 25.347656 38.667969 25.085938 38.257812 25.632812 C 37.847656 26.183594 38.042969 26.085938 37.386719 26.5 C 36.730469 26.914062 36.328125 27.039062 36.113281 26.964844 C 35.902344 27.199219 35.644531 27.339844 35.515625 27.683594 C 35.386719 28.03125 34.835938 26.496094 34.976562 26.339844 " clip-rule="nonzero"/></clipPath><clipPath id="eae0b56da1"><path d="M 38.867188 23.03125 L 41.226562 23.03125 L 41.226562 24.417969 L 38.867188 24.417969 Z M 38.867188 23.03125 " clip-rule="nonzero"/></clipPath><clipPath id="6a5138b7b1"><path d="M 34.984375 26.257812 C 34.984375 26.257812 35.285156 26.164062 35.320312 25.796875 C 35.359375 25.433594 35.191406 25.066406 35.628906 24.613281 C 36.066406 24.160156 36.507812 23.378906 36.980469 23.535156 C 37.230469 23.15625 37.628906 22.882812 37.800781 22.660156 C 37.972656 22.441406 38.492188 21.367188 38.863281 21.203125 C 39.234375 21.039062 39.964844 20.800781 40.199219 21.042969 C 40.4375 21.289062 40.613281 21.546875 40.382812 21.617188 C 40.152344 21.683594 39.285156 21.800781 39.214844 21.9375 C 39.144531 22.078125 38.925781 22.425781 38.925781 22.425781 C 39.1875 22.378906 39.757812 22.097656 40.109375 22.109375 C 40.460938 22.121094 40.558594 22.09375 40.640625 22.378906 C 40.722656 22.660156 40.691406 22.972656 40.398438 22.921875 C 40.105469 22.875 39.632812 22.773438 39.484375 22.921875 C 39.339844 23.074219 38.894531 23.230469 38.898438 23.378906 C 39.117188 23.421875 39.847656 23.015625 40.296875 23.191406 C 40.742188 23.363281 41.136719 23.328125 41.136719 23.699219 C 41.136719 23.855469 41.066406 23.988281 40.984375 24.085938 C 40.890625 24.203125 40.726562 24.234375 40.59375 24.164062 C 40.445312 24.085938 40.25 24.011719 40.25 24.011719 L 40.085938 24.492188 C 40.285156 24.570312 40.90625 24.523438 41.027344 24.792969 C 41.144531 25.0625 41.339844 25.339844 41.117188 25.5 C 40.894531 25.660156 40.425781 25.539062 40.328125 25.382812 C 40.234375 25.226562 39.824219 25.074219 39.777344 25.144531 C 39.734375 25.214844 39.511719 25.394531 39.289062 25.371094 C 39.070312 25.347656 38.667969 25.085938 38.257812 25.632812 C 37.847656 26.183594 38.042969 26.085938 37.386719 26.5 C 36.730469 26.914062 36.328125 27.039062 36.113281 26.964844 C 35.902344 27.199219 35.644531 27.339844 35.515625 27.683594 C 35.386719 28.03125 34.835938 26.496094 34.976562 26.339844 " clip-rule="nonzero"/></clipPath><clipPath id="9e4181e530"><path d="M 40 23 L 41.339844 23 L 41.339844 25 L 40 25 Z M 40 23 " clip-rule="nonzero"/></clipPath><clipPath id="66fdfd99a0"><path d="M 4 22 L 37 22 L 37 30.75 L 4 30.75 Z M 4 22 " clip-rule="nonzero"/></clipPath><clipPath id="090ed36fd9"><path d="M 8.65625 22.273438 L 36.507812 22.273438 L 36.507812 30.75 L 8.65625 30.75 Z M 8.65625 22.273438 " clip-rule="nonzero"/></clipPath><clipPath id="46d9dab74e"><path d="M 7.152344 25.976562 C 7.152344 25.976562 8.234375 29.65625 7.964844 30.996094 C 7.695312 32.335938 4.246094 36.28125 4.382812 37.554688 C 4.515625 38.824219 5.097656 39.496094 6.195312 39.496094 C 7.289062 39.496094 7.558594 38.824219 8.371094 40.5 C 9.183594 42.171875 7.832031 43.175781 9.859375 43.84375 C 11.886719 44.515625 12.5625 44.984375 12.699219 45.316406 C 12.832031 45.652344 14.523438 46.1875 14.589844 45.917969 C 14.660156 45.652344 15.808594 45.585938 16.144531 46.988281 C 16.484375 48.394531 17.226562 47.191406 17.566406 46.988281 C 17.902344 46.789062 19.660156 48.328125 19.660156 48.664062 C 19.660156 48.996094 20.203125 48.929688 21.21875 48.664062 C 22.230469 48.394531 22.296875 47.84375 24.125 48.890625 C 25.949219 49.933594 26.691406 48.664062 27.167969 48.597656 C 27.640625 48.53125 28.585938 49.066406 29.128906 50.335938 C 29.667969 51.609375 29.667969 53.347656 30.546875 52.476562 C 31.425781 51.609375 31.019531 49.265625 33.25 49.800781 C 35.484375 50.335938 36.496094 50.535156 36.496094 50.535156 C 36.496094 50.535156 34.804688 37.554688 34.804688 34.339844 C 34.804688 31.128906 36.496094 28.183594 36.496094 28.183594 C 36.496094 28.183594 35.210938 26.710938 34.941406 25.375 C 35.007812 25.238281 33.386719 24.90625 32.371094 26.242188 C 31.359375 27.582031 29.195312 23.300781 29.195312 23.300781 C 29.195312 23.300781 23.921875 23.433594 23.652344 23.300781 C 23.378906 23.164062 18.511719 22.296875 18.511719 22.296875 C 18.511719 22.296875 15.199219 22.496094 14.660156 23.164062 C 14.117188 23.835938 11.617188 24.304688 11.414062 24.167969 C 11.210938 24.035156 10.535156 22.695312 10.535156 22.695312 C 10.535156 22.695312 8.574219 26.175781 7.152344 25.976562 Z M 7.152344 25.976562 " clip-rule="nonzero"/></clipPath><clipPath id="807a2d0706"><path d="M 14 27 L 16 27 L 16 30.75 L 14 30.75 Z M 14 27 " clip-rule="nonzero"/></clipPath><clipPath id="4442e6f036"><path d="M 15 29 L 17 29 L 17 30.75 L 15 30.75 Z M 15 29 " clip-rule="nonzero"/></clipPath><clipPath id="5c77356292"><path d="M 16 29 L 17 29 L 17 30.75 L 16 30.75 Z M 16 29 " clip-rule="nonzero"/></clipPath><clipPath id="7415e6c815"><path d="M 14 21 L 33 21 L 33 30.75 L 14 30.75 Z M 14 21 " clip-rule="nonzero"/></clipPath><clipPath id="18649174e4"><path d="M 18.40625 21.578125 L 32.046875 21.578125 L 32.046875 30.75 L 18.40625 30.75 Z M 18.40625 21.578125 " clip-rule="nonzero"/></clipPath><clipPath id="7617db84de"><path d="M 16.273438 31.4375 C 16.582031 32.085938 16.859375 32.753906 17.226562 33.367188 C 18.082031 34.792969 19.394531 35.894531 20.339844 37.265625 C 21.722656 39.265625 22.25 41.714844 23.230469 43.941406 C 23.378906 44.277344 23.609375 44.660156 23.980469 44.671875 C 24.535156 44.691406 24.703125 43.957031 24.847656 43.425781 C 25.117188 42.425781 25.902344 41.660156 26.578125 40.863281 C 27.3125 40 27.9375 39.054688 28.5625 38.113281 C 29.132812 37.25 29.703125 36.386719 30.273438 35.527344 C 30.472656 35.222656 30.683594 34.871094 30.597656 34.519531 C 30.5625 34.375 30.480469 34.246094 30.46875 34.101562 C 30.449219 33.875 30.597656 33.675781 30.726562 33.488281 C 32.242188 31.339844 32.113281 28.5 31.925781 25.886719 C 31.898438 25.546875 31.867188 25.179688 31.648438 24.910156 C 31.492188 24.71875 31.261719 24.601562 31.035156 24.492188 C 30.011719 23.988281 28.960938 23.480469 27.824219 23.339844 C 27.199219 23.265625 26.566406 23.304688 25.9375 23.265625 C 23.8125 23.140625 21.847656 22.15625 19.773438 21.695312 C 19.550781 21.644531 19.316406 21.597656 19.089844 21.636719 C 18.792969 21.6875 18.535156 21.871094 18.300781 22.058594 C 16.839844 23.21875 15.636719 24.6875 14.785156 26.332031 C 14.257812 27.351562 14.125 27.671875 14.734375 28.628906 C 15.308594 29.53125 15.824219 30.46875 16.273438 31.4375 Z M 16.273438 31.4375 " clip-rule="nonzero"/></clipPath><clipPath id="123defffa3"><path d="M 15.730469 24.039062 L 30.582031 24.039062 L 30.582031 27 L 15.730469 27 Z M 15.730469 24.039062 " clip-rule="nonzero"/></clipPath><clipPath id="4e2a0913c7"><path d="M 16.273438 31.4375 C 16.582031 32.085938 16.859375 32.753906 17.226562 33.367188 C 18.082031 34.792969 19.394531 35.894531 20.339844 37.265625 C 21.722656 39.265625 22.25 41.714844 23.230469 43.941406 C 23.378906 44.277344 23.609375 44.660156 23.980469 44.671875 C 24.535156 44.691406 24.703125 43.957031 24.847656 43.425781 C 25.117188 42.425781 25.902344 41.660156 26.578125 40.863281 C 27.3125 40 27.9375 39.054688 28.5625 38.113281 C 29.132812 37.25 29.703125 36.386719 30.273438 35.527344 C 30.472656 35.222656 30.683594 34.871094 30.597656 34.519531 C 30.5625 34.375 30.480469 34.246094 30.46875 34.101562 C 30.449219 33.875 30.597656 33.675781 30.726562 33.488281 C 32.242188 31.339844 32.113281 28.5 31.925781 25.886719 C 31.898438 25.546875 31.867188 25.179688 31.648438 24.910156 C 31.492188 24.71875 31.261719 24.601562 31.035156 24.492188 C 30.011719 23.988281 28.960938 23.480469 27.824219 23.339844 C 27.199219 23.265625 26.566406 23.304688 25.9375 23.265625 C 23.8125 23.140625 21.847656 22.15625 19.773438 21.695312 C 19.550781 21.644531 19.316406 21.597656 19.089844 21.636719 C 18.792969 21.6875 18.535156 21.871094 18.300781 22.058594 C 16.839844 23.21875 15.636719 24.6875 14.785156 26.332031 C 14.257812 27.351562 14.125 27.671875 14.734375 28.628906 C 15.308594 29.53125 15.824219 30.46875 16.273438 31.4375 Z M 16.273438 31.4375 " clip-rule="nonzero"/></clipPath><clipPath id="484da54518"><path d="M 14.644531 27.574219 L 31.535156 27.574219 L 31.535156 30.75 L 14.644531 30.75 Z M 14.644531 27.574219 " clip-rule="nonzero"/></clipPath><clipPath id="ddc69eeb67"><path d="M 16.273438 31.4375 C 16.582031 32.085938 16.859375 32.753906 17.226562 33.367188 C 18.082031 34.792969 19.394531 35.894531 20.339844 37.265625 C 21.722656 39.265625 22.25 41.714844 23.230469 43.941406 C 23.378906 44.277344 23.609375 44.660156 23.980469 44.671875 C 24.535156 44.691406 24.703125 43.957031 24.847656 43.425781 C 25.117188 42.425781 25.902344 41.660156 26.578125 40.863281 C 27.3125 40 27.9375 39.054688 28.5625 38.113281 C 29.132812 37.25 29.703125 36.386719 30.273438 35.527344 C 30.472656 35.222656 30.683594 34.871094 30.597656 34.519531 C 30.5625 34.375 30.480469 34.246094 30.46875 34.101562 C 30.449219 33.875 30.597656 33.675781 30.726562 33.488281 C 32.242188 31.339844 32.113281 28.5 31.925781 25.886719 C 31.898438 25.546875 31.867188 25.179688 31.648438 24.910156 C 31.492188 24.71875 31.261719 24.601562 31.035156 24.492188 C 30.011719 23.988281 28.960938 23.480469 27.824219 23.339844 C 27.199219 23.265625 26.566406 23.304688 25.9375 23.265625 C 23.8125 23.140625 21.847656 22.15625 19.773438 21.695312 C 19.550781 21.644531 19.316406 21.597656 19.089844 21.636719 C 18.792969 21.6875 18.535156 21.871094 18.300781 22.058594 C 16.839844 23.21875 15.636719 24.6875 14.785156 26.332031 C 14.257812 27.351562 14.125 27.671875 14.734375 28.628906 C 15.308594 29.53125 15.824219 30.46875 16.273438 31.4375 Z M 16.273438 31.4375 " clip-rule="nonzero"/></clipPath><clipPath id="0717536baa"><path d="M 15.472656 24.355469 L 24.78125 24.355469 L 24.78125 30.75 L 15.472656 30.75 Z M 15.472656 24.355469 " clip-rule="nonzero"/></clipPath><clipPath id="f6cd71288c"><path d="M 16.273438 31.4375 C 16.582031 32.085938 16.859375 32.753906 17.226562 33.367188 C 18.082031 34.792969 19.394531 35.894531 20.339844 37.265625 C 21.722656 39.265625 22.25 41.714844 23.230469 43.941406 C 23.378906 44.277344 23.609375 44.660156 23.980469 44.671875 C 24.535156 44.691406 24.703125 43.957031 24.847656 43.425781 C 25.117188 42.425781 25.902344 41.660156 26.578125 40.863281 C 27.3125 40 27.9375 39.054688 28.5625 38.113281 C 29.132812 37.25 29.703125 36.386719 30.273438 35.527344 C 30.472656 35.222656 30.683594 34.871094 30.597656 34.519531 C 30.5625 34.375 30.480469 34.246094 30.46875 34.101562 C 30.449219 33.875 30.597656 33.675781 30.726562 33.488281 C 32.242188 31.339844 32.113281 28.5 31.925781 25.886719 C 31.898438 25.546875 31.867188 25.179688 31.648438 24.910156 C 31.492188 24.71875 31.261719 24.601562 31.035156 24.492188 C 30.011719 23.988281 28.960938 23.480469 27.824219 23.339844 C 27.199219 23.265625 26.566406 23.304688 25.9375 23.265625 C 23.8125 23.140625 21.847656 22.15625 19.773438 21.695312 C 19.550781 21.644531 19.316406 21.597656 19.089844 21.636719 C 18.792969 21.6875 18.535156 21.871094 18.300781 22.058594 C 16.839844 23.21875 15.636719 24.6875 14.785156 26.332031 C 14.257812 27.351562 14.125 27.671875 14.734375 28.628906 C 15.308594 29.53125 15.824219 30.46875 16.273438 31.4375 Z M 16.273438 31.4375 " clip-rule="nonzero"/></clipPath><clipPath id="fef4a4b740"><path d="M 17.769531 22.273438 L 27.203125 22.273438 L 27.203125 30.75 L 17.769531 30.75 Z M 17.769531 22.273438 " clip-rule="nonzero"/></clipPath><clipPath id="c37e6fc487"><path d="M 16.273438 31.4375 C 16.582031 32.085938 16.859375 32.753906 17.226562 33.367188 C 18.082031 34.792969 19.394531 35.894531 20.339844 37.265625 C 21.722656 39.265625 22.25 41.714844 23.230469 43.941406 C 23.378906 44.277344 23.609375 44.660156 23.980469 44.671875 C 24.535156 44.691406 24.703125 43.957031 24.847656 43.425781 C 25.117188 42.425781 25.902344 41.660156 26.578125 40.863281 C 27.3125 40 27.9375 39.054688 28.5625 38.113281 C 29.132812 37.25 29.703125 36.386719 30.273438 35.527344 C 30.472656 35.222656 30.683594 34.871094 30.597656 34.519531 C 30.5625 34.375 30.480469 34.246094 30.46875 34.101562 C 30.449219 33.875 30.597656 33.675781 30.726562 33.488281 C 32.242188 31.339844 32.113281 28.5 31.925781 25.886719 C 31.898438 25.546875 31.867188 25.179688 31.648438 24.910156 C 31.492188 24.71875 31.261719 24.601562 31.035156 24.492188 C 30.011719 23.988281 28.960938 23.480469 27.824219 23.339844 C 27.199219 23.265625 26.566406 23.304688 25.9375 23.265625 C 23.8125 23.140625 21.847656 22.15625 19.773438 21.695312 C 19.550781 21.644531 19.316406 21.597656 19.089844 21.636719 C 18.792969 21.6875 18.535156 21.871094 18.300781 22.058594 C 16.839844 23.21875 15.636719 24.6875 14.785156 26.332031 C 14.257812 27.351562 14.125 27.671875 14.734375 28.628906 C 15.308594 29.53125 15.824219 30.46875 16.273438 31.4375 Z M 16.273438 31.4375 " clip-rule="nonzero"/></clipPath><clipPath id="ff3413e322"><path d="M 21.53125 23.535156 L 28.160156 23.535156 L 28.160156 30.75 L 21.53125 30.75 Z M 21.53125 23.535156 " clip-rule="nonzero"/></clipPath><clipPath id="778d468411"><path d="M 16.273438 31.4375 C 16.582031 32.085938 16.859375 32.753906 17.226562 33.367188 C 18.082031 34.792969 19.394531 35.894531 20.339844 37.265625 C 21.722656 39.265625 22.25 41.714844 23.230469 43.941406 C 23.378906 44.277344 23.609375 44.660156 23.980469 44.671875 C 24.535156 44.691406 24.703125 43.957031 24.847656 43.425781 C 25.117188 42.425781 25.902344 41.660156 26.578125 40.863281 C 27.3125 40 27.9375 39.054688 28.5625 38.113281 C 29.132812 37.25 29.703125 36.386719 30.273438 35.527344 C 30.472656 35.222656 30.683594 34.871094 30.597656 34.519531 C 30.5625 34.375 30.480469 34.246094 30.46875 34.101562 C 30.449219 33.875 30.597656 33.675781 30.726562 33.488281 C 32.242188 31.339844 32.113281 28.5 31.925781 25.886719 C 31.898438 25.546875 31.867188 25.179688 31.648438 24.910156 C 31.492188 24.71875 31.261719 24.601562 31.035156 24.492188 C 30.011719 23.988281 28.960938 23.480469 27.824219 23.339844 C 27.199219 23.265625 26.566406 23.304688 25.9375 23.265625 C 23.8125 23.140625 21.847656 22.15625 19.773438 21.695312 C 19.550781 21.644531 19.316406 21.597656 19.089844 21.636719 C 18.792969 21.6875 18.535156 21.871094 18.300781 22.058594 C 16.839844 23.21875 15.636719 24.6875 14.785156 26.332031 C 14.257812 27.351562 14.125 27.671875 14.734375 28.628906 C 15.308594 29.53125 15.824219 30.46875 16.273438 31.4375 Z M 16.273438 31.4375 " clip-rule="nonzero"/></clipPath><clipPath id="f5da896eb9"><path d="M 24.652344 24.605469 L 29.816406 24.605469 L 29.816406 30.75 L 24.652344 30.75 Z M 24.652344 24.605469 " clip-rule="nonzero"/></clipPath><clipPath id="2cc215f8af"><path d="M 16.273438 31.4375 C 16.582031 32.085938 16.859375 32.753906 17.226562 33.367188 C 18.082031 34.792969 19.394531 35.894531 20.339844 37.265625 C 21.722656 39.265625 22.25 41.714844 23.230469 43.941406 C 23.378906 44.277344 23.609375 44.660156 23.980469 44.671875 C 24.535156 44.691406 24.703125 43.957031 24.847656 43.425781 C 25.117188 42.425781 25.902344 41.660156 26.578125 40.863281 C 27.3125 40 27.9375 39.054688 28.5625 38.113281 C 29.132812 37.25 29.703125 36.386719 30.273438 35.527344 C 30.472656 35.222656 30.683594 34.871094 30.597656 34.519531 C 30.5625 34.375 30.480469 34.246094 30.46875 34.101562 C 30.449219 33.875 30.597656 33.675781 30.726562 33.488281 C 32.242188 31.339844 32.113281 28.5 31.925781 25.886719 C 31.898438 25.546875 31.867188 25.179688 31.648438 24.910156 C 31.492188 24.71875 31.261719 24.601562 31.035156 24.492188 C 30.011719 23.988281 28.960938 23.480469 27.824219 23.339844 C 27.199219 23.265625 26.566406 23.304688 25.9375 23.265625 C 23.8125 23.140625 21.847656 22.15625 19.773438 21.695312 C 19.550781 21.644531 19.316406 21.597656 19.089844 21.636719 C 18.792969 21.6875 18.535156 21.871094 18.300781 22.058594 C 16.839844 23.21875 15.636719 24.6875 14.785156 26.332031 C 14.257812 27.351562 14.125 27.671875 14.734375 28.628906 C 15.308594 29.53125 15.824219 30.46875 16.273438 31.4375 Z M 16.273438 31.4375 " clip-rule="nonzero"/></clipPath><clipPath id="0d54ad1c4a"><path d="M 27.519531 24.101562 L 31.410156 24.101562 L 31.410156 30.75 L 27.519531 30.75 Z M 27.519531 24.101562 " clip-rule="nonzero"/></clipPath><clipPath id="45425bede8"><path d="M 16.273438 31.4375 C 16.582031 32.085938 16.859375 32.753906 17.226562 33.367188 C 18.082031 34.792969 19.394531 35.894531 20.339844 37.265625 C 21.722656 39.265625 22.25 41.714844 23.230469 43.941406 C 23.378906 44.277344 23.609375 44.660156 23.980469 44.671875 C 24.535156 44.691406 24.703125 43.957031 24.847656 43.425781 C 25.117188 42.425781 25.902344 41.660156 26.578125 40.863281 C 27.3125 40 27.9375 39.054688 28.5625 38.113281 C 29.132812 37.25 29.703125 36.386719 30.273438 35.527344 C 30.472656 35.222656 30.683594 34.871094 30.597656 34.519531 C 30.5625 34.375 30.480469 34.246094 30.46875 34.101562 C 30.449219 33.875 30.597656 33.675781 30.726562 33.488281 C 32.242188 31.339844 32.113281 28.5 31.925781 25.886719 C 31.898438 25.546875 31.867188 25.179688 31.648438 24.910156 C 31.492188 24.71875 31.261719 24.601562 31.035156 24.492188 C 30.011719 23.988281 28.960938 23.480469 27.824219 23.339844 C 27.199219 23.265625 26.566406 23.304688 25.9375 23.265625 C 23.8125 23.140625 21.847656 22.15625 19.773438 21.695312 C 19.550781 21.644531 19.316406 21.597656 19.089844 21.636719 C 18.792969 21.6875 18.535156 21.871094 18.300781 22.058594 C 16.839844 23.21875 15.636719 24.6875 14.785156 26.332031 C 14.257812 27.351562 14.125 27.671875 14.734375 28.628906 C 15.308594 29.53125 15.824219 30.46875 16.273438 31.4375 Z M 16.273438 31.4375 " clip-rule="nonzero"/></clipPath><clipPath id="d47ad4c1b1"><path d="M 19.871094 15.144531 L 30.261719 15.144531 L 30.261719 27.320312 L 19.871094 27.320312 Z M 19.871094 15.144531 " clip-rule="nonzero"/></clipPath><clipPath id="0a3917e528"><path d="M 18.984375 20.488281 C 18.984375 20.488281 18.648438 23.769531 20.675781 25.039062 C 22.433594 25.976562 22.773438 27.316406 23.855469 27.316406 C 24.933594 27.316406 25.8125 26.625 26.152344 25.898438 C 26.761719 25.84375 29.128906 25.777344 29.871094 23.5 C 30.613281 21.226562 29.871094 17.410156 29.871094 17.410156 C 29.871094 17.410156 27.300781 15.601562 26.828125 15.601562 C 26.355469 15.601562 23.960938 14.597656 22.824219 15.601562 C 21.691406 16.605469 19 19.625 18.984375 20.488281 Z M 18.984375 20.488281 " clip-rule="nonzero"/></clipPath><clipPath id="080900d524"><path d="M 22.613281 23.21875 L 26.308594 23.21875 L 26.308594 24.605469 L 22.613281 24.605469 Z M 22.613281 23.21875 " clip-rule="nonzero"/></clipPath><clipPath id="1993c2b4df"><path d="M 22.503906 24.304688 C 22.5 24.296875 22.492188 24.292969 22.488281 24.285156 C 22.113281 23.839844 22.195312 23.144531 22.507812 22.695312 C 23.125 21.808594 23.484375 21.792969 24.234375 21.976562 C 24.871094 22.132812 25.78125 22.050781 26.183594 22.660156 C 26.394531 22.988281 26.660156 23.398438 26.660156 23.800781 C 26.660156 24.179688 26.550781 24.578125 26.101562 24.546875 C 25.535156 24.511719 25.011719 24.238281 24.445312 24.1875 C 24.191406 24.164062 23.925781 24.128906 23.667969 24.15625 C 23.28125 24.195312 22.855469 24.6875 22.503906 24.304688 Z M 22.503906 24.304688 " clip-rule="nonzero"/></clipPath><clipPath id="16d605f085"><path d="M 20.890625 16.910156 L 24.078125 16.910156 L 24.078125 19.8125 L 20.890625 19.8125 Z M 20.890625 16.910156 " clip-rule="nonzero"/></clipPath><clipPath id="b1c8d73e99"><path d="M 24.234375 18.546875 C 24.234375 19.445312 23.5 20.175781 22.589844 20.175781 C 21.683594 20.175781 20.945312 19.445312 20.945312 18.546875 C 20.945312 17.648438 21.683594 16.917969 22.589844 16.917969 C 23.5 16.917969 24.234375 17.648438 24.234375 18.546875 Z M 24.234375 18.546875 " clip-rule="nonzero"/></clipPath><clipPath id="5e2c99f11b"><path d="M 26.949219 18.613281 L 29.496094 18.613281 L 29.496094 21.640625 L 26.949219 21.640625 Z M 26.949219 18.613281 " clip-rule="nonzero"/></clipPath><clipPath id="318beabeca"><path d="M 29.441406 20.109375 C 29.441406 20.921875 28.710938 21.582031 27.808594 21.582031 C 26.90625 21.582031 26.175781 20.921875 26.175781 20.109375 C 26.175781 19.296875 26.90625 18.636719 27.808594 18.636719 C 28.710938 18.636719 29.441406 19.296875 29.441406 20.109375 Z M 29.441406 20.109375 " clip-rule="nonzero"/></clipPath><clipPath id="70877811b0"><path d="M 9 14 L 37 14 L 37 30.75 L 9 30.75 Z M 9 14 " clip-rule="nonzero"/></clipPath><clipPath id="6c3b017b8e"><path d="M 9.101562 14.324219 L 26 14.324219 L 26 30.75 L 9.101562 30.75 Z M 9.101562 14.324219 " clip-rule="nonzero"/></clipPath><clipPath id="38755235aa"><path d="M 26.015625 15.203125 C 26.015625 15.203125 21.285156 12.859375 17.972656 16.070312 C 14.660156 19.285156 15.0625 20.019531 13.171875 21.292969 C 11.277344 22.5625 10.195312 23.234375 10.0625 24.304688 C 9.925781 25.375 8.4375 29.324219 9.519531 29.65625 C 10.601562 29.992188 11.277344 30.328125 11.414062 30.792969 C 11.546875 31.261719 12.496094 31.933594 12.96875 31.53125 C 13.441406 31.128906 13.914062 29.054688 14.523438 29.324219 C 15.132812 29.589844 17.105469 30.996094 17.539062 30.660156 C 17.972656 30.328125 19.121094 29.65625 18.917969 27.515625 C 18.714844 25.375 19.1875 20.824219 19.933594 19.484375 C 20.675781 18.144531 23.855469 14.734375 25.949219 15.871094 C 28.046875 17.007812 28.855469 17.210938 29.128906 17.945312 C 29.398438 18.679688 28.585938 18.949219 29.128906 19.6875 C 29.667969 20.421875 30.074219 20.621094 29.804688 22.296875 C 29.53125 23.96875 28.25 26.175781 28.855469 26.914062 C 29.464844 27.648438 30.210938 27.648438 30.410156 28.71875 C 30.613281 29.789062 31.359375 30.503906 31.359375 31.652344 C 31.359375 32.800781 32.238281 33.671875 32.777344 33.003906 C 33.320312 32.335938 33.996094 32.335938 34.402344 34.007812 C 34.804688 35.679688 34.535156 37.820312 35.484375 37.351562 C 36.429688 36.882812 37.039062 35.746094 36.292969 33.804688 C 35.550781 31.867188 33.792969 27.675781 33.722656 25.921875 C 33.65625 24.167969 32.777344 18.882812 31.222656 17.679688 C 29.667969 16.472656 28.945312 14.199219 26.015625 15.203125 Z M 26.015625 15.203125 " clip-rule="nonzero"/></clipPath><clipPath id="e4572273f5"><path d="M 13.691406 20.695312 L 17 20.695312 L 17 30.75 L 13.691406 30.75 Z M 13.691406 20.695312 " clip-rule="nonzero"/></clipPath><clipPath id="e4768e3231"><path d="M 26.015625 15.203125 C 26.015625 15.203125 21.285156 12.859375 17.972656 16.070312 C 14.660156 19.285156 15.0625 20.019531 13.171875 21.292969 C 11.277344 22.5625 10.195312 23.234375 10.0625 24.304688 C 9.925781 25.375 8.4375 29.324219 9.519531 29.65625 C 10.601562 29.992188 11.277344 30.328125 11.414062 30.792969 C 11.546875 31.261719 12.496094 31.933594 12.96875 31.53125 C 13.441406 31.128906 13.914062 29.054688 14.523438 29.324219 C 15.132812 29.589844 17.105469 30.996094 17.539062 30.660156 C 17.972656 30.328125 19.121094 29.65625 18.917969 27.515625 C 18.714844 25.375 19.1875 20.824219 19.933594 19.484375 C 20.675781 18.144531 23.855469 14.734375 25.949219 15.871094 C 28.046875 17.007812 28.855469 17.210938 29.128906 17.945312 C 29.398438 18.679688 28.585938 18.949219 29.128906 19.6875 C 29.667969 20.421875 30.074219 20.621094 29.804688 22.296875 C 29.53125 23.96875 28.25 26.175781 28.855469 26.914062 C 29.464844 27.648438 30.210938 27.648438 30.410156 28.71875 C 30.613281 29.789062 31.359375 30.503906 31.359375 31.652344 C 31.359375 32.800781 32.238281 33.671875 32.777344 33.003906 C 33.320312 32.335938 33.996094 32.335938 34.402344 34.007812 C 34.804688 35.679688 34.535156 37.820312 35.484375 37.351562 C 36.429688 36.882812 37.039062 35.746094 36.292969 33.804688 C 35.550781 31.867188 33.792969 27.675781 33.722656 25.921875 C 33.65625 24.167969 32.777344 18.882812 31.222656 17.679688 C 29.667969 16.472656 28.945312 14.199219 26.015625 15.203125 Z M 26.015625 15.203125 " clip-rule="nonzero"/></clipPath><clipPath id="8e59ccf44d"><path d="M 26.4375 14.640625 L 36.636719 14.640625 L 36.636719 30.75 L 26.4375 30.75 Z M 26.4375 14.640625 " clip-rule="nonzero"/></clipPath><clipPath id="8af8886c5b"><path d="M 26.015625 15.203125 C 26.015625 15.203125 21.285156 12.859375 17.972656 16.070312 C 14.660156 19.285156 15.0625 20.019531 13.171875 21.292969 C 11.277344 22.5625 10.195312 23.234375 10.0625 24.304688 C 9.925781 25.375 8.4375 29.324219 9.519531 29.65625 C 10.601562 29.992188 11.277344 30.328125 11.414062 30.792969 C 11.546875 31.261719 12.496094 31.933594 12.96875 31.53125 C 13.441406 31.128906 13.914062 29.054688 14.523438 29.324219 C 15.132812 29.589844 17.105469 30.996094 17.539062 30.660156 C 17.972656 30.328125 19.121094 29.65625 18.917969 27.515625 C 18.714844 25.375 19.1875 20.824219 19.933594 19.484375 C 20.675781 18.144531 23.855469 14.734375 25.949219 15.871094 C 28.046875 17.007812 28.855469 17.210938 29.128906 17.945312 C 29.398438 18.679688 28.585938 18.949219 29.128906 19.6875 C 29.667969 20.421875 30.074219 20.621094 29.804688 22.296875 C 29.53125 23.96875 28.25 26.175781 28.855469 26.914062 C 29.464844 27.648438 30.210938 27.648438 30.410156 28.71875 C 30.613281 29.789062 31.359375 30.503906 31.359375 31.652344 C 31.359375 32.800781 32.238281 33.671875 32.777344 33.003906 C 33.320312 32.335938 33.996094 32.335938 34.402344 34.007812 C 34.804688 35.679688 34.535156 37.820312 35.484375 37.351562 C 36.429688 36.882812 37.039062 35.746094 36.292969 33.804688 C 35.550781 31.867188 33.792969 27.675781 33.722656 25.921875 C 33.65625 24.167969 32.777344 18.882812 31.222656 17.679688 C 29.667969 16.472656 28.945312 14.199219 26.015625 15.203125 Z M 26.015625 15.203125 " clip-rule="nonzero"/></clipPath><clipPath id="13336dee87"><path d="M 29.113281 22.210938 L 31.855469 22.210938 L 31.855469 30.75 L 29.113281 30.75 Z M 29.113281 22.210938 " clip-rule="nonzero"/></clipPath><clipPath id="41e63fddf9"><path d="M 26.015625 15.203125 C 26.015625 15.203125 21.285156 12.859375 17.972656 16.070312 C 14.660156 19.285156 15.0625 20.019531 13.171875 21.292969 C 11.277344 22.5625 10.195312 23.234375 10.0625 24.304688 C 9.925781 25.375 8.4375 29.324219 9.519531 29.65625 C 10.601562 29.992188 11.277344 30.328125 11.414062 30.792969 C 11.546875 31.261719 12.496094 31.933594 12.96875 31.53125 C 13.441406 31.128906 13.914062 29.054688 14.523438 29.324219 C 15.132812 29.589844 17.105469 30.996094 17.539062 30.660156 C 17.972656 30.328125 19.121094 29.65625 18.917969 27.515625 C 18.714844 25.375 19.1875 20.824219 19.933594 19.484375 C 20.675781 18.144531 23.855469 14.734375 25.949219 15.871094 C 28.046875 17.007812 28.855469 17.210938 29.128906 17.945312 C 29.398438 18.679688 28.585938 18.949219 29.128906 19.6875 C 29.667969 20.421875 30.074219 20.621094 29.804688 22.296875 C 29.53125 23.96875 28.25 26.175781 28.855469 26.914062 C 29.464844 27.648438 30.210938 27.648438 30.410156 28.71875 C 30.613281 29.789062 31.359375 30.503906 31.359375 31.652344 C 31.359375 32.800781 32.238281 33.671875 32.777344 33.003906 C 33.320312 32.335938 33.996094 32.335938 34.402344 34.007812 C 34.804688 35.679688 34.535156 37.820312 35.484375 37.351562 C 36.429688 36.882812 37.039062 35.746094 36.292969 33.804688 C 35.550781 31.867188 33.792969 27.675781 33.722656 25.921875 C 33.65625 24.167969 32.777344 18.882812 31.222656 17.679688 C 29.667969 16.472656 28.945312 14.199219 26.015625 15.203125 Z M 26.015625 15.203125 " clip-rule="nonzero"/></clipPath><clipPath id="dd70348df7"><path d="M 13 4.5 L 36 4.5 L 36 17 L 13 17 Z M 13 4.5 " clip-rule="nonzero"/></clipPath><clipPath id="678ad85c04"><path d="M 19.808594 8.457031 L 29.179688 8.457031 L 29.179688 13.820312 L 19.808594 13.820312 Z M 19.808594 8.457031 " clip-rule="nonzero"/></clipPath><clipPath id="c63764c965"><path d="M 28.828125 13.96875 C 27.972656 13.230469 27.828125 11.886719 27.765625 10.871094 C 27.6875 9.636719 27.734375 8.296875 28.195312 7.128906 C 28.238281 7.019531 28.289062 6.90625 28.386719 6.832031 C 28.847656 6.480469 29.738281 7.230469 30.03125 7.515625 C 30.148438 7.628906 30.484375 8.214844 30.675781 8.207031 C 31.546875 8.167969 30.609375 6.050781 30.375 5.773438 C 29.601562 4.855469 28.261719 4.585938 27.074219 4.546875 C 25.800781 4.5 24.523438 5.820312 23.769531 6.617188 C 22.53125 7.925781 21.769531 9.34375 21.101562 10.964844 C 21.023438 11.15625 19.890625 13.699219 19.789062 13.65625 C 18.9375 13.816406 18.082031 14.03125 17.183594 14.28125 C 16.527344 14.460938 15.875 14.667969 15.257812 14.945312 C 14.699219 15.199219 14.273438 15.628906 13.75 15.894531 C 13.75 15.894531 16.023438 14.746094 19.570312 15.222656 C 22.34375 15.597656 25.070312 16.28125 27.878906 16.417969 C 30.527344 16.542969 32.9375 15.660156 35.558594 15.644531 C 33.214844 14.53125 31.667969 14.574219 28.828125 13.96875 Z M 28.828125 13.96875 " clip-rule="nonzero"/></clipPath><clipPath id="8efad8130d"><path d="M 18.535156 8.582031 L 30.707031 8.582031 L 30.707031 13.820312 L 18.535156 13.820312 Z M 18.535156 8.582031 " clip-rule="nonzero"/></clipPath><clipPath id="aa2ea2f434"><path d="M 28.828125 13.96875 C 27.972656 13.230469 27.828125 11.886719 27.765625 10.871094 C 27.6875 9.636719 27.734375 8.296875 28.195312 7.128906 C 28.238281 7.019531 28.289062 6.90625 28.386719 6.832031 C 28.847656 6.480469 29.738281 7.230469 30.03125 7.515625 C 30.148438 7.628906 30.484375 8.214844 30.675781 8.207031 C 31.546875 8.167969 30.609375 6.050781 30.375 5.773438 C 29.601562 4.855469 28.261719 4.585938 27.074219 4.546875 C 25.800781 4.5 24.523438 5.820312 23.769531 6.617188 C 22.53125 7.925781 21.769531 9.34375 21.101562 10.964844 C 21.023438 11.15625 19.890625 13.699219 19.789062 13.65625 C 18.9375 13.816406 18.082031 14.03125 17.183594 14.28125 C 16.527344 14.460938 15.875 14.667969 15.257812 14.945312 C 14.699219 15.199219 14.273438 15.628906 13.75 15.894531 C 13.75 15.894531 16.023438 14.746094 19.570312 15.222656 C 22.34375 15.597656 25.070312 16.28125 27.878906 16.417969 C 30.527344 16.542969 32.9375 15.660156 35.558594 15.644531 C 33.214844 14.53125 31.667969 14.574219 28.828125 13.96875 Z M 28.828125 13.96875 " clip-rule="nonzero"/></clipPath></defs><path fill="#494644" d="M 13.75 15.894531 C 13.75 15.894531 12.121094 17.152344 12.773438 18.105469 C 13.425781 19.054688 16.804688 21.519531 19.566406 21.207031 C 22.328125 20.894531 24.0625 19.785156 27.292969 20.3125 C 30.523438 20.84375 33.636719 20.535156 34.769531 19.710938 C 35.90625 18.882812 37.578125 17.46875 35.558594 15.644531 C 29.96875 15.742188 23.546875 15.117188 23.546875 15.117188 L 17.734375 14.804688 C 17.734375 14.804688 14.25 15.464844 13.75 15.894531 " fill-opacity="1" fill-rule="nonzero"/><path fill="#323c4c" d="M 10.535156 22.695312 C 10.535156 22.695312 9.925781 22.257812 8.820312 23.191406 C 7.71875 24.125 6.589844 25.777344 7.152344 25.976562 C 7.71875 26.175781 8.769531 25.746094 8.769531 25.746094 L 10.355469 24.167969 L 10.535156 22.695312 " fill-opacity="1" fill-rule="nonzero"/><g clip-path="url(#2489afb5a8)"><path fill="#e0b993" d="M 9.46875 24.292969 C 9.46875 24.292969 8.945312 23.835938 8.945312 23.535156 C 9.148438 23.433594 10.09375 22.375 9.925781 21.882812 C 9.757812 21.390625 8.472656 21.390625 8.472656 21.390625 C 8.472656 21.390625 7.832031 20.253906 7.832031 20.152344 C 7.832031 20.054688 8.335938 18.75 7.695312 18.28125 C 7.050781 17.8125 6.917969 18.503906 6.917969 18.726562 C 6.917969 18.949219 6.679688 19.71875 6.578125 19.617188 C 6.476562 19.519531 6.003906 18.222656 5.429688 18.636719 C 4.855469 19.050781 5.429688 19.988281 5.429688 19.988281 C 5.363281 20.1875 5.429688 20.515625 5.429688 20.515625 C 5.429688 20.515625 4.542969 20.210938 4.378906 20.449219 C 4.214844 20.6875 4.789062 21.453125 5.261719 21.621094 C 5.292969 22.128906 5.363281 22.296875 5.363281 22.296875 C 5.363281 22.296875 3.839844 21.960938 3.941406 22.53125 C 4.042969 23.097656 5.226562 23.632812 5.53125 23.5 C 5.902344 23.902344 6.207031 24.695312 6.75 24.550781 C 7.289062 24.402344 7.929688 24.394531 7.964844 24.550781 C 8 24.703125 8.574219 25.898438 8.574219 25.898438 L 9.6875 25.039062 L 9.46875 24.292969 " fill-opacity="1" fill-rule="nonzero"/></g><g clip-path="url(#6b6bf6bedf)"><g clip-path="url(#d496016a60)"><path fill="#d0a782" d="M 5.746094 21.550781 C 5.847656 21.15625 6.535156 20.640625 6.941406 20.578125 C 7.800781 20.441406 8.125 21.4375 8.28125 21.78125 C 8.449219 22.15625 8.640625 22.609375 8.597656 23 C 8.542969 23.496094 8.992188 23.628906 9.476562 23.8125 C 9.929688 23.984375 11.046875 23.054688 10.824219 21.769531 C 10.785156 21.546875 10.730469 21.324219 10.625 21.121094 C 10.449219 20.785156 10.152344 20.527344 9.851562 20.292969 C 9.707031 20.179688 9.5625 20.070312 9.441406 19.933594 C 9.324219 19.804688 9.238281 19.65625 9.140625 19.511719 C 8.839844 19.050781 8.476562 18.625 8.066406 18.253906 C 7.980469 18.175781 7.890625 18.097656 7.78125 18.058594 C 7.683594 18.019531 7.570312 18.019531 7.460938 18.015625 C 7.191406 18.011719 6.921875 18.007812 6.652344 18.011719 C 6.371094 18.011719 6.089844 18.015625 5.816406 18.058594 C 5.488281 18.109375 5.160156 18.222656 4.925781 18.453125 C 4.632812 18.742188 4.539062 19.175781 4.527344 19.585938 C 4.515625 19.996094 4.574219 20.410156 4.53125 20.816406 C 4.484375 21.21875 4.34375 21.625 4.460938 22.011719 C 4.582031 22.40625 5.679688 24.292969 6.03125 24.46875 C 6.273438 24.59375 5.480469 22.558594 5.746094 21.550781 " fill-opacity="1" fill-rule="nonzero"/></g></g><g clip-path="url(#f8776d5a9b)"><g clip-path="url(#7c65bae094)"><path fill="#e8c9ac" d="M 6.816406 18.28125 C 6.816406 18.28125 6.847656 18.75 6.941406 19.082031 C 7.035156 19.417969 6.832031 20.355469 7.203125 20.488281 C 7.578125 20.621094 7.878906 20.136719 7.980469 19.96875 C 8.082031 19.800781 8.253906 18.230469 8.21875 18.121094 C 8.183594 18.011719 8.015625 17.476562 7.832031 17.527344 C 7.644531 17.578125 6.941406 17.914062 6.941406 17.914062 L 6.816406 18.28125 " fill-opacity="1" fill-rule="nonzero"/></g></g><g clip-path="url(#759e77ce3c)"><g clip-path="url(#0b5139e4b8)"><path fill="#e8c9ac" d="M 5.429688 19.988281 C 5.429688 19.988281 5.734375 20.554688 5.972656 20.707031 C 6.207031 20.855469 6.597656 21.140625 6.664062 20.875 C 6.730469 20.605469 6.96875 20.421875 6.816406 20.070312 C 6.664062 19.71875 6.578125 19.617188 6.578125 19.617188 L 6.148438 18.332031 L 4.738281 17.878906 C 4.738281 17.878906 4.753906 18.566406 4.738281 18.632812 C 4.71875 18.699219 4.972656 19.617188 4.972656 19.617188 L 5.429688 19.988281 " fill-opacity="1" fill-rule="nonzero"/></g></g><g clip-path="url(#fdd0c90e60)"><g clip-path="url(#7c1f6f3828)"><path fill="#e8c9ac" d="M 5.429688 20.515625 C 5.429688 20.515625 6.023438 21.097656 6.054688 21.234375 C 6.089844 21.375 6.425781 21.675781 6.242188 21.859375 C 6.054688 22.042969 5.902344 22.058594 5.800781 22.011719 C 5.699219 21.960938 5.363281 21.667969 5.261719 21.621094 C 5.160156 21.578125 4.28125 21.414062 4.261719 21.234375 C 4.246094 21.058594 4.078125 20.238281 4.078125 20.238281 C 4.078125 20.238281 4.113281 19.988281 4.28125 19.953125 C 4.449219 19.917969 4.3125 19.917969 4.449219 19.917969 C 4.585938 19.917969 5.277344 20.289062 5.277344 20.289062 L 5.429688 20.515625 " fill-opacity="1" fill-rule="nonzero"/></g></g><g clip-path="url(#7b8b98cc76)"><g clip-path="url(#d1c1c7b08d)"><path fill="#e8c9ac" d="M 5.363281 22.296875 C 5.363281 22.296875 5.769531 22.679688 5.972656 22.648438 C 6.171875 22.613281 6.511719 22.765625 6.496094 22.980469 C 6.476562 23.199219 6.496094 23.214844 6.375 23.28125 C 6.257812 23.351562 5.53125 23.5 5.53125 23.5 C 5.53125 23.5 4.992188 23.933594 4.921875 23.867188 C 4.855469 23.800781 3.773438 23.164062 3.773438 23.164062 C 3.773438 23.164062 3.585938 22.3125 3.585938 22.296875 C 3.585938 22.277344 4.078125 21.878906 4.078125 21.878906 L 4.636719 21.878906 L 5.363281 22.296875 " fill-opacity="1" fill-rule="nonzero"/></g></g><g clip-path="url(#addc43e167)"><g clip-path="url(#403194ea3b)"><path fill="#e8c9ac" d="M 8.472656 21.390625 C 8.472656 21.390625 7.683594 21.527344 7.519531 21.710938 C 7.355469 21.894531 7.1875 22.277344 7.324219 22.394531 C 7.457031 22.511719 7.578125 22.546875 7.695312 22.546875 C 7.8125 22.546875 8.429688 22.078125 8.609375 22.128906 C 9.816406 22.460938 8.960938 23.433594 8.945312 23.535156 C 8.933594 23.632812 9.78125 22.613281 9.945312 22.414062 C 10.113281 22.210938 10.316406 21.621094 10.316406 21.621094 L 9.65625 20.875 L 9.128906 20.976562 L 8.472656 21.125 L 8.472656 21.390625 " fill-opacity="1" fill-rule="nonzero"/></g></g><path fill="#896751" d="M 6.242188 20.335938 C 6.203125 20.425781 6.160156 20.527344 6.191406 20.625 C 6.203125 20.660156 6.230469 20.695312 6.253906 20.730469 C 6.304688 20.800781 6.355469 20.875 6.429688 20.925781 C 6.457031 20.945312 6.488281 20.964844 6.515625 20.984375 C 6.59375 21.046875 6.632812 21.144531 6.695312 21.21875 C 6.757812 21.292969 6.875 21.347656 6.953125 21.289062 C 7.015625 21.246094 7.019531 21.160156 7.023438 21.085938 C 7.027344 20.96875 7.027344 20.847656 6.964844 20.75 C 6.917969 20.671875 6.832031 20.617188 6.785156 20.539062 C 6.761719 20.503906 6.75 20.464844 6.726562 20.433594 C 6.625 20.269531 6.34375 20.113281 6.242188 20.335938 " fill-opacity="1" fill-rule="nonzero"/><path fill="#896751" d="M 7.234375 19.953125 C 7.171875 20.003906 7.183594 20.148438 7.175781 20.210938 C 7.164062 20.273438 7.179688 20.335938 7.195312 20.394531 C 7.226562 20.503906 7.253906 20.613281 7.28125 20.722656 C 7.296875 20.777344 7.308594 20.832031 7.34375 20.878906 C 7.375 20.925781 7.425781 20.964844 7.484375 20.960938 C 7.539062 20.957031 7.585938 20.914062 7.613281 20.867188 C 7.636719 20.820312 7.648438 20.765625 7.65625 20.710938 C 7.664062 20.648438 7.675781 20.589844 7.683594 20.527344 C 7.695312 20.457031 7.707031 20.386719 7.703125 20.3125 C 7.683594 20.121094 7.527344 19.992188 7.347656 19.945312 C 7.320312 19.9375 7.289062 19.933594 7.257812 19.941406 C 7.25 19.945312 7.242188 19.949219 7.234375 19.953125 " fill-opacity="1" fill-rule="nonzero"/><path fill="#896751" d="M 5.746094 21.550781 C 5.691406 21.71875 5.753906 21.914062 5.894531 22.015625 C 5.988281 22.085938 6.113281 22.113281 6.195312 22.195312 C 6.226562 22.226562 6.25 22.261719 6.285156 22.289062 C 6.320312 22.316406 6.371094 22.332031 6.410156 22.3125 C 6.433594 22.300781 6.453125 22.273438 6.464844 22.25 C 6.5 22.167969 6.503906 22.066406 6.46875 21.984375 C 6.441406 21.921875 6.394531 21.871094 6.351562 21.820312 C 6.226562 21.683594 5.867188 21.179688 5.746094 21.550781 " fill-opacity="1" fill-rule="nonzero"/><path fill="#896751" d="M 6.523438 22.8125 C 6.625 22.8125 6.972656 22.847656 7.019531 22.960938 C 7.050781 23.039062 6.945312 23.128906 6.882812 23.152344 C 6.808594 23.183594 6.722656 23.183594 6.640625 23.179688 C 6.472656 23.179688 6.082031 23.25 6.039062 23.023438 C 5.988281 22.757812 6.355469 22.8125 6.515625 22.8125 C 6.515625 22.8125 6.519531 22.8125 6.523438 22.8125 " fill-opacity="1" fill-rule="nonzero"/><path fill="#896751" d="M 6.949219 22.558594 C 6.828125 22.378906 6.886719 22.121094 7.027344 21.980469 C 7.078125 21.933594 7.144531 21.898438 7.214844 21.867188 C 7.359375 21.804688 7.542969 21.742188 7.683594 21.8125 C 8.175781 22.0625 7.128906 22.480469 6.949219 22.558594 " fill-opacity="1" fill-rule="nonzero"/><g clip-path="url(#cf0204e979)"><path fill="#896751" d="M 40.207031 21.039062 C 40.308594 20.980469 40.425781 20.972656 40.539062 20.972656 C 40.636719 20.976562 40.910156 20.9375 40.988281 21 C 41.234375 21.207031 40.703125 21.378906 40.609375 21.382812 C 40.460938 21.394531 40.3125 21.402344 40.164062 21.414062 C 39.9375 21.425781 40.097656 21.105469 40.207031 21.039062 " fill-opacity="1" fill-rule="nonzero"/></g><g clip-path="url(#cb34556825)"><path fill="#896751" d="M 40.28125 22.613281 C 40.3125 22.636719 40.351562 22.644531 40.390625 22.648438 C 40.539062 22.675781 40.691406 22.699219 40.84375 22.683594 C 40.992188 22.664062 41.277344 22.5625 41.296875 22.378906 C 41.320312 22.15625 40.625 22.199219 40.492188 22.222656 C 40.34375 22.242188 40.03125 22.414062 40.28125 22.613281 " fill-opacity="1" fill-rule="nonzero"/></g><g clip-path="url(#507cfb0f3c)"><path fill="#896751" d="M 41.269531 25.78125 C 41.277344 25.832031 41.28125 25.886719 41.261719 25.933594 C 41.222656 26.011719 41.109375 26.035156 41.027344 26 C 40.941406 25.964844 40.886719 25.886719 40.839844 25.8125 C 40.742188 25.648438 40.492188 25.148438 40.886719 25.207031 C 41.152344 25.246094 41.238281 25.5625 41.269531 25.78125 " fill-opacity="1" fill-rule="nonzero"/></g><g clip-path="url(#2cf9f46299)"><path fill="#e0b993" d="M 34.984375 26.257812 C 34.984375 26.257812 35.285156 26.164062 35.320312 25.796875 C 35.359375 25.433594 35.191406 25.066406 35.628906 24.613281 C 36.066406 24.160156 36.507812 23.378906 36.980469 23.535156 C 37.230469 23.15625 37.628906 22.882812 37.800781 22.660156 C 37.972656 22.441406 38.492188 21.367188 38.863281 21.203125 C 39.234375 21.039062 39.964844 20.800781 40.199219 21.042969 C 40.4375 21.289062 40.613281 21.546875 40.382812 21.617188 C 40.152344 21.683594 39.285156 21.800781 39.214844 21.9375 C 39.144531 22.078125 38.925781 22.425781 38.925781 22.425781 C 39.1875 22.378906 39.757812 22.097656 40.109375 22.109375 C 40.460938 22.121094 40.558594 22.09375 40.640625 22.378906 C 40.722656 22.660156 40.691406 22.972656 40.398438 22.921875 C 40.105469 22.875 39.632812 22.773438 39.484375 22.921875 C 39.339844 23.074219 38.894531 23.230469 38.898438 23.378906 C 39.117188 23.421875 39.847656 23.015625 40.296875 23.191406 C 40.742188 23.363281 41.136719 23.328125 41.136719 23.699219 C 41.136719 23.855469 41.066406 23.988281 40.984375 24.085938 C 40.890625 24.203125 40.726562 24.234375 40.59375 24.164062 C 40.445312 24.085938 40.25 24.011719 40.25 24.011719 L 40.085938 24.492188 C 40.285156 24.570312 40.90625 24.523438 41.027344 24.792969 C 41.144531 25.0625 41.339844 25.339844 41.117188 25.5 C 40.894531 25.660156 40.425781 25.539062 40.328125 25.382812 C 40.234375 25.226562 39.824219 25.074219 39.777344 25.144531 C 39.734375 25.214844 39.511719 25.394531 39.289062 25.371094 C 39.070312 25.347656 38.667969 25.085938 38.257812 25.632812 C 37.847656 26.183594 38.042969 26.085938 37.386719 26.5 C 36.730469 26.914062 36.328125 27.039062 36.113281 26.964844 C 35.902344 27.199219 35.644531 27.339844 35.515625 27.683594 C 35.386719 28.03125 34.835938 26.496094 34.976562 26.339844 " fill-opacity="1" fill-rule="nonzero"/></g><g clip-path="url(#066d5a4516)"><g clip-path="url(#9d3a209bbd)"><path fill="#d0a782" d="M 39.261719 23.734375 C 39.285156 23.785156 39.300781 23.824219 39.304688 23.84375 C 39.367188 24.109375 39.265625 24.363281 39.0625 24.550781 C 38.164062 25.386719 37.292969 24.367188 36.980469 23.535156 C 36.953125 23.464844 35.148438 24.964844 35.097656 25.019531 C 35.023438 25.101562 34.652344 27.832031 34.644531 28.050781 C 34.636719 28.175781 36.019531 27.546875 36.109375 27.636719 C 36.175781 27.699219 36.269531 27.71875 36.363281 27.738281 C 36.714844 27.800781 37.085938 27.855469 37.433594 27.761719 C 37.855469 27.652344 38.195312 27.34375 38.601562 27.183594 C 39.171875 26.960938 39.8125 27.046875 40.417969 26.953125 C 40.734375 26.90625 41.066406 26.792969 41.246094 26.535156 C 41.386719 26.335938 41.417969 26.082031 41.445312 25.839844 C 41.5 25.34375 41.554688 24.84375 41.609375 24.347656 C 41.625 24.210938 41.640625 24.074219 41.609375 23.941406 C 41.574219 23.792969 41.488281 23.664062 41.390625 23.550781 C 41.082031 23.203125 40.617188 22.996094 40.148438 22.992188 C 39.765625 22.992188 39.269531 23.132812 39.023438 23.4375 C 39.082031 23.367188 39.199219 23.589844 39.261719 23.734375 " fill-opacity="1" fill-rule="nonzero"/></g></g><g clip-path="url(#656f19d55b)"><g clip-path="url(#4b75ae7655)"><path fill="#e8c9ac" d="M 37.390625 23.929688 C 37.382812 24.007812 37.339844 24.074219 37.300781 24.136719 C 37.128906 24.402344 36.957031 24.675781 36.707031 24.871094 C 36.570312 24.984375 36.410156 25.066406 36.238281 25.121094 C 36.105469 25.164062 35.945312 25.203125 35.882812 25.328125 C 35.820312 25.460938 35.898438 25.632812 35.820312 25.753906 C 35.789062 25.800781 35.738281 25.832031 35.6875 25.859375 C 35.554688 25.941406 35.40625 26.019531 35.257812 25.976562 C 35.148438 25.949219 35.070312 25.855469 35.015625 25.757812 C 34.875 25.503906 34.863281 25.195312 34.9375 24.917969 C 35.011719 24.640625 35.167969 24.390625 35.347656 24.164062 C 35.441406 24.046875 35.539062 23.933594 35.664062 23.851562 C 35.769531 23.78125 35.886719 23.730469 36.003906 23.683594 C 36.199219 23.601562 36.394531 23.523438 36.59375 23.441406 C 36.625 23.429688 36.65625 23.414062 36.691406 23.414062 C 36.914062 23.417969 37.414062 23.679688 37.390625 23.929688 " fill-opacity="1" fill-rule="nonzero"/></g></g><g clip-path="url(#eae0b56da1)"><g clip-path="url(#6a5138b7b1)"><path fill="#e8c9ac" d="M 39.875 23.402344 C 39.777344 23.390625 39.699219 23.390625 39.671875 23.394531 C 39.453125 23.417969 39.257812 23.496094 39.03125 23.46875 C 38.96875 23.460938 38.886719 23.425781 38.898438 23.359375 C 39.011719 23.332031 39.121094 23.300781 39.234375 23.273438 C 39.285156 23.257812 39.335938 23.246094 39.375 23.214844 C 39.40625 23.1875 39.425781 23.15625 39.457031 23.128906 C 39.515625 23.082031 39.597656 23.078125 39.671875 23.078125 C 39.953125 23.074219 40.238281 23.089844 40.519531 23.109375 C 40.785156 23.128906 41.066406 23.132812 41.316406 23.234375 C 41.335938 23.242188 41.355469 23.253906 41.371094 23.273438 C 41.382812 23.292969 41.382812 23.316406 41.382812 23.339844 C 41.371094 23.589844 41.332031 23.839844 41.261719 24.082031 C 41.242188 24.152344 41.21875 24.222656 41.171875 24.28125 C 41.058594 24.417969 40.847656 24.421875 40.667969 24.410156 C 40.628906 24.40625 40.28125 24.058594 40.261719 24.023438 C 40.175781 23.878906 40.328125 23.84375 40.410156 23.757812 C 40.628906 23.539062 40.167969 23.4375 39.875 23.402344 " fill-opacity="1" fill-rule="nonzero"/></g></g><path fill="#896751" d="M 36.875 24.148438 C 37.011719 24.179688 37.15625 24.171875 37.289062 24.125 C 37.445312 24.066406 38.097656 23.8125 37.703125 23.628906 C 37.65625 23.609375 37.605469 23.605469 37.554688 23.597656 C 37.40625 23.585938 37.257812 23.570312 37.105469 23.554688 C 37.082031 23.550781 37.058594 23.550781 37.035156 23.554688 C 36.816406 23.605469 36.527344 24.058594 36.875 24.148438 " fill-opacity="1" fill-rule="nonzero"/><g clip-path="url(#9e4181e530)"><path fill="#896751" d="M 40.785156 23.761719 C 40.699219 23.808594 40.632812 23.878906 40.574219 23.949219 C 40.476562 24.058594 40.375 24.171875 40.277344 24.285156 C 40.253906 24.3125 40.226562 24.34375 40.242188 24.378906 C 40.28125 24.460938 40.410156 24.449219 40.492188 24.433594 C 40.835938 24.351562 41.03125 24.164062 41.046875 23.855469 C 41.054688 23.695312 40.929688 23.691406 40.785156 23.761719 " fill-opacity="1" fill-rule="nonzero"/></g><g clip-path="url(#66fdfd99a0)"><path fill="#49576c" d="M 7.152344 25.976562 C 7.152344 25.976562 8.234375 29.65625 7.964844 30.996094 C 7.695312 32.335938 4.246094 36.28125 4.382812 37.554688 C 4.515625 38.824219 5.097656 39.496094 6.195312 39.496094 C 7.289062 39.496094 7.558594 38.824219 8.371094 40.5 C 9.183594 42.171875 7.832031 43.175781 9.859375 43.84375 C 11.886719 44.515625 12.5625 44.984375 12.699219 45.316406 C 12.832031 45.652344 14.523438 46.1875 14.589844 45.917969 C 14.660156 45.652344 15.808594 45.585938 16.144531 46.988281 C 16.484375 48.394531 17.226562 47.191406 17.566406 46.988281 C 17.902344 46.789062 19.660156 48.328125 19.660156 48.664062 C 19.660156 48.996094 20.203125 48.929688 21.21875 48.664062 C 22.230469 48.394531 22.296875 47.84375 24.125 48.890625 C 25.949219 49.933594 26.691406 48.664062 27.167969 48.597656 C 27.640625 48.53125 28.585938 49.066406 29.128906 50.335938 C 29.667969 51.609375 29.667969 53.347656 30.546875 52.476562 C 31.425781 51.609375 31.019531 49.265625 33.25 49.800781 C 35.484375 50.335938 36.496094 50.535156 36.496094 50.535156 C 36.496094 50.535156 34.804688 37.554688 34.804688 34.339844 C 34.804688 31.128906 36.496094 28.183594 36.496094 28.183594 C 36.496094 28.183594 35.210938 26.710938 34.941406 25.375 C 35.007812 25.238281 33.386719 24.90625 32.371094 26.242188 C 31.359375 27.582031 29.195312 23.300781 29.195312 23.300781 C 29.195312 23.300781 23.921875 23.433594 23.652344 23.300781 C 23.378906 23.164062 18.511719 22.296875 18.511719 22.296875 C 18.511719 22.296875 15.199219 22.496094 14.660156 23.164062 C 14.117188 23.835938 11.617188 24.304688 11.414062 24.167969 C 11.210938 24.035156 10.535156 22.695312 10.535156 22.695312 C 10.535156 22.695312 8.574219 26.175781 7.152344 25.976562 " fill-opacity="1" fill-rule="nonzero"/></g><g clip-path="url(#090ed36fd9)"><g clip-path="url(#46d9dab74e)"><path fill="#3e4859" d="M 28.890625 34.707031 C 28.253906 36.128906 24.882812 40.796875 24.15625 41.332031 C 21.539062 43.257812 17.488281 45.085938 14.234375 43.851562 C 12.65625 43.253906 10.152344 44.085938 8.863281 43.09375 C 8.191406 42.574219 9.402344 47.421875 12.761719 48.941406 C 14.234375 49.609375 15.703125 50.273438 17.175781 50.9375 C 18.589844 51.578125 20.007812 52.21875 21.492188 52.679688 C 25.128906 53.8125 29.015625 53.816406 32.828125 53.722656 C 33.90625 53.695312 35.019531 53.65625 36.007812 53.222656 C 37.710938 52.476562 38.71875 50.714844 39.332031 48.972656 C 40.105469 46.773438 40.4375 44.445312 40.558594 42.117188 C 40.671875 39.980469 40.605469 37.816406 40.132812 35.730469 C 39.5625 33.21875 38.414062 30.871094 37.714844 28.394531 C 37.207031 26.589844 36.9375 24.730469 36.691406 22.871094 C 36.664062 22.671875 36.632812 22.457031 36.488281 22.3125 C 36.316406 22.136719 36.039062 22.125 35.792969 22.132812 C 34.46875 22.175781 32.875 22.515625 31.777344 23.296875 C 30.820312 23.972656 30.921875 24.667969 30.886719 25.765625 C 30.796875 28.84375 30.144531 31.882812 28.890625 34.707031 " fill-opacity="1" fill-rule="nonzero"/></g></g><g clip-path="url(#807a2d0706)"><path fill="#a3a19e" d="M 14.710938 32.800781 C 14.671875 32.800781 14.636719 32.773438 14.628906 32.734375 C 14.472656 31.96875 14.347656 31.097656 14.824219 30.46875 C 14.859375 30.417969 14.898438 30.375 14.9375 30.332031 C 15.007812 30.25 15.074219 30.171875 15.117188 30.085938 C 15.210938 29.914062 15.214844 29.707031 15.210938 29.546875 C 15.191406 28.957031 14.996094 28.363281 14.652344 27.882812 C 14.625 27.84375 14.636719 27.792969 14.671875 27.765625 C 14.710938 27.742188 14.761719 27.75 14.789062 27.785156 C 15.148438 28.296875 15.359375 28.917969 15.378906 29.539062 C 15.382812 29.722656 15.375 29.953125 15.265625 30.160156 C 15.210938 30.265625 15.136719 30.351562 15.0625 30.4375 C 15.027344 30.480469 14.992188 30.523438 14.957031 30.566406 C 14.523438 31.140625 14.636719 31.9375 14.792969 32.703125 C 14.800781 32.746094 14.773438 32.792969 14.726562 32.800781 C 14.722656 32.800781 14.714844 32.800781 14.710938 32.800781 " fill-opacity="1" fill-rule="nonzero"/></g><g clip-path="url(#4442e6f036)"><path fill="#a3a19e" d="M 15.449219 34.144531 C 15.410156 34.144531 15.375 34.117188 15.367188 34.078125 C 15.175781 33.179688 15.039062 32.375 15.375 31.640625 C 15.402344 31.578125 15.433594 31.515625 15.464844 31.457031 C 15.511719 31.363281 15.558594 31.269531 15.59375 31.175781 C 15.691406 30.902344 15.679688 30.585938 15.667969 30.28125 C 15.652344 29.867188 15.632812 29.433594 15.894531 29.089844 C 15.921875 29.054688 15.972656 29.046875 16.011719 29.074219 C 16.046875 29.101562 16.054688 29.152344 16.027344 29.191406 C 15.804688 29.488281 15.816406 29.871094 15.832031 30.277344 C 15.847656 30.597656 15.859375 30.925781 15.75 31.230469 C 15.714844 31.335938 15.660156 31.4375 15.613281 31.535156 C 15.582031 31.589844 15.550781 31.648438 15.527344 31.707031 C 15.214844 32.394531 15.34375 33.171875 15.53125 34.042969 C 15.539062 34.089844 15.511719 34.132812 15.464844 34.140625 C 15.460938 34.144531 15.453125 34.144531 15.449219 34.144531 " fill-opacity="1" fill-rule="nonzero"/></g><g clip-path="url(#5c77356292)"><path fill="#a3a19e" d="M 16.445312 35.425781 C 16.402344 35.425781 16.363281 35.390625 16.363281 35.347656 L 16.285156 34.023438 C 16.269531 33.789062 16.257812 33.542969 16.277344 33.300781 C 16.296875 33.082031 16.34375 32.863281 16.386719 32.652344 C 16.441406 32.417969 16.492188 32.171875 16.503906 31.929688 C 16.511719 31.742188 16.496094 31.542969 16.480469 31.351562 C 16.441406 30.863281 16.402344 30.359375 16.714844 29.976562 C 16.746094 29.941406 16.796875 29.933594 16.832031 29.960938 C 16.871094 29.992188 16.875 30.042969 16.847656 30.078125 C 16.574219 30.414062 16.609375 30.863281 16.644531 31.339844 C 16.660156 31.535156 16.675781 31.742188 16.667969 31.9375 C 16.660156 32.191406 16.605469 32.445312 16.550781 32.6875 C 16.507812 32.894531 16.460938 33.105469 16.445312 33.316406 C 16.425781 33.546875 16.4375 33.785156 16.449219 34.011719 L 16.527344 35.339844 C 16.53125 35.382812 16.496094 35.421875 16.449219 35.425781 C 16.449219 35.425781 16.445312 35.425781 16.445312 35.425781 " fill-opacity="1" fill-rule="nonzero"/></g><g clip-path="url(#7415e6c815)"><path fill="#a3a19e" d="M 16.273438 31.4375 C 16.582031 32.085938 16.859375 32.753906 17.226562 33.367188 C 18.082031 34.792969 19.394531 35.894531 20.339844 37.265625 C 21.722656 39.265625 22.25 41.714844 23.230469 43.941406 C 23.378906 44.277344 23.609375 44.660156 23.980469 44.671875 C 24.535156 44.691406 24.703125 43.957031 24.847656 43.425781 C 25.117188 42.425781 25.902344 41.660156 26.578125 40.863281 C 27.3125 40 27.9375 39.054688 28.5625 38.113281 C 29.132812 37.25 29.703125 36.386719 30.273438 35.527344 C 30.472656 35.222656 30.683594 34.871094 30.597656 34.519531 C 30.5625 34.375 30.480469 34.246094 30.46875 34.101562 C 30.449219 33.875 30.597656 33.675781 30.726562 33.488281 C 32.242188 31.339844 32.113281 28.5 31.925781 25.886719 C 31.898438 25.546875 31.867188 25.179688 31.648438 24.910156 C 31.492188 24.71875 31.261719 24.601562 31.035156 24.492188 C 30.011719 23.988281 28.960938 23.480469 27.824219 23.339844 C 27.199219 23.265625 26.566406 23.304688 25.9375 23.265625 C 23.8125 23.140625 21.847656 22.15625 19.773438 21.695312 C 19.550781 21.644531 19.316406 21.597656 19.089844 21.636719 C 18.792969 21.6875 18.535156 21.871094 18.300781 22.058594 C 16.839844 23.21875 15.636719 24.6875 14.785156 26.332031 C 14.257812 27.351562 14.125 27.671875 14.734375 28.628906 C 15.308594 29.53125 15.824219 30.46875 16.273438 31.4375 " fill-opacity="1" fill-rule="nonzero"/></g><g clip-path="url(#18649174e4)"><g clip-path="url(#7617db84de)"><path fill="#8f8c8c" d="M 20.945312 26.292969 C 21.882812 27.054688 23.242188 28.167969 24.589844 28.042969 C 25.507812 27.957031 26.796875 26.320312 27.691406 27.035156 C 28.648438 27.800781 29.554688 28.675781 29.972656 29.851562 C 30.511719 31.363281 29.601562 32.617188 29.449219 34.144531 C 29.371094 34.957031 29.398438 35.753906 28.777344 36.363281 C 28.214844 36.914062 27.777344 37.582031 27.503906 38.316406 C 27.367188 38.691406 27.269531 39.078125 27.078125 39.429688 C 26.765625 40 25.984375 40.457031 25.511719 40.941406 C 24.921875 41.546875 24.246094 42.125 23.386719 42.304688 C 22.691406 42.449219 21.917969 42.597656 21.476562 43.113281 C 20.886719 43.800781 21.183594 44.875 21.882812 45.46875 C 22.582031 46.058594 23.554688 46.28125 24.496094 46.429688 C 25.691406 46.617188 26.941406 46.722656 28.105469 46.398438 C 29.757812 45.9375 31 44.695312 32.035156 43.429688 C 33.769531 41.316406 35.21875 38.902344 35.484375 36.273438 C 35.671875 34.410156 35.257812 32.546875 34.835938 30.714844 C 34.421875 28.910156 33.996094 27.09375 33.230469 25.390625 C 32.949219 24.769531 32.625 24.164062 32.257812 23.578125 C 32.082031 23.300781 31.882812 23.015625 31.570312 22.871094 C 31.296875 22.746094 30.980469 22.746094 30.675781 22.75 C 29.273438 22.765625 27.867188 22.796875 26.460938 22.84375 C 25.980469 22.859375 25.488281 22.875 25.027344 22.738281 C 24.539062 22.59375 24.128906 22.285156 23.675781 22.054688 C 22.710938 21.570312 21.589844 21.484375 20.503906 21.511719 C 20.109375 21.519531 19.25 21.4375 18.914062 21.617188 C 18.449219 21.871094 18.542969 22.382812 18.480469 22.875 C 18.285156 24.441406 20.90625 26.261719 20.945312 26.292969 " fill-opacity="1" fill-rule="nonzero"/></g></g><g clip-path="url(#123defffa3)"><g clip-path="url(#4e2a0913c7)"><path fill="#81777f" d="M 15.75 26.941406 L 15.734375 26.777344 L 20.09375 26.378906 C 20.867188 26.304688 21.664062 26.234375 22.429688 26.039062 C 22.777344 25.949219 23.125 25.832031 23.464844 25.722656 C 23.894531 25.578125 24.335938 25.429688 24.789062 25.335938 C 25.167969 25.257812 25.554688 25.214844 25.929688 25.171875 C 26.058594 25.15625 26.1875 25.144531 26.316406 25.128906 C 27.742188 24.953125 29.148438 24.601562 30.488281 24.085938 L 30.550781 24.238281 C 29.195312 24.761719 27.777344 25.113281 26.335938 25.292969 C 26.207031 25.308594 26.078125 25.320312 25.949219 25.335938 C 25.578125 25.378906 25.191406 25.421875 24.824219 25.496094 C 24.378906 25.589844 23.941406 25.738281 23.515625 25.878906 C 23.175781 25.992188 22.824219 26.109375 22.46875 26.199219 C 21.695312 26.394531 20.886719 26.46875 20.109375 26.542969 L 15.75 26.941406 " fill-opacity="1" fill-rule="nonzero"/></g></g><g clip-path="url(#484da54518)"><g clip-path="url(#ddc69eeb67)"><path fill="#81777f" d="M 14.753906 31.445312 L 14.65625 31.316406 C 15.566406 30.636719 16.734375 30.546875 17.867188 30.457031 C 18.273438 30.425781 18.691406 30.394531 19.089844 30.335938 C 20.179688 30.171875 21.234375 29.78125 22.257812 29.402344 C 23.101562 29.085938 23.980469 28.757812 24.878906 28.5625 C 25.804688 28.359375 26.773438 28.292969 27.707031 28.222656 C 28.953125 28.136719 30.246094 28.042969 31.4375 27.628906 L 31.492188 27.785156 C 30.28125 28.207031 28.976562 28.300781 27.71875 28.390625 C 26.789062 28.457031 25.828125 28.523438 24.914062 28.722656 C 24.027344 28.917969 23.15625 29.242188 22.316406 29.554688 C 21.285156 29.9375 20.222656 30.332031 19.113281 30.496094 C 18.710938 30.558594 18.289062 30.589844 17.878906 30.621094 C 16.773438 30.707031 15.625 30.796875 14.753906 31.445312 " fill-opacity="1" fill-rule="nonzero"/></g></g><g clip-path="url(#0717536baa)"><g clip-path="url(#f6cd71288c)"><path fill="#81777f" d="M 24.683594 44.445312 L 24.519531 44.410156 C 24.863281 42.820312 24.160156 41.242188 23.480469 39.714844 C 23.324219 39.367188 23.164062 39.003906 23.019531 38.652344 C 22.917969 38.40625 22.820312 38.152344 22.730469 37.90625 C 22.53125 37.386719 22.328125 36.847656 22.066406 36.347656 C 21.785156 35.804688 21.433594 35.289062 21.089844 34.792969 C 20.910156 34.53125 20.726562 34.265625 20.554688 33.996094 C 19.722656 32.695312 19.09375 31.25 18.488281 29.855469 C 17.679688 27.992188 16.839844 26.066406 15.515625 24.496094 L 15.644531 24.390625 C 16.984375 25.980469 17.828125 27.917969 18.640625 29.789062 C 19.246094 31.179688 19.871094 32.617188 20.695312 33.90625 C 20.867188 34.175781 21.050781 34.441406 21.226562 34.699219 C 21.574219 35.203125 21.929688 35.722656 22.214844 36.273438 C 22.480469 36.78125 22.6875 37.324219 22.886719 37.847656 C 22.976562 38.09375 23.074219 38.34375 23.175781 38.589844 C 23.316406 38.941406 23.476562 39.300781 23.632812 39.648438 C 24.324219 41.199219 25.039062 42.800781 24.683594 44.445312 " fill-opacity="1" fill-rule="nonzero"/></g></g><g clip-path="url(#fef4a4b740)"><g clip-path="url(#c37e6fc487)"><path fill="#81777f" d="M 27.167969 42.898438 L 27.003906 42.894531 C 27.039062 41.386719 26.171875 39.964844 25.476562 38.820312 L 21.910156 32.949219 C 21.601562 32.4375 21.28125 31.910156 21.0625 31.339844 C 20.773438 30.578125 20.675781 29.757812 20.582031 28.964844 C 20.519531 28.460938 20.457031 27.9375 20.347656 27.433594 C 19.933594 25.578125 18.8125 23.894531 17.820312 22.414062 L 17.960938 22.320312 C 18.957031 23.816406 20.089844 25.511719 20.507812 27.398438 C 20.621094 27.910156 20.6875 28.4375 20.746094 28.945312 C 20.839844 29.730469 20.9375 30.539062 21.21875 31.28125 C 21.429688 31.839844 21.746094 32.359375 22.054688 32.863281 L 25.621094 38.734375 C 26.328125 39.898438 27.207031 41.34375 27.167969 42.898438 " fill-opacity="1" fill-rule="nonzero"/></g></g><g clip-path="url(#ff3413e322)"><g clip-path="url(#778d468411)"><path fill="#81777f" d="M 28.085938 40.097656 L 27.921875 40.070312 C 28.0625 39.136719 27.53125 38.335938 26.964844 37.488281 C 26.636719 36.992188 26.296875 36.480469 26.09375 35.929688 C 25.992188 35.65625 25.925781 35.371094 25.863281 35.09375 C 25.78125 34.75 25.699219 34.394531 25.550781 34.070312 C 25.394531 33.722656 25.152344 33.40625 24.921875 33.097656 C 24.796875 32.933594 24.671875 32.765625 24.554688 32.59375 C 23.71875 31.335938 23.464844 29.796875 23.214844 28.304688 C 22.925781 26.558594 22.652344 24.90625 21.53125 23.652344 L 21.65625 23.542969 C 22.808594 24.832031 23.097656 26.585938 23.378906 28.277344 C 23.625 29.75 23.878906 31.277344 24.695312 32.5 C 24.808594 32.671875 24.933594 32.839844 25.054688 33 C 25.292969 33.3125 25.535156 33.636719 25.703125 34.003906 C 25.859375 34.339844 25.941406 34.707031 26.023438 35.058594 C 26.089844 35.328125 26.152344 35.609375 26.25 35.875 C 26.445312 36.402344 26.78125 36.910156 27.105469 37.394531 C 27.660156 38.234375 28.238281 39.097656 28.085938 40.097656 " fill-opacity="1" fill-rule="nonzero"/></g></g><g clip-path="url(#f5da896eb9)"><g clip-path="url(#2cc215f8af)"><path fill="#81777f" d="M 29.632812 37.710938 L 27.800781 33.847656 C 27.527344 33.265625 27.238281 32.664062 27.035156 32.042969 C 26.761719 31.199219 26.632812 30.3125 26.511719 29.453125 C 26.453125 29.035156 26.390625 28.605469 26.3125 28.1875 C 26.015625 26.585938 25.507812 25.492188 24.714844 24.738281 L 24.828125 24.621094 C 25.648438 25.398438 26.171875 26.523438 26.476562 28.160156 C 26.554688 28.582031 26.617188 29.011719 26.675781 29.429688 C 26.796875 30.28125 26.925781 31.164062 27.195312 31.992188 C 27.394531 32.605469 27.679688 33.203125 27.953125 33.777344 L 29.785156 37.640625 L 29.632812 37.710938 " fill-opacity="1" fill-rule="nonzero"/></g></g><g clip-path="url(#0d54ad1c4a)"><g clip-path="url(#45425bede8)"><path fill="#81777f" d="M 31.375 35.414062 L 31.210938 35.410156 C 31.257812 34.027344 30.601562 32.726562 29.972656 31.472656 C 29.867188 31.265625 29.757812 31.050781 29.65625 30.84375 C 28.632812 28.738281 27.929688 26.5 27.566406 24.1875 L 27.734375 24.164062 C 28.089844 26.457031 28.789062 28.679688 29.808594 30.769531 C 29.910156 30.980469 30.015625 31.191406 30.121094 31.398438 C 30.761719 32.671875 31.425781 33.988281 31.375 35.414062 " fill-opacity="1" fill-rule="nonzero"/></g></g><path fill="#e8c9ac" d="M 18.984375 20.488281 C 18.984375 20.488281 18.648438 23.769531 20.675781 25.039062 C 22.433594 25.976562 22.773438 27.316406 23.855469 27.316406 C 24.933594 27.316406 25.8125 26.625 26.152344 25.898438 C 26.761719 25.84375 29.128906 25.777344 29.871094 23.5 C 30.613281 21.226562 29.871094 17.410156 29.871094 17.410156 C 29.871094 17.410156 27.300781 15.601562 26.828125 15.601562 C 26.355469 15.601562 23.960938 14.597656 22.824219 15.601562 C 21.691406 16.605469 19 19.625 18.984375 20.488281 " fill-opacity="1" fill-rule="nonzero"/><g clip-path="url(#d47ad4c1b1)"><g clip-path="url(#0a3917e528)"><path fill="#e0b993" d="M 25.464844 16.46875 C 25.988281 16.746094 26.554688 16.925781 27.125 17.097656 C 27.46875 17.203125 27.820312 17.308594 28.121094 17.503906 C 28.660156 17.851562 28.980469 18.441406 29.25 19.019531 C 29.621094 19.808594 29.949219 20.710938 29.652344 21.53125 C 29.476562 22.015625 29.097656 22.410156 28.921875 22.894531 C 28.828125 23.148438 28.796875 23.425781 28.714844 23.6875 C 28.425781 24.625 27.476562 25.324219 26.484375 25.332031 C 26.289062 25.332031 26.078125 25.3125 25.910156 25.414062 C 25.792969 25.484375 25.714844 25.605469 25.621094 25.707031 C 25.269531 26.078125 24.703125 26.128906 24.1875 26.15625 C 23.457031 26.199219 22.617188 26.195312 22.136719 25.648438 C 22.035156 25.53125 21.953125 25.394531 21.828125 25.308594 C 21.601562 25.148438 21.296875 25.179688 21.039062 25.089844 C 20.679688 24.96875 19.261719 24.746094 20.210938 26.492188 C 20.496094 27.011719 20.765625 27.5625 21.222656 27.9375 C 21.601562 28.246094 22.078125 28.410156 22.546875 28.539062 C 23.601562 28.832031 24.691406 28.992188 25.789062 29.019531 C 26.207031 29.03125 26.625 29.019531 27.035156 28.9375 C 28.042969 28.734375 28.910156 28.117188 29.738281 27.511719 C 30.425781 27.007812 31.136719 26.476562 31.527344 25.722656 C 31.800781 25.199219 31.902344 24.609375 32.015625 24.027344 C 32.308594 22.523438 32.714844 21.015625 32.648438 19.480469 C 32.582031 17.949219 31.945312 16.339844 30.613281 15.554688 C 29.941406 15.15625 29.15625 15 28.382812 14.894531 C 27.273438 14.746094 26.152344 14.683594 25.035156 14.621094 C 24.839844 14.609375 24.640625 14.601562 24.453125 14.660156 C 24.160156 14.757812 23.433594 15.585938 23.734375 15.878906 C 23.800781 15.945312 24.449219 15.957031 24.605469 16.019531 C 24.90625 16.140625 25.179688 16.316406 25.464844 16.46875 " fill-opacity="1" fill-rule="nonzero"/></g></g><path fill="#b5b499" d="M 24.402344 17.347656 C 24.140625 17.007812 23.707031 16.851562 23.292969 16.730469 C 22.835938 16.601562 22.371094 16.488281 21.902344 16.398438 C 22 16.21875 22.199219 16.09375 22.402344 16.089844 C 22.507812 16.089844 22.609375 16.113281 22.710938 16.140625 C 23.167969 16.269531 23.609375 16.433594 24.082031 16.503906 C 24.476562 16.558594 24.5625 17.011719 24.402344 17.347656 " fill-opacity="1" fill-rule="nonzero"/><path fill="#b5b499" d="M 26.1875 18.363281 C 27.253906 18.160156 28.386719 18.332031 29.34375 18.839844 C 29.351562 18.679688 29.347656 18.519531 29.324219 18.359375 C 28.664062 18.128906 27.984375 17.957031 27.296875 17.84375 C 26.957031 17.789062 26.609375 17.742188 26.265625 17.722656 C 25.71875 17.695312 26.277344 18.34375 26.1875 18.363281 " fill-opacity="1" fill-rule="nonzero"/><path fill="#5a2b00" d="M 22.503906 24.304688 C 22.5 24.296875 22.492188 24.292969 22.488281 24.285156 C 22.113281 23.839844 22.195312 23.144531 22.507812 22.695312 C 23.125 21.808594 23.484375 21.792969 24.234375 21.976562 C 24.871094 22.132812 25.78125 22.050781 26.183594 22.660156 C 26.394531 22.988281 26.660156 23.398438 26.660156 23.800781 C 26.660156 24.179688 26.550781 24.578125 26.101562 24.546875 C 25.535156 24.511719 25.011719 24.238281 24.445312 24.1875 C 24.191406 24.164062 23.925781 24.128906 23.667969 24.15625 C 23.28125 24.195312 22.855469 24.6875 22.503906 24.304688 " fill-opacity="1" fill-rule="nonzero"/><g clip-path="url(#080900d524)"><g clip-path="url(#1993c2b4df)"><path fill="#4c2201" d="M 22.855469 24.382812 C 23.410156 25.046875 24.203125 25.210938 24.917969 25.0625 C 25.273438 24.988281 25.625 24.835938 25.949219 24.589844 C 26.207031 24.390625 26.386719 23.886719 26.210938 23.589844 C 26.015625 23.25 25.449219 23.15625 25.105469 23.269531 C 24.9375 23.328125 24.777344 23.425781 24.609375 23.464844 C 24.351562 23.523438 24.089844 23.4375 23.839844 23.351562 C 23.585938 23.265625 23.328125 23.179688 23.066406 23.238281 C 22.882812 23.28125 22.535156 23.714844 22.628906 23.867188 C 22.707031 23.996094 22.761719 24.273438 22.855469 24.382812 " fill-opacity="1" fill-rule="nonzero"/></g></g><path fill="#d0a782" d="M 25.421875 19.441406 C 25.421875 19.441406 24.363281 19.316406 24.136719 19.792969 C 23.914062 20.265625 24.003906 20.777344 24.003906 21.402344 C 24.003906 22.027344 23.617188 23.097656 24.363281 23.054688 C 25.109375 23.007812 25.242188 22.695312 25.265625 21.984375 C 25.289062 21.269531 25.714844 20.902344 25.785156 20.515625 C 25.851562 20.132812 25.851562 19.640625 25.421875 19.441406 " fill-opacity="1" fill-rule="nonzero"/><path fill="#a17c6a" d="M 25.398438 20.449219 C 25.398438 20.636719 25.242188 20.789062 25.054688 20.789062 C 24.863281 20.789062 24.710938 20.636719 24.710938 20.449219 C 24.710938 20.261719 24.863281 20.109375 25.054688 20.109375 C 25.242188 20.109375 25.398438 20.261719 25.398438 20.449219 " fill-opacity="1" fill-rule="nonzero"/><path fill="#ffffff" d="M 24.234375 18.546875 C 24.234375 19.445312 23.5 20.175781 22.589844 20.175781 C 21.683594 20.175781 20.945312 19.445312 20.945312 18.546875 C 20.945312 17.648438 21.683594 16.917969 22.589844 16.917969 C 23.5 16.917969 24.234375 17.648438 24.234375 18.546875 " fill-opacity="1" fill-rule="nonzero"/><g clip-path="url(#16d605f085)"><g clip-path="url(#b1c8d73e99)"><path fill="#eaeaea" d="M 23.902344 17.566406 C 23.902344 17.566406 22.753906 17.160156 21.996094 17.863281 C 21.234375 18.566406 21.539062 19.746094 21.53125 19.792969 C 21.519531 19.835938 20.4375 19.703125 20.4375 19.367188 C 20.4375 19.03125 20.285156 17.292969 20.4375 17.125 C 20.589844 16.957031 21.757812 16.339844 21.824219 16.324219 C 21.894531 16.304688 22.601562 16.171875 22.753906 16.222656 C 22.90625 16.273438 23.515625 16.472656 23.515625 16.472656 L 24.074219 17.050781 L 23.902344 17.566406 " fill-opacity="1" fill-rule="nonzero"/></g></g><path fill="#ffffff" d="M 29.441406 20.109375 C 29.441406 20.921875 28.710938 21.582031 27.808594 21.582031 C 26.90625 21.582031 26.175781 20.921875 26.175781 20.109375 C 26.175781 19.296875 26.90625 18.636719 27.808594 18.636719 C 28.710938 18.636719 29.441406 19.296875 29.441406 20.109375 " fill-opacity="1" fill-rule="nonzero"/><g clip-path="url(#5e2c99f11b)"><g clip-path="url(#318beabeca)"><path fill="#eaeaea" d="M 26.984375 18.839844 C 26.984375 18.839844 28.519531 18.78125 28.789062 19.917969 C 29.101562 21.230469 28.675781 21.582031 28.675781 21.582031 C 28.675781 21.582031 29.710938 21.367188 29.730469 21.242188 C 29.75 21.113281 30.269531 19.207031 30.105469 19.089844 C 29.9375 18.972656 28.792969 18.1875 28.792969 18.1875 C 28.792969 18.1875 27.726562 18.25 27.6875 18.28125 C 27.644531 18.3125 27.144531 18.546875 27.144531 18.546875 L 26.984375 18.839844 " fill-opacity="1" fill-rule="nonzero"/></g></g><path fill="#262020" d="M 27.324219 19.792969 C 26.851562 19.792969 26.851562 20.515625 27.324219 20.515625 C 27.796875 20.515625 27.796875 19.792969 27.324219 19.792969 " fill-opacity="1" fill-rule="nonzero"/><path fill="#262020" d="M 22.863281 18.363281 C 22.390625 18.363281 22.390625 19.089844 22.863281 19.089844 C 23.332031 19.089844 23.335938 18.363281 22.863281 18.363281 " fill-opacity="1" fill-rule="nonzero"/><path fill="#e0b993" d="M 28.945312 21.371094 C 28.640625 21.703125 28.148438 21.792969 27.695312 21.78125 C 27.554688 21.777344 27.417969 21.765625 27.28125 21.734375 C 26.683594 21.59375 26.171875 20.988281 26.207031 20.382812 C 26.460938 20.695312 26.894531 20.921875 27.292969 20.988281 C 27.683594 21.058594 28.082031 21.054688 28.46875 20.984375 C 28.578125 20.964844 29.207031 20.710938 29.269531 20.765625 C 29.394531 20.882812 29.027344 21.28125 28.945312 21.371094 " fill-opacity="1" fill-rule="nonzero"/><path fill="#e0b993" d="M 20.929688 19.378906 C 20.949219 19.46875 20.976562 19.550781 21.015625 19.632812 C 21.1875 20.023438 21.539062 20.332031 21.949219 20.460938 C 22.363281 20.585938 22.828125 20.53125 23.195312 20.308594 C 23.445312 20.15625 23.738281 19.917969 23.8125 19.636719 C 23.316406 19.765625 22.679688 19.960938 22.203125 19.707031 C 21.835938 19.503906 21.566406 19.105469 21.199219 18.902344 C 20.84375 18.703125 20.875 19.113281 20.929688 19.378906 " fill-opacity="1" fill-rule="nonzero"/><g clip-path="url(#70877811b0)"><path fill="#e0e0c5" d="M 26.015625 15.203125 C 26.015625 15.203125 21.285156 12.859375 17.972656 16.070312 C 14.660156 19.285156 15.0625 20.019531 13.171875 21.292969 C 11.277344 22.5625 10.195312 23.234375 10.0625 24.304688 C 9.925781 25.375 8.4375 29.324219 9.519531 29.65625 C 10.601562 29.992188 11.277344 30.328125 11.414062 30.792969 C 11.546875 31.261719 12.496094 31.933594 12.96875 31.53125 C 13.441406 31.128906 13.914062 29.054688 14.523438 29.324219 C 15.132812 29.589844 17.105469 30.996094 17.539062 30.660156 C 17.972656 30.328125 19.121094 29.65625 18.917969 27.515625 C 18.714844 25.375 19.1875 20.824219 19.933594 19.484375 C 20.675781 18.144531 23.855469 14.734375 25.949219 15.871094 C 28.046875 17.007812 28.855469 17.210938 29.128906 17.945312 C 29.398438 18.679688 28.585938 18.949219 29.128906 19.6875 C 29.667969 20.421875 30.074219 20.621094 29.804688 22.296875 C 29.53125 23.96875 28.25 26.175781 28.855469 26.914062 C 29.464844 27.648438 30.210938 27.648438 30.410156 28.71875 C 30.613281 29.789062 31.359375 30.503906 31.359375 31.652344 C 31.359375 32.800781 32.238281 33.671875 32.777344 33.003906 C 33.320312 32.335938 33.996094 32.335938 34.402344 34.007812 C 34.804688 35.679688 34.535156 37.820312 35.484375 37.351562 C 36.429688 36.882812 37.039062 35.746094 36.292969 33.804688 C 35.550781 31.867188 33.792969 27.675781 33.722656 25.921875 C 33.65625 24.167969 32.777344 18.882812 31.222656 17.679688 C 29.667969 16.472656 28.945312 14.199219 26.015625 15.203125 " fill-opacity="1" fill-rule="nonzero"/></g><g clip-path="url(#6c3b017b8e)"><g clip-path="url(#38755235aa)"><path fill="#cac9ac" d="M 11.515625 29.285156 C 11.476562 28.703125 11.207031 28.164062 11 27.617188 C 10.792969 27.074219 10.644531 26.460938 10.84375 25.914062 C 10.988281 25.53125 11.28125 25.226562 11.570312 24.9375 C 12.40625 24.089844 13.242188 23.242188 14.136719 22.457031 C 14.507812 22.128906 14.886719 21.8125 15.210938 21.441406 C 16.003906 20.523438 16.402344 19.339844 17.058594 18.320312 C 18.132812 16.65625 19.933594 15.464844 21.898438 15.121094 C 23.324219 14.867188 24.980469 14.976562 25.996094 13.953125 C 24.671875 13.777344 23.316406 13.808594 22 14.046875 C 21.160156 14.199219 20.339844 14.433594 19.523438 14.671875 C 18.164062 15.0625 16.808594 15.453125 15.453125 15.84375 C 15.0625 15.953125 14.664062 16.070312 14.320312 16.28125 C 13.972656 16.492188 13.695312 16.785156 13.417969 17.078125 C 12.550781 18 11.683594 18.921875 10.816406 19.84375 C 10.113281 20.589844 9.378906 21.390625 9.164062 22.390625 C 8.980469 23.269531 9.214844 24.226562 8.855469 25.046875 C 8.59375 25.660156 8.035156 26.109375 7.777344 26.722656 C 7.613281 27.105469 7.578125 27.53125 7.59375 27.945312 C 7.628906 28.773438 7.878906 29.628906 8.460938 30.222656 C 9.484375 31.257812 11.628906 31.039062 11.515625 29.285156 " fill-opacity="1" fill-rule="nonzero"/></g></g><g clip-path="url(#e4572273f5)"><g clip-path="url(#e4768e3231)"><path fill="#cac9ac" d="M 14.128906 28.898438 C 13.996094 28.417969 13.726562 27.964844 13.699219 27.464844 C 13.660156 26.710938 14.167969 26.050781 14.613281 25.4375 C 15.167969 24.671875 15.6875 23.820312 15.726562 22.878906 C 15.742188 22.542969 15.699219 22.1875 15.859375 21.890625 C 16.117188 21.402344 16.839844 21.238281 16.976562 20.703125 C 16.625 21.535156 16.273438 22.382812 16.152344 23.273438 C 16.085938 23.769531 16.09375 24.273438 15.953125 24.75 C 15.828125 25.171875 15.597656 25.550781 15.386719 25.9375 C 14.917969 26.792969 14.53125 27.808594 14.871094 28.71875 C 15.117188 29.375 15.722656 29.941406 15.636719 30.636719 C 15.558594 31.28125 14.367188 32.035156 13.945312 31.246094 C 13.8125 30.992188 14.039062 30.660156 14.09375 30.417969 C 14.210938 29.902344 14.269531 29.421875 14.128906 28.898438 " fill-opacity="1" fill-rule="nonzero"/></g></g><g clip-path="url(#8e59ccf44d)"><g clip-path="url(#8af8886c5b)"><path fill="#cac9ac" d="M 34.359375 33.863281 C 34.683594 34.019531 35.121094 33.996094 35.351562 33.71875 C 35.558594 33.476562 35.542969 33.101562 35.40625 32.8125 C 35.265625 32.523438 35.027344 32.296875 34.804688 32.066406 C 34.382812 31.636719 33.992188 31.164062 33.734375 30.617188 C 33.078125 29.214844 33.410156 27.523438 32.859375 26.074219 C 32.625 25.464844 32.242188 24.914062 32.054688 24.292969 C 31.765625 23.324219 31.96875 22.285156 31.859375 21.28125 C 31.769531 20.488281 31.484375 19.734375 31.199219 18.988281 C 31.03125 18.539062 30.851562 18.078125 30.515625 17.738281 C 30.265625 17.484375 29.945312 17.316406 29.660156 17.109375 C 28.59375 16.355469 27.785156 15.039062 26.480469 14.957031 C 28.683594 14.152344 31.242188 15.3125 32.675781 17.148438 C 34.113281 18.984375 34.648438 21.351562 34.976562 23.652344 C 35.300781 25.957031 35.460938 28.3125 36.296875 30.484375 C 36.789062 31.761719 37.511719 32.964844 37.757812 34.308594 C 37.917969 35.171875 37.871094 36.070312 37.621094 36.914062 C 37.46875 37.4375 37.230469 37.949219 36.835938 38.328125 C 36.4375 38.703125 35.863281 38.925781 35.328125 38.804688 C 34.507812 38.621094 34.058594 37.75 33.832031 36.949219 C 33.511719 35.828125 33.265625 34.390625 33.570312 33.242188 C 33.835938 33.394531 34.042969 33.71875 34.359375 33.863281 " fill-opacity="1" fill-rule="nonzero"/></g></g><g clip-path="url(#13336dee87)"><g clip-path="url(#41e63fddf9)"><path fill="#cac9ac" d="M 29.46875 27.464844 C 29.613281 27.277344 29.808594 27.140625 29.957031 26.957031 C 30.441406 26.347656 30.25 25.476562 30.296875 24.699219 C 30.34375 23.878906 30.683594 23.082031 30.632812 22.257812 C 30.578125 23.195312 30.527344 24.164062 30.875 25.035156 C 31.226562 25.929688 31.996094 26.785156 31.742188 27.710938 C 31.660156 28.007812 31.476562 28.265625 31.378906 28.554688 C 31.253906 28.9375 31.277344 29.351562 31.28125 29.753906 C 31.285156 30.15625 31.261719 30.578125 31.050781 30.921875 C 30.839844 31.269531 30.390625 31.503906 30.015625 31.34375 C 29.65625 31.195312 29.511719 30.773438 29.421875 30.394531 C 29.226562 29.550781 28.878906 28.226562 29.46875 27.464844 " fill-opacity="1" fill-rule="nonzero"/></g></g><g clip-path="url(#dd70348df7)"><path fill="#65625f" d="M 28.828125 13.96875 C 27.972656 13.230469 27.828125 11.886719 27.765625 10.871094 C 27.6875 9.636719 27.734375 8.296875 28.195312 7.128906 C 28.238281 7.019531 28.289062 6.90625 28.386719 6.832031 C 28.847656 6.480469 29.738281 7.230469 30.03125 7.515625 C 30.148438 7.628906 30.484375 8.214844 30.675781 8.207031 C 31.546875 8.167969 30.609375 6.050781 30.375 5.773438 C 29.601562 4.855469 28.261719 4.585938 27.074219 4.546875 C 25.800781 4.5 24.523438 5.820312 23.769531 6.617188 C 22.53125 7.925781 21.769531 9.34375 21.101562 10.964844 C 21.023438 11.15625 19.890625 13.699219 19.789062 13.65625 C 18.9375 13.816406 18.082031 14.03125 17.183594 14.28125 C 16.527344 14.460938 15.875 14.667969 15.257812 14.945312 C 14.699219 15.199219 14.261719 15.488281 13.75 15.894531 C 13.75 15.894531 16.023438 14.746094 19.570312 15.222656 C 22.34375 15.597656 25.070312 16.28125 27.878906 16.417969 C 30.527344 16.542969 32.9375 15.660156 35.558594 15.644531 C 33.214844 14.53125 31.667969 14.574219 28.828125 13.96875 " fill-opacity="1" fill-rule="nonzero"/></g><g clip-path="url(#678ad85c04)"><g clip-path="url(#c63764c965)"><path fill="#d2cfbc" d="M 23.828125 8.554688 C 25.710938 8.777344 29.011719 9.730469 29.132812 11.886719 C 29.167969 12.519531 29.042969 13.152344 28.914062 13.777344 C 27.269531 13.023438 25.542969 12.433594 23.71875 12.242188 C 22.390625 12.105469 21.066406 12.101562 19.832031 12.578125 C 19.875 12.558594 20.085938 10.945312 20.144531 10.761719 C 20.40625 9.945312 20.875 9.070312 21.78125 8.742188 C 22.433594 8.507812 23.132812 8.472656 23.828125 8.554688 " fill-opacity="1" fill-rule="nonzero"/></g></g><g clip-path="url(#8efad8130d)"><g clip-path="url(#aa2ea2f434)"><path fill="#a09882" d="M 18.585938 12.066406 L 19.460938 11.351562 C 20.703125 10.339844 23.246094 9.96875 25.703125 10.222656 C 22.878906 9.210938 21.003906 8.917969 20.257812 9.148438 L 20.105469 8.710938 C 21.359375 8.328125 24.4375 9.101562 28.335938 10.757812 C 28.964844 10.960938 29.546875 11.214844 30.046875 11.515625 L 29.804688 11.914062 C 29.207031 11.640625 28.632812 11.386719 28.085938 11.152344 C 25.839844 10.445312 23.042969 10.453125 21.203125 11.007812 C 25.570312 10.652344 30.472656 13.261719 30.703125 13.390625 L 30.457031 13.785156 C 30.394531 13.75 24.167969 10.433594 19.695312 11.742188 L 18.585938 12.066406 " fill-opacity="1" fill-rule="nonzero"/></g></g><g fill="#faff00" fill-opacity="1"><g transform="translate(8.789318, 37.422999)"><g><path d="M 2.121094 -3.953125 C 2.078125 -3.910156 2.007812 -3.976562 2.039062 -4.023438 L 2.496094 -4.734375 C 2.367188 -5.289062 1.863281 -5.679688 1.289062 -5.679688 C 0.574219 -5.679688 0 -5.097656 0 -4.390625 L 0 -1.289062 C 0 -0.585938 0.574219 0 1.289062 0 C 1.664062 0 1.953125 -0.160156 2.246094 -0.457031 L 3.105469 -1.3125 C 3.105469 -0.984375 3.230469 -0.632812 3.480469 -0.382812 C 3.71875 -0.128906 4.039062 0 4.367188 0 C 4.695312 0 5.023438 -0.128906 5.28125 -0.382812 L 8.382812 -3.488281 C 8.878906 -3.984375 8.863281 -4.824219 8.382812 -5.304688 C 8.136719 -5.558594 7.808594 -5.679688 7.480469 -5.679688 C 7.152344 -5.679688 6.839844 -5.550781 6.59375 -5.304688 L 5.230469 -3.960938 C 5.175781 -3.902344 5.113281 -3.960938 5.152344 -4.023438 L 5.609375 -4.734375 C 5.464844 -5.328125 4.929688 -5.679688 4.375 -5.679688 C 4.054688 -5.679688 3.734375 -5.558594 3.480469 -5.304688 Z M 2.121094 -3.953125 "/></g></g></g><g fill="#faff00" fill-opacity="1"><g transform="translate(17.693314, 37.422999)"><g><path d="M 1.265625 0 C 1.992188 0 2.550781 -0.585938 2.550781 -1.28125 L 2.550781 -4.425781 C 2.550781 -5.121094 1.992188 -5.679688 1.265625 -5.679688 C 0.558594 -5.679688 0 -5.121094 0 -4.425781 L 0 -1.28125 C 0 -0.585938 0.558594 0 1.265625 0 Z M 1.265625 0 "/></g></g></g><g fill="#faff00" fill-opacity="1"><g transform="translate(20.501313, 37.422999)"><g><path d="M 3.761719 -5.679688 L 1.238281 -5.679688 C 0.527344 -5.679688 -0.0234375 -5.097656 -0.0234375 -4.390625 C -0.0234375 -3.710938 0.527344 -3.128906 1.238281 -3.128906 L 1.238281 -1.207031 C 1.238281 -0.496094 1.816406 0.0898438 2.503906 0.0898438 C 3.207031 0.0898438 3.792969 -0.496094 3.792969 -1.207031 L 3.785156 -3.128906 C 4.496094 -3.128906 5.046875 -3.710938 5.046875 -4.390625 C 5.046875 -5.097656 4.472656 -5.679688 3.761719 -5.679688 Z M 3.761719 -5.679688 "/></g></g></g><g fill="#faff00" fill-opacity="1"><g transform="translate(25.66931, 37.422999)"><g><path d="M 2.832031 -5.679688 C 1.273438 -5.679688 0 -4.433594 0 -2.847656 C 0 -1.335938 1.257812 0 2.792969 0 L 3.953125 0 C 4.695312 0 5.304688 -0.632812 5.304688 -1.351562 C 5.304688 -2.105469 4.695312 -2.742188 3.953125 -2.742188 C 3.550781 -2.742188 3.238281 -2.558594 3 -2.558594 C 2.832031 -2.558594 2.6875 -2.6875 2.6875 -2.847656 C 2.6875 -3.015625 2.832031 -3.160156 3 -3.160156 C 3.238281 -3.160156 3.550781 -2.976562 3.953125 -2.976562 C 4.695312 -2.976562 5.304688 -3.574219 5.304688 -4.328125 C 5.304688 -5.046875 4.695312 -5.679688 3.953125 -5.679688 Z M 2.832031 -5.679688 "/></g></g></g><g fill="#faff00" fill-opacity="1"><g transform="translate(31.213309, 37.422999)"><g><path d="M 4.183594 0 C 4.878906 0 5.457031 -0.566406 5.457031 -1.273438 L 5.457031 -4.414062 C 5.457031 -5.113281 4.878906 -5.679688 4.183594 -5.679688 C 3.472656 -5.679688 2.894531 -5.113281 2.894531 -4.414062 L 2.894531 -4.128906 C 2.894531 -4.039062 2.816406 -3.960938 2.71875 -3.960938 C 2.625 -3.960938 2.542969 -4.039062 2.542969 -4.128906 L 2.542969 -4.414062 C 2.542969 -5.128906 1.984375 -5.679688 1.273438 -5.679688 C 0.574219 -5.679688 0 -5.128906 0 -4.414062 L 0 -1.273438 C 0 -0.550781 0.574219 0 1.273438 0 C 1.984375 0 2.542969 -0.550781 2.542969 -1.273438 L 2.542969 -1.542969 C 2.542969 -1.640625 2.625 -1.71875 2.71875 -1.71875 C 2.816406 -1.71875 2.894531 -1.640625 2.894531 -1.542969 L 2.894531 -1.273438 C 2.894531 -0.566406 3.472656 0 4.183594 0 Z M 4.183594 0 "/></g></g></g><g fill="#a134f6" fill-opacity="1"><g transform="translate(8.435764, 37.069445)"><g><path d="M 2.121094 -3.953125 C 2.078125 -3.910156 2.007812 -3.976562 2.039062 -4.023438 L 2.496094 -4.734375 C 2.367188 -5.289062 1.863281 -5.679688 1.289062 -5.679688 C 0.574219 -5.679688 0 -5.097656 0 -4.390625 L 0 -1.289062 C 0 -0.585938 0.574219 0 1.289062 0 C 1.664062 0 1.953125 -0.160156 2.246094 -0.457031 L 3.105469 -1.3125 C 3.105469 -0.984375 3.230469 -0.632812 3.480469 -0.382812 C 3.71875 -0.128906 4.039062 0 4.367188 0 C 4.695312 0 5.023438 -0.128906 5.28125 -0.382812 L 8.382812 -3.488281 C 8.878906 -3.984375 8.863281 -4.824219 8.382812 -5.304688 C 8.136719 -5.558594 7.808594 -5.679688 7.480469 -5.679688 C 7.152344 -5.679688 6.839844 -5.550781 6.59375 -5.304688 L 5.230469 -3.960938 C 5.175781 -3.902344 5.113281 -3.960938 5.152344 -4.023438 L 5.609375 -4.734375 C 5.464844 -5.328125 4.929688 -5.679688 4.375 -5.679688 C 4.054688 -5.679688 3.734375 -5.558594 3.480469 -5.304688 Z M 2.121094 -3.953125 "/></g></g></g><g fill="#a134f6" fill-opacity="1"><g transform="translate(17.33976, 37.069445)"><g><path d="M 1.265625 0 C 1.992188 0 2.550781 -0.585938 2.550781 -1.28125 L 2.550781 -4.425781 C 2.550781 -5.121094 1.992188 -5.679688 1.265625 -5.679688 C 0.558594 -5.679688 0 -5.121094 0 -4.425781 L 0 -1.28125 C 0 -0.585938 0.558594 0 1.265625 0 Z M 1.265625 0 "/></g></g></g><g fill="#a134f6" fill-opacity="1"><g transform="translate(20.147759, 37.069445)"><g><path d="M 3.761719 -5.679688 L 1.238281 -5.679688 C 0.527344 -5.679688 -0.0234375 -5.097656 -0.0234375 -4.390625 C -0.0234375 -3.710938 0.527344 -3.128906 1.238281 -3.128906 L 1.238281 -1.207031 C 1.238281 -0.496094 1.816406 0.0898438 2.503906 0.0898438 C 3.207031 0.0898438 3.792969 -0.496094 3.792969 -1.207031 L 3.785156 -3.128906 C 4.496094 -3.128906 5.046875 -3.710938 5.046875 -4.390625 C 5.046875 -5.097656 4.472656 -5.679688 3.761719 -5.679688 Z M 3.761719 -5.679688 "/></g></g></g><g fill="#a134f6" fill-opacity="1"><g transform="translate(25.315756, 37.069445)"><g><path d="M 2.832031 -5.679688 C 1.273438 -5.679688 0 -4.433594 0 -2.847656 C 0 -1.335938 1.257812 0 2.792969 0 L 3.953125 0 C 4.695312 0 5.304688 -0.632812 5.304688 -1.351562 C 5.304688 -2.105469 4.695312 -2.742188 3.953125 -2.742188 C 3.550781 -2.742188 3.238281 -2.558594 3 -2.558594 C 2.832031 -2.558594 2.6875 -2.6875 2.6875 -2.847656 C 2.6875 -3.015625 2.832031 -3.160156 3 -3.160156 C 3.238281 -3.160156 3.550781 -2.976562 3.953125 -2.976562 C 4.695312 -2.976562 5.304688 -3.574219 5.304688 -4.328125 C 5.304688 -5.046875 4.695312 -5.679688 3.953125 -5.679688 Z M 2.832031 -5.679688 "/></g></g></g><g fill="#a134f6" fill-opacity="1"><g transform="translate(30.859755, 37.069445)"><g><path d="M 4.183594 0 C 4.878906 0 5.457031 -0.566406 5.457031 -1.273438 L 5.457031 -4.414062 C 5.457031 -5.113281 4.878906 -5.679688 4.183594 -5.679688 C 3.472656 -5.679688 2.894531 -5.113281 2.894531 -4.414062 L 2.894531 -4.128906 C 2.894531 -4.039062 2.816406 -3.960938 2.71875 -3.960938 C 2.625 -3.960938 2.542969 -4.039062 2.542969 -4.128906 L 2.542969 -4.414062 C 2.542969 -5.128906 1.984375 -5.679688 1.273438 -5.679688 C 0.574219 -5.679688 0 -5.128906 0 -4.414062 L 0 -1.273438 C 0 -0.550781 0.574219 0 1.273438 0 C 1.984375 0 2.542969 -0.550781 2.542969 -1.273438 L 2.542969 -1.542969 C 2.542969 -1.640625 2.625 -1.71875 2.71875 -1.71875 C 2.816406 -1.71875 2.894531 -1.640625 2.894531 -1.542969 L 2.894531 -1.273438 C 2.894531 -0.566406 3.472656 0 4.183594 0 Z M 4.183594 0 "/></g></g></g></svg>