<svg xmlns="http://www.w3.org/2000/svg" xmlns:xlink="http://www.w3.org/1999/xlink" width="60" zoomAndPan="magnify" viewBox="0 0 45 44.999999" height="60" preserveAspectRatio="xMidYMid meet" version="1.0"><defs><clipPath id="614d1e2386"><path d="M 8.300781 18 L 36.800781 18 L 36.800781 37.164062 L 8.300781 37.164062 Z M 8.300781 18 " clip-rule="nonzero"/></clipPath><clipPath id="6f531da9f5"><path d="M 22 22 L 36.800781 22 L 36.800781 37 L 22 37 Z M 22 22 " clip-rule="nonzero"/></clipPath><clipPath id="38942fb84f"><path d="M 9 30 L 29 30 L 29 37.164062 L 9 37.164062 Z M 9 30 " clip-rule="nonzero"/></clipPath><clipPath id="636da1bc78"><path d="M 8.300781 18 L 18 18 L 18 31 L 8.300781 31 Z M 8.300781 18 " clip-rule="nonzero"/></clipPath><clipPath id="d9a9854ffa"><path d="M 9 30 L 17 30 L 17 37.164062 L 9 37.164062 Z M 9 30 " clip-rule="nonzero"/></clipPath><clipPath id="f9a7ae734a"><path d="M 16 33 L 28 33 L 28 37.164062 L 16 37.164062 Z M 16 33 " clip-rule="nonzero"/></clipPath><clipPath id="85aeab2ca7"><path d="M 32 22 L 36.800781 22 L 36.800781 32 L 32 32 Z M 32 22 " clip-rule="nonzero"/></clipPath><clipPath id="52b635913a"><path d="M 22 31 L 36.800781 31 L 36.800781 37 L 22 37 Z M 22 31 " clip-rule="nonzero"/></clipPath></defs><path fill="#bc1823" d="M 24.339844 17.601562 C 24.339844 17.601562 24.183594 18.605469 24.226562 18.917969 C 24.265625 19.230469 24.089844 19.058594 24.089844 19.058594 C 24.089844 19.058594 25.285156 18.960938 24.953125 19.730469 C 24.832031 20.007812 23.375 20.960938 23.347656 21.367188 C 23.164062 21.839844 19.980469 21.3125 19.980469 21.3125 C 19.980469 21.3125 20.625 21.214844 18.421875 20.53125 C 18.03125 21.023438 16.140625 19.355469 16.605469 19.085938 C 17.953125 18.308594 17.796875 15.613281 17.796875 15.613281 L 19.179688 15.25 L 24.339844 17.601562 " fill-opacity="1" fill-rule="evenodd"/><g clip-path="url(#614d1e2386)"><path fill="#000000" d="M 23.601562 18.605469 C 23.71875 18.652344 23.832031 18.695312 23.9375 18.738281 C 24.019531 18.773438 24.101562 18.808594 24.179688 18.839844 C 24.5625 19.003906 24.875 19.152344 25.167969 19.285156 L 25.199219 19.300781 C 25.960938 19.652344 26.597656 19.933594 27.964844 20.234375 C 28.984375 20.457031 30.1875 20.6875 30.941406 21.386719 C 30.964844 21.390625 30.988281 21.394531 31.015625 21.398438 C 32.019531 21.558594 32.441406 21.964844 32.535156 22.578125 L 32.535156 22.589844 C 32.570312 22.625 32.605469 22.664062 32.636719 22.703125 C 32.707031 22.777344 32.769531 22.855469 32.835938 22.929688 C 34.699219 25.128906 34.640625 26.59375 35.496094 28.824219 C 35.589844 29.066406 35.691406 29.316406 35.808594 29.574219 L 36.785156 31.582031 L 36.789062 31.574219 L 36.785156 31.582031 L 36.785156 31.589844 C 36.636719 32.390625 36.445312 33.058594 36.210938 33.621094 C 35.070312 36.34375 32.855469 36.519531 29.136719 36.867188 C 26.730469 37.09375 26.105469 36.921875 24.625 36.515625 L 24.574219 36.558594 C 24.539062 36.59375 24.5 36.628906 24.460938 36.664062 C 24.488281 36.601562 24.511719 36.542969 24.535156 36.488281 C 24.148438 36.382812 23.707031 36.261719 23.160156 36.128906 C 21.167969 36.726562 19.300781 36.667969 16.191406 37.101562 L 16.152344 37.105469 C 16.164062 37.105469 16.179688 37.109375 16.195312 37.105469 L 16.125 37.113281 L 16.09375 37.113281 L 16.058594 37.121094 L 16.050781 37.121094 L 16.054688 37.121094 L 16.074219 37.117188 L 15.984375 37.125 L 15.832031 37.136719 C 13.65625 37.125 10.855469 33.230469 9.511719 30.964844 C 9.316406 30.632812 9.152344 30.335938 9.023438 30.09375 L 9.027344 30.097656 L 9.019531 30.082031 C 8.992188 30.078125 8.964844 30.058594 8.941406 30.035156 L 8.933594 30.03125 C 8.8125 29.90625 8.710938 29.582031 8.628906 29.175781 C 8.597656 29.035156 8.570312 28.878906 8.546875 28.722656 C 8.394531 27.726562 8.332031 26.539062 8.332031 26.488281 C 8.316406 23.777344 9.84375 21.902344 12.449219 20.957031 C 14.238281 20.308594 12.902344 21.09375 14.746094 19.972656 C 15.320312 19.621094 15.90625 19.316406 16.5 19.023438 L 16.488281 19.015625 L 16.464844 19.003906 C 16.453125 18.992188 16.4375 18.984375 16.425781 18.980469 C 16.410156 18.972656 16.398438 18.96875 16.390625 18.96875 C 16.394531 18.96875 16.402344 18.972656 16.410156 18.972656 C 16.421875 18.980469 16.433594 18.988281 16.453125 18.996094 C 16.464844 19.003906 16.476562 19.007812 16.488281 19.015625 L 16.5 19.023438 L 16.511719 19.019531 L 16.535156 19.007812 C 16.945312 18.808594 17.359375 18.617188 17.78125 18.425781 L 17.785156 18.421875 L 17.804688 18.414062 L 17.890625 18.375 C 17.457031 18.59375 17.027344 18.8125 16.605469 19.039062 L 16.574219 19.054688 L 16.570312 19.058594 L 16.5625 19.0625 C 16.589844 19.082031 16.621094 19.101562 16.65625 19.125 C 16.78125 19.210938 16.945312 19.320312 17.125 19.449219 C 17.742188 19.875 18.5625 20.457031 18.894531 20.613281 C 19.476562 20.886719 20.761719 21.277344 21.730469 21.488281 C 21.769531 21.480469 21.804688 21.472656 21.84375 21.46875 C 21.925781 21.453125 22.003906 21.4375 22.082031 21.421875 L 22.085938 21.417969 C 23.25 21.175781 24.121094 20.714844 25.074219 19.402344 C 24.613281 19.144531 24.144531 18.867188 23.601562 18.605469 " fill-opacity="1" fill-rule="evenodd"/></g><g clip-path="url(#6f531da9f5)"><path fill="#160d26" d="M 32.605469 22.667969 L 32.636719 22.703125 C 32.707031 22.777344 32.769531 22.855469 32.835938 22.929688 C 34.699219 25.128906 34.640625 26.59375 35.496094 28.824219 C 35.589844 29.066406 35.691406 29.316406 35.808594 29.574219 L 36.785156 31.582031 L 36.789062 31.574219 L 36.785156 31.582031 L 36.785156 31.589844 C 36.636719 32.390625 36.445312 33.058594 36.210938 33.621094 C 35.070312 36.34375 32.855469 36.519531 29.136719 36.867188 C 26.730469 37.09375 26.105469 36.921875 24.625 36.515625 L 24.574219 36.558594 C 24.539062 36.59375 24.5 36.628906 24.460938 36.664062 C 24.488281 36.601562 24.511719 36.542969 24.535156 36.488281 C 24.148438 36.382812 23.707031 36.261719 23.160156 36.128906 L 23.089844 36.148438 L 22.777344 35.921875 L 26.089844 34.136719 C 26.089844 34.136719 29.375 34.820312 31.1875 34.839844 C 32.996094 34.859375 36.226562 32.253906 35.828125 31.40625 C 35.433594 30.558594 33.585938 29.8125 33.585938 29.8125 C 33.585938 29.8125 32.535156 27.175781 32.257812 25.535156 C 32.128906 24.785156 32.351562 23.566406 32.605469 22.667969 " fill-opacity="1" fill-rule="evenodd"/></g><path fill="#f32431" d="M 31.003906 29.757812 C 31.003906 29.757812 30.191406 28.757812 29.683594 28.507812 C 29.179688 28.261719 29.316406 28.164062 28.632812 28.222656 C 27.953125 28.28125 26.65625 28.65625 26.65625 28.65625 L 27.980469 31.652344 L 29.84375 30.53125 L 31.003906 29.757812 " fill-opacity="1" fill-rule="evenodd"/><path fill="#160d26" d="M 29.710938 22.933594 C 29.710938 22.933594 28.976562 25.6875 28.113281 26.949219 C 27.253906 28.210938 26.714844 28.640625 26.714844 28.640625 C 28.144531 28.265625 28.6875 27.882812 30.28125 29.121094 C 30.28125 29.121094 29.351562 27.640625 29.382812 26.476562 C 29.410156 25.3125 29.710938 22.933594 29.710938 22.933594 " fill-opacity="1" fill-rule="evenodd"/><path fill="#333333" d="M 23.601562 18.605469 C 25.46875 19.339844 25.808594 19.761719 27.960938 20.234375 C 29.371094 20.542969 31.132812 20.863281 31.570312 22.425781 C 30.988281 20.847656 29.285156 20.867188 27.910156 20.578125 C 26.132812 20.207031 25.152344 19.359375 23.601562 18.605469 " fill-opacity="1" fill-rule="evenodd"/><g clip-path="url(#38942fb84f)"><path fill="#160d26" d="M 9.496094 30.9375 C 10.011719 31.089844 11.003906 31.535156 12.03125 32.847656 C 13.515625 34.742188 14.878906 36.488281 16.601562 36.101562 C 18.328125 35.714844 19.742188 34.054688 22.210938 34.019531 C 24.679688 33.980469 28.136719 33.410156 28.152344 32.691406 C 28.164062 31.972656 28.054688 33.480469 28.054688 33.480469 C 28.054688 33.480469 26.820312 35.269531 21.625 36.320312 C 20.917969 36.464844 20.277344 36.59375 19.699219 36.714844 C 18.691406 36.8125 17.5625 36.910156 16.191406 37.101562 L 16.152344 37.105469 C 16.164062 37.105469 16.179688 37.109375 16.195312 37.105469 L 16.125 37.113281 L 16.09375 37.113281 L 16.058594 37.121094 L 16.050781 37.121094 L 16.054688 37.121094 L 16.074219 37.117188 L 15.984375 37.125 L 15.832031 37.136719 C 13.65625 37.125 10.855469 33.230469 9.511719 30.964844 L 9.496094 30.9375 " fill-opacity="1" fill-rule="evenodd"/></g><path fill="#160d26" d="M 12.570312 22.703125 C 12.570312 22.703125 16.578125 23.679688 16.574219 26.414062 C 17.722656 27.726562 18.3125 28.527344 18.3125 28.527344 C 18.3125 28.527344 19.660156 28.367188 20.191406 28.539062 C 20.726562 28.714844 18.992188 28.800781 18.605469 30.421875 C 18.21875 32.039062 17.707031 31.457031 17.707031 31.457031 C 17.707031 31.457031 17.746094 30.226562 18.6875 29.617188 C 19.632812 29.007812 16.585938 30.105469 15.722656 31.738281 C 14.863281 33.371094 14.632812 32.058594 15.339844 30.820312 C 16.046875 29.585938 16.886719 28.972656 16.886719 28.972656 C 16.886719 28.972656 14.960938 28.136719 15.449219 26.9375 C 15.867188 25.917969 14.4375 23.933594 12.570312 22.703125 " fill-opacity="1" fill-rule="evenodd"/><g clip-path="url(#636da1bc78)"><path fill="#000000" d="M 17.890625 18.375 C 16.835938 18.90625 15.808594 19.4375 14.824219 20.09375 C 13.039062 21.28125 14.234375 20.5 12.53125 21.195312 C 10.746094 21.925781 8.921875 23.5 8.578125 25.480469 C 8.480469 26.050781 8.472656 30.125 9.058594 30.085938 C 8.519531 30.144531 8.332031 26.582031 8.332031 26.488281 C 8.3125 23.777344 9.84375 21.902344 12.449219 20.957031 C 14.238281 20.308594 12.902344 21.09375 14.746094 19.972656 C 15.761719 19.355469 16.8125 18.863281 17.890625 18.375 " fill-opacity="1" fill-rule="evenodd"/></g><g clip-path="url(#d9a9854ffa)"><path fill="#000000" d="M 9.023438 30.09375 C 10.046875 31.761719 11.695312 33.636719 12.996094 35.1875 C 13.882812 36.238281 14.742188 37.121094 16.195312 37.105469 L 15.828125 37.136719 C 13.335938 37.125 10.023438 32.011719 9.023438 30.09375 " fill-opacity="1" fill-rule="evenodd"/></g><g clip-path="url(#f9a7ae734a)"><path fill="#333333" d="M 16.050781 37.121094 C 20.902344 36.140625 23.304688 36.496094 27.660156 33.738281 C 27.785156 33.664062 27.765625 33.601562 27.878906 33.539062 C 27.769531 33.609375 27.792969 33.667969 27.667969 33.753906 C 23.046875 37.054688 21.324219 36.367188 16.050781 37.121094 " fill-opacity="1" fill-rule="evenodd"/></g><path fill="#333333" d="M 26.089844 28.121094 C 26.789062 28.917969 29.011719 32.359375 28.074219 33.464844 C 28.042969 33.5 28.03125 33.507812 27.992188 33.527344 C 28.195312 33.402344 28.160156 32.921875 28.144531 32.746094 C 28.058594 31.828125 26.601562 28.871094 26.089844 28.121094 " fill-opacity="1" fill-rule="evenodd"/><path fill="#333333" d="M 15.160156 31.550781 C 15.730469 28.734375 16.789062 28.5625 19.542969 28.335938 C 17.050781 28.84375 15.964844 29.121094 15.160156 31.550781 " fill-opacity="1" fill-rule="evenodd"/><path fill="#333333" d="M 18.328125 30.378906 C 18.558594 29.601562 19.191406 28.046875 20.28125 28.308594 C 22.601562 28.871094 23.460938 29.0625 25.777344 28.046875 C 25.460938 28.21875 24.957031 28.503906 24.621094 28.625 C 22.730469 29.300781 21.929688 29.121094 20.191406 28.539062 C 19.292969 28.238281 18.558594 29.785156 18.328125 30.378906 " fill-opacity="1" fill-rule="evenodd"/><path fill="#333333" d="M 11.507812 22.640625 C 13.75 22.566406 16.308594 23.835938 16.726562 26.148438 C 16.980469 27.546875 17.335938 26.734375 18.101562 28.222656 C 18.148438 28.3125 18.207031 28.347656 18.21875 28.433594 C 18.203125 28.347656 18.136719 28.316406 18.082031 28.230469 C 17.199219 26.792969 16.902344 27.679688 16.511719 26.183594 C 15.960938 24.085938 13.582031 22.722656 11.507812 22.640625 " fill-opacity="1" fill-rule="evenodd"/><path fill="#333333" d="M 17.050781 27.042969 C 16.09375 27.160156 15.117188 27.015625 14.199219 27.1875 C 15.699219 26.503906 15.679688 26.871094 17.050781 27.042969 " fill-opacity="1" fill-rule="evenodd"/><g clip-path="url(#85aeab2ca7)"><path fill="#000000" d="M 32.527344 22.578125 C 33.921875 24.113281 34.503906 25.464844 35.089844 27.484375 C 35.578125 29.261719 36.003906 29.96875 36.785156 31.585938 L 35.664062 29.652344 C 34.269531 27.082031 34.539062 25.144531 32.527344 22.578125 " fill-opacity="1" fill-rule="evenodd"/></g><g clip-path="url(#52b635913a)"><path fill="#000000" d="M 36.785156 31.574219 C 35.921875 36.28125 33.628906 36.449219 29.132812 36.867188 C 25.976562 37.164062 25.886719 36.777344 22.902344 36.066406 C 25.894531 36.640625 25.996094 37.023438 29.105469 36.597656 C 33.578125 35.984375 35.703125 36.308594 36.785156 31.574219 " fill-opacity="1" fill-rule="evenodd"/></g><path fill="#333333" d="M 29.710938 22.933594 C 29.652344 23.738281 29.316406 26.988281 29.664062 27.746094 L 29.777344 27.9375 C 28.765625 26.667969 29.40625 24.347656 29.710938 22.933594 " fill-opacity="1" fill-rule="evenodd"/><path fill="#000000" d="M 32.25 24.472656 C 32.417969 22.855469 32.425781 21.867188 30.839844 21.375 C 32.839844 21.621094 32.75 22.730469 32.25 24.472656 " fill-opacity="1" fill-rule="evenodd"/><path fill="#333333" d="M 27.890625 31.691406 C 30.855469 30.042969 31.105469 28.113281 34.640625 30.429688 C 31.257812 28.664062 30.988281 30.328125 27.890625 31.691406 " fill-opacity="1" fill-rule="evenodd"/><path fill="#333333" d="M 24.457031 36.664062 C 24.894531 35.660156 24.597656 36.132812 25.371094 35.265625 C 24.96875 36.363281 25.285156 35.902344 24.457031 36.664062 " fill-opacity="1" fill-rule="evenodd"/><path fill="#000000" d="M 26.832031 32.808594 C 26.625 33.238281 27.285156 33.367188 27.34375 32.574219 C 27.898438 33.949219 26.125 33.386719 26.832031 32.808594 " fill-opacity="1" fill-rule="evenodd"/><path fill="#000000" d="M 26.714844 28.640625 C 28.445312 28.105469 29.253906 27.382812 30.542969 29.265625 C 30.78125 29.613281 30.671875 29.476562 30.863281 29.699219 C 30.636719 29.503906 30.765625 29.625 30.480469 29.320312 C 29.144531 27.90625 28.335938 28.390625 26.714844 28.640625 " fill-opacity="1" fill-rule="evenodd"/><path fill="#2b2a29" d="M 25.089844 19.402344 C 25.128906 21.339844 25.015625 26.445312 23.761719 28.792969 C 23.84375 28.777344 23.921875 28.761719 23.996094 28.742188 C 25.164062 26.226562 25.15625 21.140625 25.089844 19.402344 Z M 22.34375 28.910156 C 20.984375 26.230469 19.738281 23.414062 18.273438 20.84375 C 17.804688 20.019531 17.316406 19.546875 16.535156 19.007812 C 16.9375 19.296875 17.308594 19.609375 17.636719 19.984375 C 18.28125 20.726562 19.261719 22.886719 19.714844 23.847656 C 20.484375 25.472656 21.25 27.269531 22.070312 28.890625 C 22.160156 28.902344 22.253906 28.90625 22.34375 28.910156 " fill-opacity="1" fill-rule="evenodd"/><path fill="#e5e5e5" d="M 19.28125 22.9375 L 22.269531 28.902344 L 23.886719 28.394531 L 24.679688 26.371094 C 24.679688 26.371094 25.226562 23.640625 25.007812 22.300781 C 24.789062 20.964844 24.199219 20.453125 24.199219 20.453125 L 21.609375 20.578125 L 19.601562 21.417969 L 19.28125 22.9375 " fill-opacity="1" fill-rule="evenodd"/><path fill="#f32431" d="M 21.972656 22.363281 C 21.972656 22.363281 21.042969 25.320312 21.046875 26.503906 C 21.050781 27.113281 21.519531 28.085938 21.972656 28.882812 C 22.957031 29 23.890625 28.792969 24.46875 28.613281 C 24.625 27.933594 24.828125 26.601562 24.398438 25.335938 C 23.785156 23.542969 22.886719 22.332031 22.886719 22.332031 L 21.972656 22.363281 " fill-opacity="1" fill-rule="evenodd"/><path fill="#000000" d="M 21.972656 22.363281 C 21.605469 23.503906 20.792969 25.917969 21.066406 27.019531 C 21.203125 27.566406 21.523438 28.246094 21.863281 28.867188 C 21.9375 28.878906 22.007812 28.886719 22.082031 28.894531 C 21.699219 28.253906 21.339844 27.5625 21.183594 26.984375 C 20.894531 25.941406 21.644531 23.472656 21.972656 22.363281 L 22.886719 22.34375 L 22.917969 22.394531 C 23.769531 23.773438 24.597656 25.316406 24.582031 27 C 24.578125 27.277344 24.488281 28.121094 24.378906 28.640625 C 24.453125 28.621094 24.519531 28.597656 24.582031 28.578125 C 24.675781 28.039062 24.734375 27.265625 24.730469 26.996094 C 24.707031 25.429688 23.90625 23.804688 23.050781 22.539062 C 22.941406 22.382812 22.972656 22.421875 22.886719 22.320312 L 21.972656 22.363281 " fill-opacity="1" fill-rule="evenodd"/><path fill="#2b2a29" d="M 23.550781 20.878906 C 23.222656 21.988281 23.324219 21.574219 23.140625 22.421875 C 23.394531 21.621094 23.285156 22 23.550781 20.878906 C 23.167969 20.546875 22.859375 20.515625 22.328125 20.597656 C 22.152344 20.628906 20.667969 21.054688 20.734375 21.292969 C 20.894531 21.839844 21.398438 22.667969 21.929688 22.945312 C 22.050781 23.007812 22.492188 22.554688 23.03125 22.78125 L 23.066406 22.671875 C 22.703125 22.503906 22.335938 22.613281 21.988281 22.769531 C 21.511719 22.390625 21.179688 21.84375 20.921875 21.289062 C 21.683594 20.816406 22.777344 20.289062 23.550781 20.878906 Z M 23.140625 22.421875 C 23.125 22.5 23.109375 22.585938 23.085938 22.683594 C 23.078125 22.679688 23.070312 22.675781 23.066406 22.671875 C 23.09375 22.578125 23.121094 22.496094 23.140625 22.421875 " fill-opacity="1" fill-rule="evenodd"/><path fill="#bc1823" d="M 23.550781 20.878906 L 23.058594 22.730469 C 23.058594 22.730469 22.621094 22.496094 21.972656 22.867188 C 21.3125 22.507812 20.816406 21.261719 20.816406 21.261719 C 20.816406 21.261719 22.75 20.050781 23.550781 20.878906 " fill-opacity="1" fill-rule="evenodd"/><path fill="#ffffff" d="M 17.347656 18.007812 L 16.605469 19.085938 L 17.230469 20.691406 L 19.585938 23.445312 C 20.664062 22.648438 21.875 21.140625 22.265625 20.691406 C 23.113281 21.402344 24.34375 21.722656 24.90625 22.871094 C 25.601562 21.097656 24.675781 18.511719 24.675781 18.511719 C 24.675781 18.511719 23.410156 19.914062 22.441406 20.378906 C 21.472656 20.84375 17.347656 18.007812 17.347656 18.007812 " fill-opacity="1" fill-rule="evenodd"/><path fill="#2b2a29" d="M 17.347656 18.007812 C 17.335938 18.023438 16.589844 19.074219 16.59375 19.089844 C 16.601562 19.109375 17.203125 20.695312 17.210938 20.707031 C 17.238281 20.742188 19.511719 23.527344 19.597656 23.5 C 19.949219 23.402344 21.625 21.5625 21.898438 21.25 L 22.277344 20.8125 C 23.027344 21.371094 24.054688 21.84375 24.574219 22.546875 C 24.867188 22.945312 24.992188 23.441406 25.199219 22.1875 C 25.371094 21.160156 25.171875 19.902344 24.882812 18.921875 C 24.769531 18.539062 24.863281 18.667969 24.621094 18.464844 C 23.949219 19.210938 23.296875 19.828125 22.421875 20.335938 C 21.4375 20.679688 18.21875 18.589844 17.347656 18.007812 Z M 17.347656 18.007812 C 18.335938 18.695312 20.949219 20.394531 22.085938 20.472656 C 22.800781 20.523438 24.078125 19.25 24.640625 18.652344 C 25.019531 19.949219 25.253906 21.269531 24.875 22.605469 C 24.332031 21.78125 23.910156 21.636719 23.007812 21.089844 C 22.246094 20.628906 22.402344 20.394531 22.015625 20.851562 C 21.253906 21.765625 20.527344 22.625 19.59375 23.367188 L 17.253906 20.675781 L 16.617188 19.085938 L 17.347656 18.007812 " fill-opacity="1" fill-rule="evenodd"/><path fill="#000000" d="M 21.644531 18.175781 C 22.042969 17.652344 22.238281 18.074219 22.78125 17.851562 C 23.179688 17.6875 23.476562 17.828125 23.777344 18.179688 C 23.78125 18.179688 23.785156 18.1875 23.785156 18.191406 C 23.785156 18.191406 23.777344 18.179688 23.777344 18.179688 C 23.449219 17.871094 23.199219 17.78125 22.84375 17.960938 C 22.304688 18.226562 22.132812 17.671875 21.644531 18.175781 " fill-opacity="1" fill-rule="evenodd"/><path fill="#f32431" d="M 25.054688 10.296875 C 24.675781 11.734375 25.605469 11.25 25.234375 12.847656 C 25.683594 13.6875 25.832031 14.558594 25.597656 15.492188 C 25.367188 16.402344 25.121094 16.527344 24.785156 17.347656 C 24.316406 18.488281 24.828125 20.773438 23.371094 20.054688 C 22.996094 19.867188 22.230469 21.28125 21.03125 19.714844 C 20.464844 18.972656 20.414062 18.9375 19.457031 18.601562 C 19.203125 18.511719 18.777344 18.242188 18.503906 17.9375 C 18.039062 17.417969 17.800781 16.714844 17.660156 15.671875 C 17.472656 15.78125 17.042969 15.738281 16.726562 15.46875 L 16.335938 13.910156 L 15.890625 12.992188 L 15.984375 12.59375 L 16.132812 12.488281 L 16.492188 12.367188 L 16.765625 11.21875 L 17.195312 8.789062 L 23.601562 8.0625 C 24.195312 8.160156 24.914062 9.765625 25.054688 10.296875 " fill-opacity="1" fill-rule="evenodd"/><path fill="#bc1823" d="M 22.261719 16.179688 C 22.261719 16.179688 22.425781 16.058594 22.75 16.058594 C 23.074219 16.058594 23.261719 15.96875 23.261719 15.96875 L 23.199219 15.472656 L 22.679688 15.75 L 22.359375 15.734375 L 22.261719 16.179688 " fill-opacity="1" fill-rule="evenodd"/><path fill="#bc1823" d="M 23.824219 14.902344 C 23.863281 14.917969 23.914062 14.9375 23.980469 14.96875 C 24.433594 15.167969 24.617188 15.292969 24.546875 15.863281 C 24.515625 16.152344 24.363281 16.425781 24.226562 16.671875 C 24.222656 16.679688 24.222656 16.683594 24.222656 16.691406 C 24.832031 15.105469 24.203125 15.328125 23.824219 14.902344 " fill-opacity="1" fill-rule="evenodd"/><path fill="#bc1823" d="M 20.722656 15.351562 C 20.410156 15.476562 20.011719 15.523438 19.898438 15.886719 C 19.699219 16.511719 19.949219 17.019531 20.140625 17.519531 C 20.089844 17.15625 19.433594 15.828125 20.722656 15.351562 " fill-opacity="1" fill-rule="evenodd"/><path fill="#bc1823" d="M 19.335938 8.863281 C 18.125 10.421875 19.050781 11.628906 19.363281 11.789062 C 18.964844 12.1875 18.679688 12.882812 19.277344 13.691406 C 18.917969 14.160156 18.859375 15.910156 20.074219 17.046875 C 21.375 18.035156 21.59375 20.035156 22.273438 20.105469 C 23.304688 20.214844 23.367188 18.429688 22.667969 18.429688 C 22.296875 18.429688 22.027344 18.519531 22.027344 18.519531 C 22.027344 18.519531 22.800781 17.878906 23.285156 18.210938 C 23.707031 18.496094 24.570312 19.234375 24.359375 19.6875 C 24.148438 20.144531 23.785156 20.167969 23.644531 20.160156 C 23.5625 20.136719 23.472656 20.101562 23.371094 20.054688 C 23.335938 20.035156 23.300781 20.035156 23.257812 20.039062 C 23.046875 20.070312 22.746094 20.367188 22.355469 20.445312 C 22.332031 20.449219 22.304688 20.453125 22.277344 20.457031 C 21.933594 20.496094 21.558594 20.316406 21.03125 19.714844 C 20.382812 18.980469 20.339844 18.945312 19.457031 18.601562 C 19.207031 18.503906 18.777344 18.242188 18.503906 17.9375 C 18.039062 17.417969 17.800781 16.714844 17.660156 15.671875 C 17.472656 15.78125 17.042969 15.738281 16.726562 15.46875 L 16.335938 13.910156 L 15.890625 12.992188 L 15.984375 12.59375 L 16.132812 12.488281 L 16.492188 12.367188 L 16.765625 11.21875 L 17.292969 8.964844 L 19.335938 8.863281 " fill-opacity="1" fill-rule="evenodd"/><path fill="#000000" d="M 21.125 14.785156 C 21.222656 15.886719 19.167969 14.710938 20.164062 17.507812 C 20.039062 17.214844 19.882812 16.886719 19.835938 16.546875 C 19.613281 14.984375 21.160156 15.703125 21.125 14.785156 " fill-opacity="1" fill-rule="evenodd"/><path fill="#000000" d="M 23.625 14.65625 C 23.855469 15.230469 25.066406 14.847656 24.433594 16.289062 C 24.433594 16.292969 24.210938 16.636719 24.21875 16.691406 C 24.207031 16.636719 24.40625 16.28125 24.40625 16.277344 C 24.910156 14.878906 23.816406 15.246094 23.625 14.65625 " fill-opacity="1" fill-rule="evenodd"/><path fill="#bc1823" d="M 22.871094 12.34375 C 22.871094 12.34375 23.132812 12.855469 23.398438 12.953125 C 23.664062 13.050781 23.726562 13.097656 24 13.078125 C 24.273438 13.054688 24.800781 12.773438 24.800781 12.773438 C 24.800781 12.773438 25.175781 12.972656 25.214844 12.847656 C 25.25 12.722656 25.257812 11.941406 25.257812 11.941406 L 24.945312 11.144531 L 24.265625 11.035156 L 22.871094 12.34375 " fill-opacity="1" fill-rule="evenodd"/><path fill="#bc1823" d="M 21.324219 12.410156 C 21.28125 12.652344 21.160156 12.925781 21.03125 13.070312 C 20.710938 13.417969 20.230469 13.417969 19.945312 13.457031 C 19.671875 13.492188 19.277344 13.691406 19.277344 13.691406 C 19.277344 13.691406 19.09375 13.527344 19.03125 13.414062 C 18.96875 13.296875 18.824219 12.753906 18.824219 12.753906 L 19.167969 11.84375 L 20.226562 11.929688 L 21.324219 12.410156 " fill-opacity="1" fill-rule="evenodd"/><path fill="#bc1823" d="M 21.398438 12.285156 C 21.414062 12.277344 21.613281 12.367188 21.796875 12.8125 C 21.882812 13.023438 22.03125 13.265625 22.027344 13.707031 C 22.027344 14.0625 22.105469 14.347656 22.117188 14.5625 C 22.144531 15.191406 22.144531 15.324219 22.296875 15.5 C 22.496094 15.742188 21.988281 15.523438 21.722656 15.5 C 21.554688 15.484375 21.359375 15.386719 21.335938 15.234375 C 21.324219 15.144531 21.433594 15.039062 21.488281 14.902344 C 21.636719 14.535156 21.574219 14.058594 21.433594 13.632812 C 21.363281 13.410156 21.101562 13.128906 21.027344 13.078125 C 21.097656 12.917969 21.113281 12.738281 21.398438 12.285156 " fill-opacity="1" fill-rule="evenodd"/><path fill="#000000" d="M 21.929688 18.570312 C 23.457031 17.445312 23.609375 18.402344 23.867188 18.527344 C 23.558594 18.460938 23.566406 17.882812 21.929688 18.570312 " fill-opacity="1" fill-rule="evenodd"/><path fill="#000000" d="M 25.03125 10.300781 C 24.753906 11.882812 25.503906 11.097656 25.25 12.84375 C 26.507812 15.636719 25.019531 15.957031 24.660156 18.367188 C 24.4375 19.832031 24.6875 20.515625 23.289062 20.148438 C 22.929688 20.054688 22.238281 21.359375 20.949219 19.761719 C 19.511719 17.980469 18.054688 19.144531 17.660156 15.671875 C 18.144531 19.121094 19.542969 17.882812 21.066406 19.671875 C 22.367188 21.203125 22.78125 19.734375 23.398438 19.960938 C 24.816406 20.480469 23.992188 18.585938 24.917969 16.800781 C 26.410156 13.929688 25.097656 13.375 25.179688 12.839844 C 25.457031 11.070312 24.714844 11.871094 25.03125 10.300781 " fill-opacity="1" fill-rule="evenodd"/><path fill="#000000" d="M 17.234375 13.175781 C 16.867188 12.191406 15.285156 12.25 16.273438 13.5625 C 16.71875 14.148438 16.335938 15.921875 17.582031 15.707031 C 17.613281 15.699219 17.632812 15.6875 17.660156 15.671875 C 17.621094 15.703125 17.589844 15.71875 17.539062 15.722656 C 16.214844 15.839844 16.621094 14.480469 16.066406 13.714844 C 15.019531 12.277344 16.878906 11.878906 17.234375 13.175781 " fill-opacity="1" fill-rule="evenodd"/><path fill="#000000" d="M 21.234375 12.074219 C 20.84375 12.128906 19.09375 10.863281 18.402344 12.460938 C 18.382812 12.507812 18.375 12.625 18.371094 12.675781 C 18.378906 12.644531 18.410156 12.515625 18.429688 12.484375 C 19.3125 11.105469 20.480469 12.59375 21.300781 12.652344 C 21.460938 12.636719 21.578125 12.492188 21.558594 12.332031 C 21.542969 12.171875 21.394531 12.054688 21.234375 12.074219 " fill-opacity="1" fill-rule="evenodd"/><path fill="#000000" d="M 22.886719 11.78125 C 23.226562 11.742188 24.335938 10.117188 25.355469 11.496094 C 25.382812 11.535156 25.421875 11.644531 25.4375 11.695312 C 25.421875 11.664062 25.359375 11.546875 25.335938 11.523438 C 24.222656 10.402344 23.65625 12.109375 22.988281 12.355469 C 22.851562 12.375 22.714844 12.261719 22.683594 12.105469 C 22.65625 11.945312 22.746094 11.800781 22.886719 11.78125 " fill-opacity="1" fill-rule="evenodd"/><path fill="#ffffff" d="M 22.707031 16.054688 C 24.398438 16.03125 23.949219 15.996094 23.9375 16.285156 C 23.929688 16.492188 23.851562 16.6875 23.246094 17.359375 C 22.957031 17.320312 22.957031 17.386719 22.683594 17.585938 C 22.683594 17.585938 22.023438 17.609375 21.511719 17.386719 C 21 17.164062 20.957031 17.070312 20.839844 16.695312 C 20.839844 16.695312 21.296875 16.511719 22.707031 16.054688 " fill-opacity="1" fill-rule="evenodd"/><path fill="#000000" d="M 22.632812 16.054688 C 22.78125 16.046875 24.253906 15.84375 24.097656 16.121094 C 23.855469 16.554688 24.171875 16.441406 23.453125 17.246094 C 23.105469 17.632812 23.121094 17.363281 22.636719 17.613281 C 22.203125 17.835938 20.902344 17.375 20.789062 16.691406 C 21.164062 16.308594 22.148438 16.203125 22.632812 16.054688 Z M 22.632812 16.054688 C 22.195312 16.214844 21.453125 16.410156 21.015625 16.570312 C 20.570312 17.105469 22.171875 17.539062 22.554688 17.417969 C 22.945312 17.195312 23.078125 17.355469 23.234375 17.226562 C 23.941406 16.640625 23.777344 16.492188 24 16.097656 C 23.761719 16.089844 22.785156 16.054688 22.632812 16.054688 Z M 24.035156 16.101562 L 24.035156 16.101562 " fill-opacity="1" fill-rule="evenodd"/><path fill="#000000" d="M 21 16.828125 C 21.441406 17.003906 22.046875 16.84375 22.527344 16.839844 C 22.015625 16.898438 21.453125 17.121094 20.96875 16.976562 C 20.929688 16.964844 20.90625 16.921875 20.917969 16.878906 C 20.925781 16.839844 20.964844 16.816406 21 16.828125 " fill-opacity="1" fill-rule="evenodd"/><path fill="#000000" d="M 23.914062 16.210938 C 23.742188 16.46875 23.371094 16.542969 23.125 16.679688 C 23.402344 16.578125 23.757812 16.59375 23.964844 16.339844 C 23.980469 16.3125 23.984375 16.261719 23.96875 16.226562 C 23.953125 16.191406 23.929688 16.1875 23.914062 16.210938 " fill-opacity="1" fill-rule="evenodd"/><path fill="#000000" d="M 23.402344 15.425781 C 23.898438 15.550781 25.570312 16.144531 25.898438 15.222656 C 25.984375 14.984375 25.871094 15.261719 25.988281 14.988281 C 26.039062 15.109375 26.046875 15.089844 26.042969 15.226562 C 25.980469 16.492188 23.726562 16.085938 23.210938 16.007812 C 23.066406 15.980469 22.996094 15.828125 23.050781 15.667969 C 23.101562 15.503906 23.261719 15.394531 23.402344 15.425781 " fill-opacity="1" fill-rule="evenodd"/><path fill="#000000" d="M 22.019531 15.609375 C 21.511719 15.863281 19.835938 16.902344 19.257812 15.980469 C 19.109375 15.742188 19.296875 16.015625 19.101562 15.746094 C 19.078125 15.886719 19.0625 15.867188 19.101562 16.015625 C 19.472656 17.378906 21.824219 16.40625 22.367188 16.199219 C 22.515625 16.136719 22.558594 15.953125 22.460938 15.789062 C 22.367188 15.628906 22.167969 15.546875 22.019531 15.609375 " fill-opacity="1" fill-rule="evenodd"/><path fill="#000000" d="M 22.773438 12.511719 C 22.964844 13.410156 23.261719 14.011719 23.1875 14.71875 C 23.183594 14.617188 23.183594 14.476562 23.167969 14.375 C 23.09375 13.824219 22.90625 13.914062 22.773438 12.511719 " fill-opacity="1" fill-rule="evenodd"/><path fill="#000000" d="M 21.539062 14.894531 C 21.265625 15.277344 21.414062 15.402344 21.820312 15.496094 C 21.015625 15.679688 21.042969 15.160156 21.539062 14.894531 " fill-opacity="1" fill-rule="evenodd"/><path fill="#000000" d="M 21.746094 15.253906 C 21.90625 15.269531 22.933594 16.027344 23.246094 15.269531 C 23.234375 15.386719 23.234375 15.4375 23.152344 15.535156 C 22.484375 16.308594 21.964844 15.335938 21.746094 15.253906 " fill-opacity="1" fill-rule="evenodd"/><path fill="#000000" d="M 23.191406 14.605469 C 23.761719 14.707031 23.8125 15.132812 23.375 15.398438 C 23.644531 14.976562 23.550781 14.894531 23.191406 14.605469 " fill-opacity="1" fill-rule="evenodd"/><path fill="#000000" d="M 21.4375 12.808594 C 21.257812 13.429688 20.988281 13.605469 20.386719 13.839844 C 20.871094 13.589844 21.226562 13.3125 21.4375 12.808594 " fill-opacity="1" fill-rule="evenodd"/><path fill="#000000" d="M 23.066406 12.816406 C 23.347656 13.105469 23.851562 13.542969 24.265625 13.589844 C 23.734375 13.589844 23.359375 13.195312 23.066406 12.816406 " fill-opacity="1" fill-rule="evenodd"/><path fill="#000000" d="M 17.167969 14.824219 C 17.070312 15.070312 17.078125 15.34375 17.410156 15.414062 C 17.554688 15.445312 17.613281 15.34375 17.667969 15.234375 C 17.527344 15.714844 16.789062 15.445312 17.167969 14.824219 " fill-opacity="1" fill-rule="evenodd"/><path fill="#000000" d="M 16.253906 13.3125 C 15.96875 12.546875 16.875 12.714844 17.167969 13.578125 C 17.210938 13.703125 17.207031 13.730469 17.253906 13.855469 C 17.234375 13.816406 17.210938 13.773438 17.195312 13.734375 C 16.851562 12.917969 16.050781 12.53125 16.253906 13.3125 " fill-opacity="1" fill-rule="evenodd"/><path fill="#000000" d="M 17.269531 14.058594 C 17.257812 14.191406 17.253906 14.421875 17.238281 14.523438 C 17.234375 14.519531 17.238281 14.523438 17.230469 14.511719 C 17.332031 14.671875 17.390625 14.707031 17.476562 14.828125 C 17.082031 14.488281 17.054688 14.664062 17.269531 14.058594 " fill-opacity="1" fill-rule="evenodd"/><path fill="#000000" d="M 24.199219 11.335938 C 24.613281 11.183594 24.617188 11.195312 25.03125 11.324219 C 24.742188 11.292969 24.488281 11.292969 24.199219 11.335938 " fill-opacity="1" fill-rule="evenodd"/><path fill="#000000" d="M 18.085938 12.03125 C 18.394531 11.363281 18.328125 11.339844 19.210938 11.386719 C 18.382812 11.441406 18.449219 11.4375 18.085938 12.03125 " fill-opacity="1" fill-rule="evenodd"/><path fill="#000000" d="M 21.175781 11.519531 C 21.554688 11.855469 21.511719 12.007812 21.542969 12.503906 C 21.453125 12.109375 21.433594 11.828125 21.175781 11.519531 " fill-opacity="1" fill-rule="evenodd"/><path fill="#000000" d="M 22.765625 12.480469 C 22.671875 12.0625 22.496094 11.804688 22.445312 11.550781 L 22.441406 11.523438 L 22.460938 11.578125 C 22.738281 12.046875 22.738281 11.921875 22.765625 12.480469 " fill-opacity="1" fill-rule="evenodd"/><path fill="#000000" d="M 21.527344 12.257812 C 21.808594 12.832031 21.898438 12.828125 21.765625 13.425781 C 21.796875 12.902344 21.699219 12.761719 21.527344 12.257812 " fill-opacity="1" fill-rule="evenodd"/><path fill="#000000" d="M 22.117188 14.5625 C 22.15625 15.113281 22.117188 15.476562 22.671875 15.652344 C 22.011719 15.53125 22.085938 15.144531 22.117188 14.5625 " fill-opacity="1" fill-rule="evenodd"/><path fill="#000000" d="M 22.078125 14.464844 C 21.90625 13.609375 21.933594 14.035156 21.988281 13.183594 C 22.046875 14.027344 22.019531 13.601562 22.078125 14.464844 " fill-opacity="1" fill-rule="evenodd"/><path fill="#000000" d="M 22.144531 11.335938 C 22.785156 10.800781 23.636719 10.75 24.429688 10.59375 C 23.757812 10.777344 22.679688 10.949219 22.144531 11.335938 " fill-opacity="1" fill-rule="evenodd"/><path fill="#000000" d="M 20.222656 11.203125 C 20.488281 11.109375 21.167969 11.308594 21.410156 11.339844 L 21.988281 11.371094 L 21.40625 11.394531 C 21.074219 11.375 20.464844 11.144531 20.222656 11.203125 " fill-opacity="1" fill-rule="evenodd"/><path fill="#000000" d="M 18.367188 13.085938 C 18.152344 12.285156 17.691406 12.402344 18.058594 11.371094 C 17.808594 12.355469 18.234375 12.296875 18.367188 13.085938 " fill-opacity="1" fill-rule="evenodd"/><path fill="#000000" d="M 24.992188 10.105469 C 24.992188 10.105469 23.488281 5.664062 22.097656 11.175781 C 16.324219 5.691406 16.265625 12.074219 18.394531 13.890625 C 18.171875 14.34375 17.992188 15.273438 18.90625 16.054688 L 17.660156 15.671875 C 18.054688 14.515625 17.316406 13.308594 17.207031 13.085938 C 17.097656 12.859375 16.835938 12.449219 16.503906 12.453125 C 16.167969 12.457031 16.273438 11.585938 16.273438 11.585938 C 15.921875 9.285156 17.949219 7.53125 20.089844 7.132812 C 22.339844 6.71875 24.71875 7.777344 24.992188 10.105469 " fill-opacity="1" fill-rule="evenodd"/><path fill="#000000" d="M 22.53125 18.328125 C 22.53125 18.328125 23.558594 18.671875 23.285156 19.671875 C 23.425781 19.65625 23.652344 18.558594 23.382812 18.25 C 23.160156 17.992188 22.527344 18.28125 22.527344 18.28125 L 22.53125 18.328125 " fill-opacity="1" fill-rule="evenodd"/><path fill="#ffffff" d="M 23.234375 12.839844 C 23.234375 12.839844 23.472656 12.613281 23.820312 12.574219 C 24.167969 12.535156 24.257812 12.472656 24.53125 12.644531 C 23.996094 13.105469 23.492188 13.074219 23.234375 12.839844 " fill-opacity="1" fill-rule="evenodd"/><path fill="#ff8f1d" d="M 23.753906 12.429688 C 23.894531 12.375 24.050781 12.445312 24.105469 12.582031 C 24.160156 12.722656 24.089844 12.875 23.949219 12.929688 C 23.808594 12.984375 23.652344 12.914062 23.601562 12.777344 C 23.546875 12.636719 23.617188 12.480469 23.753906 12.429688 " fill-opacity="1" fill-rule="evenodd"/><path fill="#000000" d="M 23.625 13.027344 C 24.039062 12.902344 24.285156 12.847656 24.617188 12.578125 C 24.265625 12.957031 24.140625 12.949219 23.625 13.027344 " fill-opacity="1" fill-rule="evenodd"/><path fill="#000000" d="M 23.816406 12.5625 C 23.867188 12.542969 23.925781 12.570312 23.949219 12.621094 C 23.96875 12.675781 23.941406 12.730469 23.890625 12.75 C 23.835938 12.773438 23.777344 12.746094 23.757812 12.695312 C 23.738281 12.640625 23.765625 12.585938 23.816406 12.5625 " fill-opacity="1" fill-rule="evenodd"/><path fill="#000000" d="M 23.234375 12.839844 C 23.597656 12.171875 24.265625 12.222656 24.707031 12.726562 C 24.429688 12.53125 23.570312 12.476562 23.234375 12.839844 " fill-opacity="1" fill-rule="evenodd"/><path fill="#ffffff" d="M 19.503906 13.195312 C 19.503906 13.195312 20.1875 12.808594 20.542969 12.90625 C 20.894531 13.003906 21.011719 12.976562 21.210938 13.25 C 20.507812 13.496094 20.265625 13.417969 19.503906 13.195312 " fill-opacity="1" fill-rule="evenodd"/><path fill="#ff8f1d" d="M 20.554688 12.820312 C 20.722656 12.847656 20.835938 13.007812 20.804688 13.171875 C 20.773438 13.335938 20.617188 13.449219 20.449219 13.417969 C 20.28125 13.390625 20.171875 13.230469 20.199219 13.066406 C 20.230469 12.902344 20.390625 12.789062 20.554688 12.820312 " fill-opacity="1" fill-rule="evenodd"/><path fill="#000000" d="M 19.503906 13.195312 C 20.078125 13.300781 20.429688 13.464844 20.980469 13.320312 L 21.007812 13.304688 C 20.574219 13.613281 19.929688 13.324219 19.503906 13.195312 " fill-opacity="1" fill-rule="evenodd"/><path fill="#000000" d="M 20.511719 12.976562 C 20.570312 12.976562 20.617188 13.023438 20.617188 13.082031 C 20.617188 13.140625 20.566406 13.1875 20.507812 13.1875 C 20.449219 13.1875 20.402344 13.140625 20.402344 13.082031 C 20.40625 13.023438 20.453125 12.976562 20.511719 12.976562 " fill-opacity="1" fill-rule="evenodd"/><path fill="#000000" d="M 19.378906 13.230469 C 20.230469 12.722656 20.628906 12.390625 21.261719 13.308594 C 21.265625 13.3125 21.269531 13.316406 21.269531 13.324219 C 21.269531 13.320312 21.269531 13.320312 21.265625 13.316406 C 20.835938 12.714844 19.878906 13.0625 19.378906 13.230469 " fill-opacity="1" fill-rule="evenodd"/><path fill="#bc1823" d="M 23.667969 8.617188 C 23.667969 8.617188 24.914062 8.035156 25.253906 7 C 25.566406 7.484375 25.890625 9.785156 23.878906 10.257812 C 22.804688 9.601562 23.667969 8.617188 23.667969 8.617188 " fill-opacity="1" fill-rule="evenodd"/><path fill="#f32431" d="M 23.667969 8.617188 C 23.667969 8.617188 24.886719 8.046875 25.242188 7.035156 C 25.378906 7.933594 25.152344 9.511719 23.492188 9.910156 C 23.066406 9.300781 23.667969 8.617188 23.667969 8.617188 " fill-opacity="1" fill-rule="evenodd"/><path fill="#ffffff" d="M 23.722656 8.769531 C 23.722656 8.769531 24.007812 8.605469 24.398438 8.363281 C 24.820312 8.097656 25.074219 7.601562 25.242188 7.109375 C 25.242188 7.117188 25.246094 7.125 25.246094 7.132812 C 25.160156 7.90625 24.640625 8.746094 23.59375 8.964844 C 23.660156 8.84375 23.722656 8.769531 23.722656 8.769531 " fill-opacity="1" fill-rule="evenodd"/><path fill="#000000" d="M 23.667969 8.617188 C 24.195312 8.347656 24.78125 7.882812 25.074219 7.359375 C 25.238281 7.0625 25.214844 6.734375 25.390625 7.253906 C 25.816406 8.511719 25.261719 9.976562 23.882812 10.277344 C 23.730469 10.308594 23.382812 9.8125 23.34375 9.589844 C 23.28125 9.242188 23.453125 8.882812 23.667969 8.617188 Z M 23.667969 8.617188 C 23.175781 9.242188 23.238281 9.789062 23.878906 10.238281 L 24.21875 10.128906 C 25.429688 9.632812 25.699219 8.167969 25.253906 7.054688 C 24.894531 7.804688 24.441406 8.242188 23.667969 8.617188 " fill-opacity="1" fill-rule="evenodd"/><path fill="#bc1823" d="M 19 9.171875 C 19 9.171875 17.398438 9.007812 16.671875 8.046875 C 16.484375 8.664062 16.882812 11.203125 19.304688 10.96875 C 20.296875 9.886719 19 9.171875 19 9.171875 " fill-opacity="1" fill-rule="evenodd"/><path fill="#f32431" d="M 19 9.171875 C 19 9.171875 17.433594 9.011719 16.695312 8.078125 C 16.839844 9.070312 17.621094 10.648438 19.628906 10.460938 C 19.902344 9.667969 19 9.171875 19 9.171875 " fill-opacity="1" fill-rule="evenodd"/><path fill="#ffffff" d="M 18.988281 9.347656 C 18.988281 9.347656 18.609375 9.28125 18.09375 9.164062 C 17.523438 9.039062 17.074219 8.609375 16.722656 8.15625 C 16.722656 8.164062 16.726562 8.175781 16.726562 8.183594 C 17.082031 8.960938 17.945312 9.65625 19.199219 9.503906 C 19.082031 9.40625 18.988281 9.347656 18.988281 9.347656 " fill-opacity="1" fill-rule="evenodd"/><path fill="#000000" d="M 19 9.171875 C 18.3125 9.078125 17.5 8.800781 16.996094 8.355469 C 16.710938 8.101562 16.628906 7.75 16.601562 8.359375 C 16.542969 9.839844 17.652344 11.175781 19.308594 10.988281 C 19.488281 10.96875 19.714844 10.320312 19.6875 10.070312 C 19.640625 9.683594 19.328125 9.367188 19 9.171875 Z M 19 9.171875 C 19.761719 9.648438 19.871094 10.242188 19.296875 10.945312 L 18.878906 10.957031 C 17.347656 10.875 16.558594 9.433594 16.691406 8.101562 C 17.34375 8.761719 18.003906 9.054688 19 9.171875 " fill-opacity="1" fill-rule="evenodd"/></svg>