<svg xmlns="http://www.w3.org/2000/svg" xmlns:xlink="http://www.w3.org/1999/xlink" width="60" zoomAndPan="magnify" viewBox="0 0 45 44.999999" height="60" preserveAspectRatio="xMidYMid meet" version="1.0"><defs><clipPath id="2d13c38a9d"><path d="M 12.183594 14 L 33.183594 14 L 33.183594 38.785156 L 12.183594 38.785156 Z M 12.183594 14 " clip-rule="nonzero"/></clipPath><clipPath id="79fb1a4184"><path d="M 19 6.535156 L 29 6.535156 L 29 18 L 19 18 Z M 19 6.535156 " clip-rule="nonzero"/></clipPath><clipPath id="bfbc1beab0"><path d="M 20 6.535156 L 29 6.535156 L 29 13 L 20 13 Z M 20 6.535156 " clip-rule="nonzero"/></clipPath><clipPath id="afbffacdc8"><path d="M 26 27 L 28 27 L 28 38.785156 L 26 38.785156 Z M 26 27 " clip-rule="nonzero"/></clipPath></defs><rect x="-4.5" width="54" fill="#ffffff" y="-4.5" height="53.999999" fill-opacity="1"/><rect x="-4.5" width="54" fill="#ffffff" y="-4.5" height="53.999999" fill-opacity="1"/><g clip-path="url(#2d13c38a9d)"><path fill="#26071a" d="M 19.234375 14.203125 C 19.234375 14.203125 16.714844 14.714844 15.222656 18.902344 C 13.726562 23.089844 12.699219 26.835938 12.390625 31.363281 C 12.183594 34.398438 12.648438 38.765625 12.648438 38.765625 L 33.183594 38.765625 C 33.183594 38.765625 31.28125 36.667969 30.730469 33.375 C 30.40625 31.445312 30.785156 27.117188 30.777344 24.957031 C 30.765625 21.433594 30.421875 19.429688 29.390625 17.929688 C 28.230469 16.242188 27.476562 16.042969 24.808594 15.0625 C 22.136719 14.078125 19.234375 14.203125 19.234375 14.203125 Z M 19.234375 14.203125 " fill-opacity="1" fill-rule="nonzero"/></g><path fill="#26071a" d="M 18.632812 12.910156 L 18.410156 12.378906 C 18.410156 12.378906 20.316406 11.402344 21.808594 11.53125 C 23.300781 11.660156 26.828125 13.359375 28.214844 14.023438 C 29.605469 14.6875 30.199219 15.84375 30.121094 15.714844 C 30.042969 15.582031 28.261719 15.371094 27.066406 16.988281 C 25.875 18.601562 24.128906 19.414062 23.019531 19.132812 C 22.03125 18.882812 19.597656 17.136719 19.242188 15.058594 C 19.113281 14.324219 18.921875 13.601562 18.632812 12.910156 Z M 18.632812 12.910156 " fill-opacity="1" fill-rule="nonzero"/><g clip-path="url(#79fb1a4184)"><path fill="#e00018" d="M 25.109375 17.5 C 24.652344 17.5 23.839844 17.230469 23.492188 16.726562 C 23.367188 16.542969 23.074219 16.316406 22.765625 16.082031 C 22.222656 15.664062 21.609375 15.195312 21.539062 14.675781 C 21.492188 14.320312 21.449219 14.054688 21.421875 13.875 C 21.355469 13.960938 21.265625 14.027344 21.144531 14.027344 C 21.082031 14.027344 21.011719 14.007812 20.945312 13.960938 C 20.550781 13.699219 20.410156 13.316406 20.273438 12.945312 C 20.203125 12.761719 20.136719 12.585938 20.042969 12.429688 C 19.796875 12.035156 19.769531 11.453125 19.769531 11.222656 C 19.769531 11.125 19.84375 11.039062 19.945312 11.03125 C 20.015625 11.023438 20.082031 11.019531 20.148438 11.019531 C 20.335938 11.019531 20.484375 11.050781 20.585938 11.101562 L 20.644531 11.132812 C 20.613281 10.742188 20.597656 9.820312 21.015625 9 C 21.527344 8.003906 22.574219 6.933594 23.980469 6.933594 C 24.09375 6.933594 24.210938 6.941406 24.324219 6.957031 C 25.855469 7.140625 27.394531 7.992188 27.683594 8.472656 C 27.777344 8.628906 27.703125 8.980469 27.667969 9.117188 C 28.042969 9.753906 28.011719 9.855469 27.992188 9.902344 C 27.984375 9.9375 28.015625 10.058594 28.039062 10.148438 C 28.117188 10.441406 28.226562 10.847656 28.023438 11.128906 C 27.921875 11.273438 27.800781 11.433594 27.683594 11.578125 C 27.660156 11.886719 27.59375 12.039062 27.519531 12.203125 C 27.441406 12.378906 27.355469 12.578125 27.292969 13.042969 L 27.289062 13.070312 C 27.167969 14.03125 27.027344 15.117188 26.503906 15.828125 C 26.082031 16.402344 25.9375 16.609375 25.898438 16.660156 C 25.871094 16.785156 25.710938 17.394531 25.296875 17.484375 C 25.242188 17.496094 25.179688 17.5 25.109375 17.5 Z M 25.109375 17.5 " fill-opacity="1" fill-rule="nonzero"/><path fill="#26071a" d="M 23.980469 7.035156 C 24.089844 7.035156 24.199219 7.039062 24.3125 7.054688 C 25.859375 7.242188 27.339844 8.097656 27.597656 8.523438 C 27.6875 8.671875 27.5625 9.128906 27.5625 9.128906 C 27.5625 9.128906 27.945312 9.773438 27.898438 9.863281 C 27.832031 10 28.210938 10.695312 27.941406 11.070312 C 27.835938 11.222656 27.707031 11.394531 27.585938 11.539062 C 27.546875 12.191406 27.3125 12.113281 27.195312 13.027344 C 27.074219 13.964844 26.9375 15.070312 26.421875 15.769531 C 25.910156 16.46875 25.804688 16.621094 25.804688 16.621094 C 25.804688 16.621094 25.667969 17.300781 25.273438 17.386719 C 25.226562 17.398438 25.171875 17.402344 25.109375 17.402344 C 24.660156 17.402344 23.890625 17.136719 23.574219 16.671875 C 23.214844 16.144531 21.738281 15.429688 21.636719 14.664062 C 21.535156 13.898438 21.464844 13.558594 21.464844 13.558594 C 21.464844 13.558594 21.363281 13.929688 21.144531 13.929688 C 21.101562 13.929688 21.054688 13.914062 21.003906 13.878906 C 20.441406 13.503906 20.417969 12.855469 20.128906 12.378906 C 19.894531 12 19.871094 11.433594 19.867188 11.222656 C 19.867188 11.175781 19.90625 11.132812 19.953125 11.128906 C 20.003906 11.125 20.074219 11.121094 20.148438 11.121094 C 20.28125 11.121094 20.433594 11.136719 20.539062 11.191406 C 20.761719 11.308594 20.761719 11.308594 20.761719 11.308594 C 20.761719 11.308594 20.574219 10.085938 21.105469 9.046875 C 21.597656 8.082031 22.605469 7.035156 23.980469 7.035156 M 23.980469 6.835938 C 22.53125 6.835938 21.453125 7.929688 20.925781 8.957031 C 20.546875 9.695312 20.515625 10.515625 20.535156 10.972656 C 20.429688 10.941406 20.300781 10.921875 20.148438 10.921875 C 20.082031 10.921875 20.007812 10.925781 19.933594 10.933594 C 19.785156 10.945312 19.667969 11.070312 19.667969 11.222656 C 19.671875 11.460938 19.699219 12.0625 19.957031 12.484375 C 20.046875 12.628906 20.109375 12.800781 20.179688 12.980469 C 20.316406 13.347656 20.46875 13.761719 20.890625 14.042969 C 20.972656 14.101562 21.058594 14.128906 21.144531 14.128906 C 21.226562 14.128906 21.292969 14.105469 21.351562 14.070312 C 21.375 14.234375 21.40625 14.4375 21.441406 14.6875 C 21.515625 15.246094 22.148438 15.730469 22.703125 16.160156 C 23.007812 16.390625 23.292969 16.609375 23.410156 16.78125 C 23.792969 17.339844 24.648438 17.601562 25.109375 17.601562 C 25.183594 17.601562 25.253906 17.59375 25.316406 17.582031 C 25.773438 17.480469 25.949219 16.878906 25.992188 16.699219 C 26.042969 16.628906 26.195312 16.414062 26.585938 15.886719 C 27.125 15.15625 27.265625 14.054688 27.390625 13.085938 L 27.394531 13.054688 C 27.449219 12.605469 27.535156 12.414062 27.613281 12.242188 C 27.683594 12.078125 27.753906 11.921875 27.78125 11.617188 C 27.890625 11.476562 28.007812 11.324219 28.105469 11.1875 C 28.332031 10.867188 28.214844 10.417969 28.136719 10.121094 C 28.121094 10.054688 28.09375 9.964844 28.089844 9.921875 C 28.121094 9.84375 28.121094 9.695312 27.777344 9.101562 C 27.820312 8.910156 27.875 8.59375 27.769531 8.421875 C 27.46875 7.921875 25.894531 7.046875 24.335938 6.859375 C 24.21875 6.84375 24.097656 6.835938 23.980469 6.835938 Z M 23.980469 6.835938 " fill-opacity="1" fill-rule="nonzero"/></g><path fill="#930621" d="M 25.886719 15.636719 C 25.832031 15.625 25.578125 15.71875 25.578125 15.71875 C 25.578125 15.71875 25.578125 15.71875 25.511719 15.632812 C 25.441406 15.546875 25.359375 15.503906 25.027344 15.546875 C 24.691406 15.589844 24.390625 15.777344 24.390625 15.777344 C 24.390625 15.777344 24.578125 15.792969 24.808594 15.816406 C 24.679688 15.773438 24.621094 15.796875 24.621094 15.796875 C 24.621094 15.796875 24.652344 15.976562 24.742188 16.085938 C 24.832031 16.195312 25.0625 16.296875 25.390625 16.1875 C 25.71875 16.082031 25.765625 16.214844 25.835938 16.097656 C 25.875 16.035156 25.871094 15.941406 25.859375 15.875 C 25.980469 15.851562 26.054688 15.816406 26.066406 15.8125 C 26.089844 15.808594 25.941406 15.652344 25.886719 15.636719 Z M 25.886719 15.636719 " fill-opacity="1" fill-rule="nonzero"/><path fill="#ff6700" d="M 25.773438 13.710938 C 25.773438 13.726562 25.777344 13.800781 25.789062 13.8125 C 25.722656 13.757812 25.65625 13.703125 25.59375 13.648438 C 25.613281 13.703125 25.628906 13.761719 25.636719 13.820312 C 25.605469 13.804688 25.589844 13.765625 25.554688 13.757812 C 25.542969 13.753906 25.53125 13.753906 25.519531 13.753906 C 25.496094 13.757812 25.476562 13.757812 25.457031 13.757812 C 25.425781 13.816406 25.398438 13.863281 25.390625 13.871094 C 25.359375 13.902344 25.34375 13.9375 25.195312 14.066406 C 25.042969 14.191406 25.097656 14.417969 25.097656 14.417969 C 25.097656 14.417969 25.078125 14.4375 24.902344 14.664062 C 24.730469 14.890625 24.023438 15.5625 24.007812 15.5625 C 23.996094 15.5625 24.011719 14.976562 24.023438 14.683594 C 24.03125 14.390625 23.902344 13.230469 23.902344 13.230469 C 23.902344 13.230469 24.058594 13.035156 24.207031 13.085938 C 24.351562 13.136719 25.027344 12.765625 25.292969 12.808594 C 25.558594 12.851562 25.671875 13.355469 25.671875 13.355469 C 25.671875 13.355469 25.671875 13.363281 25.667969 13.367188 C 25.675781 13.382812 25.683594 13.402344 25.691406 13.417969 C 25.714844 13.484375 25.734375 13.546875 25.75 13.613281 C 25.757812 13.648438 25.765625 13.679688 25.773438 13.710938 Z M 24.269531 17.113281 C 24.375 17.289062 25.046875 17.347656 25.050781 17.351562 C 25.050781 17.355469 24.789062 17.335938 24.601562 17.320312 C 24.691406 17.347656 24.78125 17.367188 24.863281 17.378906 C 24.945312 17.390625 25.03125 17.398438 25.117188 17.402344 C 25.175781 17.402344 25.230469 17.398438 25.273438 17.386719 C 25.503906 17.335938 25.648438 17.085938 25.726562 16.882812 C 25.628906 16.859375 25.242188 16.773438 24.914062 16.777344 C 24.535156 16.78125 24.25 17.082031 24.269531 17.113281 Z M 24.902344 15.515625 C 25.234375 15.480469 25.433594 15.449219 25.433594 15.449219 C 25.433594 15.449219 25.535156 14.988281 25.53125 14.84375 C 25.527344 14.699219 25.519531 14.644531 25.519531 14.644531 L 25.261719 14.511719 C 25.261719 14.511719 24.945312 14.832031 24.753906 15.023438 C 24.566406 15.210938 24.460938 15.261719 24.382812 15.425781 C 24.304688 15.59375 24.207031 15.8125 24.269531 15.78125 C 24.332031 15.75 24.570312 15.546875 24.902344 15.515625 Z M 27.160156 13.230469 C 27.152344 13.082031 27.152344 13.082031 27.152344 13.082031 L 27.160156 12.921875 C 27.160156 12.921875 27.019531 13.015625 26.828125 13.011719 C 26.636719 13.007812 26.617188 13.011719 26.617188 13.011719 L 26.792969 13.570312 L 26.953125 14.378906 C 26.953125 14.378906 27.167969 13.382812 27.160156 13.230469 Z M 26.464844 14.457031 C 26.4375 14.453125 26.414062 14.453125 26.390625 14.464844 C 26.363281 14.476562 26.34375 14.496094 26.328125 14.515625 C 26.300781 14.554688 26.28125 14.605469 26.28125 14.65625 C 26.28125 14.699219 26.289062 14.742188 26.289062 14.785156 C 26.285156 14.867188 26.246094 14.945312 26.257812 15.027344 C 26.332031 15.007812 26.394531 14.957031 26.449219 14.898438 C 26.523438 14.8125 26.679688 14.652344 26.597656 14.527344 C 26.570312 14.480469 26.515625 14.460938 26.464844 14.457031 Z M 26.070312 14.972656 C 26.070312 14.972656 25.902344 15.265625 25.917969 15.386719 C 25.9375 15.507812 25.953125 15.550781 25.953125 15.550781 L 26.203125 15.808594 C 26.203125 15.808594 26.289062 15.578125 26.285156 15.394531 C 26.28125 15.210938 26.300781 15.0625 26.300781 15.0625 C 26.300781 15.0625 26.171875 15.035156 26.070312 14.972656 Z M 26.070312 14.972656 " fill-opacity="1" fill-rule="nonzero"/><path fill="#930621" d="M 23.800781 12.523438 C 23.832031 12.535156 23.851562 12.542969 23.851562 12.542969 C 23.851562 12.542969 23.839844 12.53125 23.800781 12.523438 Z M 23.800781 12.523438 " fill-opacity="1" fill-rule="nonzero"/><path fill="#930621" d="M 23.261719 12.628906 C 23.578125 12.519531 23.730469 12.515625 23.800781 12.523438 C 23.652344 12.472656 23.234375 12.328125 23.328125 12.3125 C 23.4375 12.296875 23.6875 12.230469 23.894531 12.148438 C 24.097656 12.066406 25.527344 12.171875 25.527344 12.171875 C 25.527344 12.171875 25.410156 12 25.144531 11.839844 C 24.878906 11.675781 24.628906 11.359375 24.628906 11.359375 C 24.628906 11.359375 24.960938 11.476562 24.941406 11.421875 C 24.921875 11.371094 24.75 11.046875 24.75 11.046875 L 25.089844 11.238281 L 24.78125 10.792969 C 24.78125 10.792969 24.820312 10.792969 25.308594 11.039062 C 25.796875 11.28125 26.519531 11.40625 27.355469 11.089844 C 28.195312 10.769531 27.730469 9.382812 27.703125 9.316406 C 27.210938 8.195312 26.582031 8.648438 26.183594 8.40625 C 25.785156 8.164062 23.609375 7.960938 22.097656 8.484375 C 21.765625 8.597656 21.441406 8.773438 21.144531 8.972656 C 21.132812 8.996094 21.117188 9.019531 21.105469 9.046875 C 20.574219 10.085938 20.761719 11.308594 20.761719 11.308594 C 20.761719 11.308594 20.761719 11.308594 20.539062 11.191406 C 20.375 11.105469 20.09375 11.117188 19.953125 11.128906 C 19.90625 11.132812 19.867188 11.175781 19.867188 11.222656 C 19.871094 11.433594 19.894531 12 20.128906 12.378906 C 20.417969 12.855469 20.441406 13.503906 21.003906 13.878906 C 21.320312 14.09375 21.464844 13.558594 21.464844 13.558594 C 21.464844 13.558594 21.523438 13.847656 21.613281 14.496094 L 21.675781 14.535156 C 21.675781 14.535156 22.761719 12.800781 23.261719 12.628906 Z M 23.261719 12.628906 " fill-opacity="1" fill-rule="nonzero"/><g clip-path="url(#bfbc1beab0)"><path fill="#26071a" d="M 27.429688 9.019531 C 27.429688 9.019531 26.980469 9.710938 26.582031 9.953125 C 26.582031 9.953125 26.582031 9.722656 25.808594 9.402344 C 25.039062 9.085938 24.820312 8.945312 24.972656 9.019531 C 25.128906 9.097656 25.566406 9.484375 25.527344 9.476562 C 25.488281 9.46875 24.496094 9.082031 24.164062 9 C 23.828125 8.917969 23.109375 9.222656 22.839844 9.554688 C 22.566406 9.886719 21.875 10.667969 22.105469 10.628906 C 22.335938 10.589844 22.953125 10.375 22.863281 10.4375 C 22.773438 10.5 22.058594 10.910156 22.058594 10.910156 L 22.652344 10.910156 C 22.625 10.90625 22.601562 10.933594 22.578125 10.945312 C 22.488281 10.992188 22.398438 11.042969 22.308594 11.089844 L 23.320312 11.132812 C 23.320312 11.132812 22.960938 11.714844 22.566406 11.839844 C 22.175781 11.96875 22.144531 11.976562 22.144531 11.976562 C 22.144531 11.976562 22.386719 12.199219 22.226562 12.453125 C 22.066406 12.710938 21.96875 12.953125 21.96875 12.953125 L 21.488281 12.855469 C 21.488281 12.855469 21.710938 12.378906 21.402344 11.988281 C 21.09375 11.597656 20.667969 11.265625 20.449219 11.15625 C 20.449219 11.15625 20.1875 7.652344 22.8125 7.105469 C 25.4375 6.554688 27.019531 7.910156 27.355469 8.175781 C 27.6875 8.445312 27.726562 9.058594 27.726562 9.058594 C 27.726562 9.058594 28.085938 9.414062 28.101562 9.710938 C 28.113281 10.003906 28.140625 10.484375 28.140625 10.484375 C 28.140625 10.484375 28.21875 10.867188 27.585938 11.539062 C 27.574219 11.472656 28.039062 10.117188 27.429688 9.019531 Z M 27.429688 9.019531 " fill-opacity="1" fill-rule="nonzero"/></g><path fill="#26071a" d="M 26.808594 12.167969 C 26.796875 12.183594 26.777344 12.210938 26.765625 12.234375 L 26.726562 12.3125 C 26.699219 12.367188 26.671875 12.417969 26.648438 12.472656 C 26.597656 12.578125 26.550781 12.6875 26.515625 12.796875 C 26.503906 12.824219 26.496094 12.851562 26.492188 12.878906 C 26.484375 12.902344 26.480469 12.933594 26.488281 12.941406 C 26.519531 12.996094 26.542969 13.050781 26.566406 13.105469 C 26.609375 13.214844 26.648438 13.328125 26.675781 13.445312 C 26.683594 13.507812 26.695312 13.566406 26.695312 13.628906 C 26.699219 13.6875 26.679688 13.753906 26.671875 13.804688 C 26.660156 13.917969 26.675781 14.035156 26.6875 14.152344 C 26.699219 14.269531 26.710938 14.386719 26.699219 14.511719 C 26.691406 14.570312 26.675781 14.632812 26.648438 14.6875 C 26.621094 14.742188 26.589844 14.792969 26.554688 14.84375 C 26.519531 14.894531 26.484375 14.941406 26.4375 14.984375 C 26.394531 15.027344 26.34375 15.070312 26.273438 15.085938 C 26.242188 15.09375 26.203125 15.097656 26.171875 15.082031 C 26.136719 15.074219 26.105469 15.050781 26.082031 15.027344 C 26.039062 14.988281 26 14.949219 25.953125 14.914062 C 25.863281 14.84375 25.753906 14.800781 25.648438 14.746094 L 25.332031 14.585938 C 25.277344 14.558594 25.226562 14.527344 25.175781 14.496094 C 25.125 14.464844 25.070312 14.429688 25.035156 14.363281 C 25.019531 14.332031 25.011719 14.289062 25.023438 14.257812 C 25.03125 14.222656 25.050781 14.191406 25.066406 14.167969 C 25.105469 14.117188 25.144531 14.074219 25.1875 14.03125 C 25.230469 13.988281 25.277344 13.945312 25.328125 13.914062 C 25.355469 13.898438 25.382812 13.882812 25.417969 13.875 C 25.449219 13.863281 25.484375 13.863281 25.519531 13.871094 C 25.554688 13.882812 25.582031 13.902344 25.605469 13.921875 C 25.628906 13.941406 25.648438 13.964844 25.671875 13.988281 C 25.710938 14.03125 25.75 14.078125 25.78125 14.128906 C 25.789062 14.136719 25.789062 14.152344 25.777344 14.15625 C 25.769531 14.164062 25.753906 14.160156 25.746094 14.152344 C 25.714844 14.105469 25.675781 14.0625 25.632812 14.019531 C 25.613281 14 25.59375 13.980469 25.570312 13.964844 C 25.546875 13.945312 25.523438 13.929688 25.503906 13.925781 C 25.460938 13.910156 25.40625 13.933594 25.359375 13.960938 C 25.3125 13.992188 25.269531 14.03125 25.230469 14.070312 C 25.191406 14.113281 25.152344 14.160156 25.117188 14.203125 C 25.085938 14.246094 25.070312 14.296875 25.09375 14.335938 C 25.117188 14.375 25.160156 14.410156 25.210938 14.441406 C 25.257812 14.472656 25.308594 14.5 25.363281 14.527344 L 25.679688 14.6875 C 25.78125 14.742188 25.894531 14.789062 25.992188 14.863281 C 26.042969 14.898438 26.085938 14.941406 26.128906 14.984375 C 26.164062 15.019531 26.210938 15.035156 26.261719 15.023438 C 26.308594 15.015625 26.355469 14.980469 26.394531 14.941406 C 26.433594 14.902344 26.46875 14.855469 26.503906 14.808594 C 26.535156 14.761719 26.5625 14.710938 26.589844 14.660156 C 26.613281 14.613281 26.628906 14.558594 26.636719 14.503906 C 26.648438 14.390625 26.636719 14.273438 26.625 14.15625 C 26.613281 14.039062 26.597656 13.921875 26.613281 13.796875 C 26.621094 13.734375 26.636719 13.683594 26.636719 13.628906 C 26.636719 13.570312 26.625 13.515625 26.617188 13.457031 C 26.59375 13.347656 26.554688 13.234375 26.511719 13.128906 C 26.488281 13.074219 26.464844 13.019531 26.4375 12.972656 L 26.433594 12.96875 L 26.429688 12.957031 C 26.429688 12.949219 26.425781 12.945312 26.425781 12.941406 C 26.425781 12.929688 26.425781 12.921875 26.425781 12.910156 C 26.429688 12.894531 26.429688 12.878906 26.433594 12.863281 C 26.441406 12.835938 26.449219 12.804688 26.460938 12.777344 C 26.5 12.664062 26.546875 12.554688 26.597656 12.449219 C 26.621094 12.394531 26.648438 12.339844 26.675781 12.289062 L 26.71875 12.210938 L 26.738281 12.171875 C 26.75 12.15625 26.753906 12.144531 26.769531 12.128906 C 26.777344 12.117188 26.796875 12.117188 26.808594 12.125 C 26.820312 12.136719 26.820312 12.152344 26.8125 12.164062 Z M 26.808594 12.167969 " fill-opacity="1" fill-rule="nonzero"/><path fill="#26071a" d="M 24.199219 15.769531 C 24.242188 15.671875 24.28125 15.570312 24.328125 15.472656 C 24.351562 15.425781 24.375 15.375 24.398438 15.328125 C 24.414062 15.304688 24.425781 15.277344 24.441406 15.253906 C 24.457031 15.230469 24.480469 15.207031 24.5 15.191406 C 24.582031 15.117188 24.667969 15.054688 24.75 14.984375 C 24.789062 14.949219 24.832031 14.914062 24.867188 14.875 C 24.90625 14.835938 24.941406 14.804688 24.988281 14.765625 C 25 14.757812 25.011719 14.757812 25.019531 14.769531 C 25.027344 14.777344 25.023438 14.785156 25.019531 14.792969 L 25.015625 14.800781 C 24.953125 14.875 24.878906 14.964844 24.792969 15.035156 L 24.546875 15.238281 C 24.523438 15.257812 24.507812 15.273438 24.496094 15.292969 C 24.480469 15.3125 24.46875 15.335938 24.453125 15.355469 C 24.429688 15.402344 24.40625 15.449219 24.382812 15.5 C 24.335938 15.59375 24.292969 15.695312 24.25 15.789062 L 24.25 15.792969 C 24.246094 15.804688 24.230469 15.8125 24.214844 15.808594 C 24.199219 15.800781 24.195312 15.785156 24.199219 15.769531 Z M 24.199219 15.769531 " fill-opacity="1" fill-rule="nonzero"/><path fill="#26071a" d="M 26 14.90625 C 25.933594 15.003906 25.867188 15.101562 25.808594 15.203125 C 25.78125 15.242188 25.785156 15.296875 25.785156 15.355469 C 25.785156 15.410156 25.792969 15.46875 25.792969 15.527344 C 25.792969 15.539062 25.785156 15.550781 25.769531 15.550781 C 25.761719 15.550781 25.753906 15.542969 25.75 15.535156 C 25.730469 15.476562 25.71875 15.417969 25.71875 15.359375 C 25.714844 15.328125 25.714844 15.296875 25.71875 15.265625 C 25.722656 15.25 25.726562 15.230469 25.730469 15.214844 C 25.738281 15.199219 25.746094 15.179688 25.753906 15.167969 C 25.816406 15.066406 25.886719 14.972656 25.957031 14.875 C 25.964844 14.863281 25.980469 14.859375 25.992188 14.867188 C 26.003906 14.878906 26.007812 14.894531 26 14.90625 Z M 26 14.90625 " fill-opacity="1" fill-rule="nonzero"/><path fill="#26071a" d="M 20.046875 11.226562 C 20.054688 11.230469 20.070312 11.234375 20.074219 11.238281 L 20.089844 11.246094 L 20.117188 11.261719 L 20.292969 11.367188 C 20.367188 11.414062 20.441406 11.460938 20.515625 11.515625 C 20.585938 11.566406 20.660156 11.621094 20.726562 11.679688 C 20.761719 11.710938 20.792969 11.742188 20.824219 11.777344 C 20.855469 11.8125 20.878906 11.851562 20.894531 11.898438 C 20.898438 11.910156 20.894531 11.921875 20.882812 11.925781 C 20.875 11.929688 20.863281 11.925781 20.859375 11.917969 L 20.855469 11.914062 C 20.8125 11.847656 20.746094 11.789062 20.683594 11.730469 C 20.617188 11.671875 20.546875 11.621094 20.476562 11.566406 C 20.40625 11.515625 20.332031 11.464844 20.257812 11.414062 L 20.148438 11.34375 L 20.089844 11.308594 L 20.0625 11.292969 L 20.046875 11.285156 C 20.042969 11.28125 20.046875 11.285156 20.046875 11.28125 L 20.035156 11.238281 C 20.03125 11.234375 20.035156 11.230469 20.042969 11.226562 C 20.042969 11.226562 20.042969 11.226562 20.046875 11.226562 Z M 20.046875 11.226562 " fill-opacity="1" fill-rule="nonzero"/><path fill="#26071a" d="M 21.03125 12.398438 C 20.988281 12.441406 20.945312 12.488281 20.910156 12.539062 C 20.871094 12.585938 20.835938 12.640625 20.820312 12.691406 C 20.816406 12.71875 20.816406 12.738281 20.828125 12.753906 C 20.84375 12.777344 20.867188 12.796875 20.890625 12.816406 C 20.9375 12.851562 20.988281 12.882812 21.042969 12.921875 C 21.070312 12.941406 21.097656 12.960938 21.121094 12.992188 C 21.144531 13.023438 21.15625 13.058594 21.160156 13.089844 C 21.175781 13.15625 21.175781 13.222656 21.171875 13.285156 C 21.171875 13.351562 21.160156 13.414062 21.140625 13.480469 C 21.121094 13.542969 21.09375 13.597656 21.070312 13.65625 C 21.066406 13.667969 21.050781 13.671875 21.042969 13.667969 C 21.03125 13.664062 21.027344 13.652344 21.027344 13.640625 C 21.042969 13.582031 21.066406 13.519531 21.082031 13.460938 C 21.09375 13.402344 21.101562 13.34375 21.105469 13.28125 C 21.109375 13.222656 21.109375 13.160156 21.097656 13.105469 C 21.089844 13.078125 21.082031 13.050781 21.066406 13.03125 C 21.050781 13.011719 21.027344 12.992188 21.003906 12.972656 C 20.957031 12.9375 20.902344 12.90625 20.847656 12.863281 C 20.824219 12.84375 20.800781 12.820312 20.777344 12.789062 C 20.769531 12.777344 20.757812 12.75 20.757812 12.730469 C 20.753906 12.722656 20.757812 12.710938 20.757812 12.703125 C 20.757812 12.691406 20.761719 12.683594 20.761719 12.675781 C 20.785156 12.605469 20.824219 12.554688 20.863281 12.503906 C 20.902344 12.453125 20.945312 12.40625 20.992188 12.359375 C 21.003906 12.351562 21.019531 12.351562 21.03125 12.359375 C 21.042969 12.371094 21.042969 12.386719 21.03125 12.398438 Z M 21.03125 12.398438 " fill-opacity="1" fill-rule="nonzero"/><path fill="#26071a" d="M 26.683594 12.332031 C 26.695312 12.3125 26.886719 12.203125 27.085938 12.027344 C 27.28125 11.855469 27.433594 11.8125 27.433594 11.8125 C 27.433594 11.8125 27.359375 12.34375 27.351562 12.546875 C 27.339844 12.75 27.175781 13.191406 27.175781 13.191406 C 27.175781 13.191406 27.007812 13.277344 27.015625 13.261719 C 27.023438 13.25 27.105469 12.972656 27.105469 12.972656 C 27.105469 12.972656 26.988281 13.058594 26.816406 13.042969 C 26.648438 13.023438 26.625 13.019531 26.625 13.019531 L 26.917969 13.65625 C 26.917969 13.65625 26.609375 13.464844 26.625 13.449219 C 26.640625 13.433594 26.644531 13.320312 26.535156 13.105469 C 26.421875 12.886719 26.417969 12.871094 26.417969 12.871094 Z M 26.683594 12.332031 " fill-opacity="1" fill-rule="nonzero"/><path fill="#26071a" d="M 24.464844 11.542969 C 24.464844 11.542969 25.058594 12.027344 25.445312 12.148438 C 25.828125 12.269531 26.039062 12.222656 26.132812 12.160156 C 26.25 12.078125 26.449219 11.664062 26.449219 11.632812 C 26.449219 11.597656 26.433594 12.261719 26.253906 12.511719 C 26.074219 12.761719 25.367188 12.570312 25.367188 12.570312 L 25.808594 13.328125 C 25.808594 13.328125 25.21875 13.035156 25.097656 13.023438 C 24.972656 13.011719 24.636719 13.042969 24.273438 12.871094 C 23.90625 12.695312 23.519531 12.148438 23.519531 12.148438 C 23.519531 12.148438 23.75 11.929688 24.023438 11.9375 C 24.296875 11.945312 24.496094 11.910156 24.496094 11.910156 L 24.273438 11.542969 L 24.273438 11.300781 Z M 24.464844 11.542969 " fill-opacity="1" fill-rule="nonzero"/><path fill="#f5dacf" d="M 24.09375 12.3125 C 24.09375 12.3125 24.609375 12.492188 25.21875 12.707031 C 25.21875 12.707031 24.96875 12.988281 24.558594 12.871094 C 24.144531 12.757812 24.09375 12.3125 24.09375 12.3125 Z M 24.09375 12.3125 " fill-opacity="1" fill-rule="nonzero"/><path fill="#f5dacf" d="M 26.828125 12.625 C 26.828125 12.625 26.847656 12.796875 26.804688 12.863281 C 26.757812 12.929688 26.742188 12.953125 26.742188 12.953125 C 26.742188 12.953125 26.984375 12.96875 27.066406 12.746094 C 27.066406 12.722656 27.011719 12.566406 26.828125 12.625 Z M 26.828125 12.625 " fill-opacity="1" fill-rule="nonzero"/><path fill="#26071a" d="M 24.808594 12.5625 C 24.808594 12.628906 24.78125 12.6875 24.734375 12.734375 C 24.683594 12.785156 24.625 12.808594 24.558594 12.808594 C 24.488281 12.808594 24.429688 12.785156 24.382812 12.734375 C 24.332031 12.6875 24.308594 12.628906 24.308594 12.5625 C 24.308594 12.492188 24.332031 12.433594 24.382812 12.386719 C 24.429688 12.339844 24.488281 12.3125 24.558594 12.3125 C 24.625 12.3125 24.683594 12.339844 24.734375 12.386719 C 24.78125 12.433594 24.808594 12.492188 24.808594 12.5625 Z M 24.808594 12.5625 " fill-opacity="1" fill-rule="nonzero"/><path fill="#26071a" d="M 21.101562 14.023438 L 23.636719 14.824219 C 23.636719 14.824219 23.726562 16.84375 24.09375 17.113281 C 24.460938 17.382812 24.984375 17.765625 24.984375 17.765625 C 24.984375 17.765625 23.148438 18.46875 22.347656 17.765625 C 21.550781 17.0625 21.101562 14.023438 21.101562 14.023438 Z M 21.101562 14.023438 " fill-opacity="1" fill-rule="nonzero"/><path fill="#e00018" d="M 28.578125 22.515625 L 27.675781 21.851562 C 27.675781 21.851562 27.429688 22.664062 27.097656 23.808594 C 26.761719 24.953125 26.898438 25.347656 26.777344 26.445312 C 26.660156 27.546875 26.621094 28.035156 26.621094 27.988281 C 26.621094 27.941406 28.332031 23.460938 28.578125 22.515625 Z M 28.578125 22.515625 " fill-opacity="1" fill-rule="nonzero"/><path fill="#ff6700" d="M 26.9375 24.460938 C 26.9375 24.460938 26.398438 26.550781 26.347656 27.023438 C 26.300781 27.492188 26.328125 30.304688 26.328125 30.304688 C 26.328125 30.304688 26.574219 28.40625 26.722656 27.988281 C 26.90625 27.460938 27.125 26.617188 27.125 26.617188 C 27.125 26.617188 26.910156 26.136719 26.9375 24.460938 Z M 26.9375 24.460938 " fill-opacity="1" fill-rule="nonzero"/><path fill="#f5dacf" d="M 24.523438 15.789062 L 24.554688 16.074219 C 24.554688 16.074219 24.613281 16.035156 24.714844 15.808594 Z M 24.523438 15.789062 " fill-opacity="1" fill-rule="nonzero"/><path fill="#26071a" d="M 25.097656 12.988281 C 24.96875 13.035156 24.824219 13.050781 24.6875 13.039062 C 24.617188 13.035156 24.546875 13.023438 24.480469 13.007812 L 24.277344 12.945312 C 24.148438 12.894531 24.027344 12.824219 23.914062 12.742188 C 23.804688 12.660156 23.703125 12.566406 23.621094 12.453125 C 23.714844 12.554688 23.820312 12.644531 23.933594 12.71875 C 24.046875 12.792969 24.167969 12.855469 24.296875 12.898438 L 24.394531 12.929688 L 24.492188 12.953125 C 24.558594 12.964844 24.625 12.96875 24.691406 12.976562 C 24.824219 12.984375 24.960938 12.988281 25.097656 12.988281 Z M 25.097656 12.988281 " fill-opacity="1" fill-rule="nonzero"/><path fill="#26071a" d="M 24.539062 13.164062 C 24.625 13.148438 24.703125 13.140625 24.78125 13.125 C 24.859375 13.113281 24.9375 13.097656 25.023438 13.089844 C 24.957031 13.144531 24.875 13.175781 24.792969 13.191406 C 24.707031 13.203125 24.617188 13.199219 24.539062 13.164062 Z M 24.539062 13.164062 " fill-opacity="1" fill-rule="nonzero"/><path fill="#26071a" d="M 24.753906 13.292969 C 24.78125 13.261719 24.808594 13.246094 24.832031 13.234375 C 24.859375 13.222656 24.886719 13.210938 24.929688 13.210938 C 24.921875 13.25 24.894531 13.277344 24.863281 13.292969 C 24.828125 13.308594 24.792969 13.3125 24.753906 13.292969 Z M 24.753906 13.292969 " fill-opacity="1" fill-rule="nonzero"/><path fill="#26071a" d="M 24.839844 13.355469 C 24.851562 13.324219 24.871094 13.304688 24.890625 13.289062 C 24.910156 13.277344 24.929688 13.265625 24.96875 13.261719 C 24.96875 13.300781 24.953125 13.324219 24.929688 13.34375 C 24.90625 13.359375 24.875 13.371094 24.839844 13.355469 Z M 24.839844 13.355469 " fill-opacity="1" fill-rule="nonzero"/><path fill="#26071a" d="M 25.628906 13.984375 C 25.664062 14.007812 25.695312 14.03125 25.722656 14.058594 C 25.753906 14.085938 25.78125 14.113281 25.804688 14.148438 C 25.824219 14.179688 25.84375 14.21875 25.855469 14.257812 C 25.867188 14.296875 25.867188 14.34375 25.855469 14.378906 C 25.828125 14.304688 25.789062 14.246094 25.75 14.183594 C 25.730469 14.152344 25.703125 14.125 25.683594 14.089844 C 25.664062 14.058594 25.644531 14.023438 25.628906 13.984375 Z M 25.628906 13.984375 " fill-opacity="1" fill-rule="nonzero"/><path fill="#26071a" d="M 20.222656 11.625 C 20.316406 11.585938 20.421875 11.585938 20.519531 11.613281 C 20.546875 11.621094 20.570312 11.628906 20.59375 11.644531 C 20.617188 11.65625 20.636719 11.671875 20.65625 11.6875 C 20.675781 11.703125 20.695312 11.722656 20.710938 11.738281 C 20.726562 11.757812 20.746094 11.78125 20.75 11.804688 C 20.714844 11.773438 20.667969 11.753906 20.628906 11.730469 C 20.585938 11.707031 20.546875 11.6875 20.503906 11.675781 C 20.414062 11.648438 20.320312 11.636719 20.222656 11.625 Z M 20.222656 11.625 " fill-opacity="1" fill-rule="nonzero"/><path fill="#26071a" d="M 20.933594 12 C 20.980469 12.023438 21.011719 12.0625 21.03125 12.109375 C 21.046875 12.15625 21.054688 12.207031 21.035156 12.253906 C 21.003906 12.214844 20.984375 12.175781 20.96875 12.132812 C 20.953125 12.09375 20.9375 12.050781 20.933594 12 Z M 20.933594 12 " fill-opacity="1" fill-rule="nonzero"/><path fill="#26071a" d="M 26.523438 12.921875 C 26.5625 12.953125 26.605469 12.980469 26.648438 13.003906 L 26.714844 13.042969 C 26.738281 13.054688 26.753906 13.066406 26.773438 13.066406 C 26.816406 13.074219 26.867188 13.066406 26.914062 13.058594 C 26.964844 13.050781 27.015625 13.039062 27.066406 13.035156 C 27.023438 13.066406 26.976562 13.089844 26.929688 13.109375 C 26.875 13.128906 26.824219 13.140625 26.761719 13.132812 C 26.730469 13.128906 26.703125 13.109375 26.683594 13.09375 C 26.660156 13.078125 26.640625 13.0625 26.621094 13.046875 C 26.578125 13.011719 26.542969 12.972656 26.523438 12.921875 Z M 26.523438 12.921875 " fill-opacity="1" fill-rule="nonzero"/><path fill="#26071a" d="M 26.582031 13.0625 C 26.636719 13.089844 26.675781 13.117188 26.71875 13.144531 C 26.765625 13.171875 26.808594 13.195312 26.855469 13.230469 C 26.796875 13.246094 26.734375 13.230469 26.683594 13.199219 C 26.636719 13.167969 26.59375 13.121094 26.582031 13.0625 Z M 26.582031 13.0625 " fill-opacity="1" fill-rule="nonzero"/><path fill="#26071a" d="M 26.664062 13.457031 C 26.734375 13.492188 26.792969 13.53125 26.855469 13.574219 C 26.914062 13.621094 26.972656 13.675781 26.996094 13.753906 C 26.929688 13.710938 26.875 13.671875 26.8125 13.628906 C 26.757812 13.582031 26.695312 13.53125 26.664062 13.457031 Z M 26.664062 13.457031 " fill-opacity="1" fill-rule="nonzero"/><path fill="#26071a" d="M 26.863281 9.875 C 26.992188 9.722656 27.101562 9.558594 27.183594 9.378906 C 27.269531 9.199219 27.324219 9.011719 27.355469 8.8125 C 27.375 9.015625 27.332031 9.222656 27.246094 9.40625 C 27.160156 9.589844 27.027344 9.757812 26.863281 9.875 Z M 26.863281 9.875 " fill-opacity="1" fill-rule="nonzero"/><path fill="#26071a" d="M 27.351562 8.707031 C 27.402344 8.761719 27.433594 8.832031 27.457031 8.902344 C 27.476562 8.976562 27.484375 9.050781 27.480469 9.125 C 27.476562 9.273438 27.4375 9.417969 27.382812 9.554688 C 27.386719 9.40625 27.414062 9.265625 27.414062 9.125 C 27.421875 8.984375 27.402344 8.84375 27.351562 8.707031 Z M 27.351562 8.707031 " fill-opacity="1" fill-rule="nonzero"/><path fill="#26071a" d="M 27.226562 9.699219 C 27.214844 9.632812 27.238281 9.566406 27.253906 9.503906 C 27.269531 9.441406 27.285156 9.378906 27.296875 9.316406 C 27.324219 9.191406 27.339844 9.066406 27.347656 8.933594 C 27.394531 9.058594 27.390625 9.199219 27.363281 9.328125 C 27.347656 9.394531 27.328125 9.457031 27.300781 9.519531 C 27.277344 9.582031 27.242188 9.636719 27.226562 9.699219 Z M 27.226562 9.699219 " fill-opacity="1" fill-rule="nonzero"/><path fill="#26071a" d="M 23.574219 9.039062 C 23.695312 9.003906 23.828125 8.992188 23.957031 9 C 24.085938 9.007812 24.210938 9.03125 24.335938 9.066406 C 24.585938 9.136719 24.816406 9.25 25.035156 9.378906 C 24.792969 9.296875 24.558594 9.195312 24.320312 9.128906 C 24.078125 9.058594 23.828125 9.019531 23.574219 9.039062 Z M 23.574219 9.039062 " fill-opacity="1" fill-rule="nonzero"/><path fill="#26071a" d="M 23.164062 9.171875 C 23.25 9.125 23.34375 9.097656 23.441406 9.085938 C 23.539062 9.070312 23.636719 9.074219 23.734375 9.082031 C 23.925781 9.105469 24.109375 9.160156 24.289062 9.234375 C 24.289062 9.234375 24.292969 9.238281 24.289062 9.238281 C 24.289062 9.242188 24.289062 9.242188 24.285156 9.242188 L 24.253906 9.234375 L 24.289062 9.234375 L 24.285156 9.242188 C 24.09375 9.214844 23.910156 9.167969 23.726562 9.148438 C 23.539062 9.125 23.351562 9.128906 23.164062 9.171875 Z M 23.164062 9.171875 " fill-opacity="1" fill-rule="nonzero"/><path fill="#26071a" d="M 22.671875 9.480469 C 22.832031 9.355469 23.035156 9.28125 23.238281 9.246094 C 23.441406 9.214844 23.65625 9.222656 23.851562 9.292969 C 23.644531 9.277344 23.445312 9.277344 23.25 9.3125 C 23.050781 9.339844 22.859375 9.402344 22.671875 9.480469 Z M 22.671875 9.480469 " fill-opacity="1" fill-rule="nonzero"/><path fill="#26071a" d="M 22.476562 9.914062 C 22.507812 9.820312 22.585938 9.746094 22.667969 9.691406 C 22.75 9.636719 22.839844 9.589844 22.929688 9.550781 C 23.109375 9.476562 23.304688 9.425781 23.5 9.417969 C 23.3125 9.476562 23.132812 9.535156 22.957031 9.613281 C 22.867188 9.648438 22.78125 9.691406 22.695312 9.734375 C 22.613281 9.78125 22.53125 9.832031 22.476562 9.914062 Z M 22.476562 9.914062 " fill-opacity="1" fill-rule="nonzero"/><path fill="#26071a" d="M 21.949219 10.742188 C 21.945312 10.699219 21.960938 10.652344 21.984375 10.613281 C 22.003906 10.574219 22.035156 10.539062 22.0625 10.507812 C 22.117188 10.441406 22.179688 10.378906 22.242188 10.316406 C 22.367188 10.199219 22.507812 10.09375 22.664062 10.007812 C 22.539062 10.132812 22.410156 10.246094 22.285156 10.367188 L 22.097656 10.542969 C 22.039062 10.601562 21.96875 10.65625 21.949219 10.742188 Z M 21.949219 10.742188 " fill-opacity="1" fill-rule="nonzero"/><path fill="#26071a" d="M 21.703125 10.894531 C 21.816406 10.769531 21.945312 10.65625 22.074219 10.550781 C 22.207031 10.445312 22.339844 10.34375 22.488281 10.257812 C 22.375 10.386719 22.246094 10.496094 22.117188 10.601562 C 21.984375 10.707031 21.851562 10.808594 21.703125 10.894531 Z M 21.703125 10.894531 " fill-opacity="1" fill-rule="nonzero"/><path fill="#26071a" d="M 21.851562 10.867188 C 21.925781 10.796875 22.007812 10.738281 22.089844 10.6875 C 22.179688 10.636719 22.265625 10.589844 22.363281 10.5625 C 22.292969 10.636719 22.210938 10.691406 22.125 10.742188 C 22.039062 10.792969 21.953125 10.839844 21.851562 10.867188 Z M 21.851562 10.867188 " fill-opacity="1" fill-rule="nonzero"/><path fill="#26071a" d="M 20.820312 11.8125 C 20.851562 11.851562 20.878906 11.894531 20.894531 11.945312 C 20.910156 11.996094 20.90625 12.054688 20.878906 12.105469 C 20.863281 12.128906 20.839844 12.152344 20.816406 12.167969 C 20.792969 12.179688 20.769531 12.1875 20.75 12.195312 C 20.707031 12.214844 20.667969 12.242188 20.628906 12.273438 C 20.648438 12.226562 20.679688 12.183594 20.722656 12.152344 C 20.742188 12.136719 20.765625 12.125 20.785156 12.113281 C 20.800781 12.101562 20.8125 12.089844 20.820312 12.074219 C 20.839844 12.039062 20.847656 11.996094 20.84375 11.953125 C 20.839844 11.910156 20.828125 11.863281 20.820312 11.8125 Z M 20.820312 11.8125 " fill-opacity="1" fill-rule="nonzero"/><path fill="#26071a" d="M 20.847656 13.339844 C 20.875 13.355469 20.902344 13.359375 20.925781 13.363281 C 20.953125 13.367188 20.976562 13.367188 21 13.359375 C 21.046875 13.351562 21.09375 13.328125 21.15625 13.308594 C 21.132812 13.367188 21.078125 13.410156 21.011719 13.425781 C 20.976562 13.429688 20.941406 13.425781 20.910156 13.414062 C 20.882812 13.398438 20.855469 13.371094 20.847656 13.339844 Z M 20.847656 13.339844 " fill-opacity="1" fill-rule="nonzero"/><path fill="#26071a" d="M 20.632812 12.984375 C 20.605469 12.917969 20.582031 12.847656 20.570312 12.773438 C 20.558594 12.699219 20.558594 12.617188 20.582031 12.542969 C 20.605469 12.46875 20.652344 12.398438 20.714844 12.351562 C 20.777344 12.304688 20.851562 12.273438 20.925781 12.269531 C 20.859375 12.300781 20.796875 12.339844 20.75 12.390625 C 20.703125 12.441406 20.664062 12.5 20.644531 12.5625 C 20.605469 12.691406 20.628906 12.839844 20.632812 12.984375 Z M 20.632812 12.984375 " fill-opacity="1" fill-rule="nonzero"/><path fill="#26071a" d="M 26.457031 14.910156 C 26.421875 14.976562 26.375 15.03125 26.316406 15.082031 L 26.324219 15.050781 C 26.34375 15.074219 26.359375 15.109375 26.367188 15.136719 C 26.378906 15.167969 26.386719 15.199219 26.394531 15.230469 C 26.40625 15.292969 26.410156 15.359375 26.40625 15.421875 C 26.394531 15.550781 26.347656 15.675781 26.265625 15.773438 C 26.3125 15.65625 26.335938 15.539062 26.339844 15.417969 C 26.34375 15.359375 26.339844 15.300781 26.332031 15.242188 C 26.320312 15.183594 26.308594 15.125 26.28125 15.074219 L 26.28125 15.070312 C 26.273438 15.0625 26.277344 15.050781 26.289062 15.042969 C 26.347656 15.003906 26.402344 14.960938 26.457031 14.910156 Z M 26.457031 14.910156 " fill-opacity="1" fill-rule="nonzero"/><path fill="#26071a" d="M 24.390625 15.777344 C 24.601562 15.773438 24.8125 15.785156 25.019531 15.808594 C 25.125 15.820312 25.230469 15.832031 25.332031 15.859375 C 25.433594 15.886719 25.53125 15.914062 25.636719 15.914062 C 25.535156 15.949219 25.421875 15.9375 25.320312 15.921875 C 25.21875 15.898438 25.117188 15.886719 25.011719 15.871094 C 24.804688 15.84375 24.597656 15.8125 24.390625 15.777344 Z M 24.390625 15.777344 " fill-opacity="1" fill-rule="nonzero"/><path fill="#26071a" d="M 25.582031 16.347656 C 25.707031 16.40625 25.796875 16.535156 25.828125 16.675781 C 25.859375 16.8125 25.832031 16.96875 25.746094 17.074219 C 25.78125 16.945312 25.792969 16.8125 25.765625 16.6875 C 25.738281 16.5625 25.671875 16.449219 25.582031 16.347656 Z M 25.582031 16.347656 " fill-opacity="1" fill-rule="nonzero"/><path fill="#26071a" d="M 21.480469 12.925781 C 21.570312 12.929688 21.65625 12.949219 21.738281 12.972656 C 21.820312 13 21.902344 13.035156 21.976562 13.085938 C 21.886719 13.082031 21.800781 13.0625 21.71875 13.039062 C 21.636719 13.007812 21.558594 12.976562 21.480469 12.925781 Z M 21.480469 12.925781 " fill-opacity="1" fill-rule="nonzero"/><path fill="#26071a" d="M 21.550781 13.019531 C 21.628906 13.035156 21.695312 13.0625 21.761719 13.089844 C 21.828125 13.125 21.890625 13.15625 21.949219 13.207031 C 21.871094 13.207031 21.800781 13.183594 21.734375 13.152344 C 21.667969 13.117188 21.601562 13.078125 21.550781 13.019531 Z M 21.550781 13.019531 " fill-opacity="1" fill-rule="nonzero"/><path fill="#26071a" d="M 21.628906 13.195312 C 21.683594 13.183594 21.734375 13.195312 21.78125 13.214844 C 21.828125 13.234375 21.875 13.265625 21.90625 13.3125 C 21.847656 13.308594 21.800781 13.292969 21.757812 13.277344 C 21.710938 13.257812 21.667969 13.234375 21.628906 13.195312 Z M 21.628906 13.195312 " fill-opacity="1" fill-rule="nonzero"/><path fill="#26071a" d="M 21.613281 13.332031 L 21.664062 13.335938 C 21.679688 13.335938 21.695312 13.339844 21.710938 13.34375 C 21.726562 13.347656 21.742188 13.355469 21.757812 13.367188 C 21.773438 13.378906 21.785156 13.394531 21.789062 13.414062 C 21.75 13.414062 21.722656 13.417969 21.691406 13.40625 C 21.675781 13.402344 21.65625 13.394531 21.640625 13.382812 C 21.628906 13.371094 21.613281 13.351562 21.613281 13.332031 Z M 21.613281 13.332031 " fill-opacity="1" fill-rule="nonzero"/><path fill="#26071a" d="M 21.6875 13.449219 C 21.726562 13.441406 21.753906 13.453125 21.78125 13.464844 C 21.804688 13.480469 21.828125 13.503906 21.839844 13.539062 C 21.800781 13.546875 21.769531 13.535156 21.746094 13.523438 C 21.71875 13.503906 21.699219 13.484375 21.6875 13.449219 Z M 21.6875 13.449219 " fill-opacity="1" fill-rule="nonzero"/><path fill="#26071a" d="M 21.675781 13.59375 C 21.710938 13.574219 21.746094 13.574219 21.78125 13.589844 C 21.796875 13.601562 21.8125 13.613281 21.824219 13.628906 C 21.832031 13.644531 21.835938 13.667969 21.828125 13.6875 C 21.8125 13.675781 21.796875 13.671875 21.785156 13.664062 C 21.773438 13.660156 21.761719 13.65625 21.75 13.648438 C 21.730469 13.636719 21.703125 13.625 21.675781 13.59375 Z M 21.675781 13.59375 " fill-opacity="1" fill-rule="nonzero"/><path fill="#26071a" d="M 23.160156 11.496094 C 23.085938 11.570312 23.015625 11.644531 22.929688 11.707031 C 22.847656 11.769531 22.753906 11.824219 22.652344 11.859375 C 22.550781 11.890625 22.453125 11.917969 22.347656 11.9375 C 22.246094 11.960938 22.136719 11.96875 22.03125 11.964844 L 22.054688 11.910156 C 22.144531 12.007812 22.265625 12.082031 22.359375 12.195312 C 22.402344 12.25 22.441406 12.3125 22.453125 12.386719 C 22.46875 12.453125 22.457031 12.53125 22.414062 12.589844 C 22.445312 12.527344 22.449219 12.453125 22.429688 12.390625 C 22.410156 12.328125 22.371094 12.269531 22.324219 12.222656 C 22.234375 12.125 22.109375 12.058594 22.007812 11.953125 C 21.996094 11.941406 21.996094 11.921875 22.011719 11.910156 C 22.015625 11.902344 22.027344 11.898438 22.035156 11.898438 C 22.136719 11.90625 22.234375 11.894531 22.335938 11.875 C 22.433594 11.855469 22.539062 11.832031 22.632812 11.804688 C 22.730469 11.777344 22.824219 11.734375 22.910156 11.679688 C 22.996094 11.625 23.078125 11.558594 23.160156 11.496094 Z M 23.160156 11.496094 " fill-opacity="1" fill-rule="nonzero"/><path fill="#26071a" d="M 22.128906 12.199219 C 22.167969 12.1875 22.214844 12.207031 22.246094 12.234375 C 22.28125 12.261719 22.300781 12.300781 22.320312 12.339844 C 22.335938 12.375 22.34375 12.417969 22.347656 12.457031 C 22.347656 12.5 22.339844 12.542969 22.320312 12.578125 C 22.308594 12.496094 22.285156 12.429688 22.257812 12.363281 C 22.242188 12.332031 22.226562 12.296875 22.207031 12.269531 C 22.1875 12.242188 22.164062 12.214844 22.128906 12.199219 Z M 22.128906 12.199219 " fill-opacity="1" fill-rule="nonzero"/><path fill="#26071a" d="M 22.175781 12.320312 C 22.234375 12.382812 22.253906 12.476562 22.242188 12.558594 C 22.234375 12.644531 22.191406 12.730469 22.121094 12.777344 C 22.148438 12.699219 22.167969 12.628906 22.175781 12.550781 C 22.1875 12.476562 22.183594 12.402344 22.175781 12.320312 Z M 22.175781 12.320312 " fill-opacity="1" fill-rule="nonzero"/><path fill="#26071a" d="M 26.160156 12.613281 C 26.21875 12.550781 26.273438 12.5 26.316406 12.441406 C 26.359375 12.382812 26.390625 12.316406 26.40625 12.238281 C 26.425781 12.273438 26.429688 12.320312 26.421875 12.363281 C 26.414062 12.40625 26.394531 12.445312 26.367188 12.480469 C 26.316406 12.546875 26.242188 12.59375 26.160156 12.613281 Z M 26.160156 12.613281 " fill-opacity="1" fill-rule="nonzero"/><path fill="#26071a" d="M 26.023438 10.964844 C 26.277344 11.003906 26.535156 11.007812 26.785156 10.96875 C 27.035156 10.929688 27.28125 10.847656 27.511719 10.734375 C 27.308594 10.894531 27.054688 10.992188 26.796875 11.035156 C 26.535156 11.074219 26.265625 11.054688 26.023438 10.964844 Z M 26.023438 10.964844 " fill-opacity="1" fill-rule="nonzero"/><path fill="#26071a" d="M 26.519531 10.851562 C 26.609375 10.824219 26.6875 10.804688 26.769531 10.785156 C 26.855469 10.761719 26.9375 10.738281 27.027344 10.734375 C 26.957031 10.789062 26.875 10.824219 26.789062 10.847656 C 26.703125 10.867188 26.609375 10.878906 26.519531 10.851562 Z M 26.519531 10.851562 " fill-opacity="1" fill-rule="nonzero"/><path fill="#26071a" d="M 27.183594 10.683594 C 27.230469 10.636719 27.289062 10.605469 27.347656 10.578125 C 27.40625 10.550781 27.46875 10.527344 27.523438 10.503906 C 27.582031 10.480469 27.636719 10.453125 27.6875 10.417969 C 27.738281 10.386719 27.78125 10.34375 27.816406 10.285156 C 27.808594 10.351562 27.769531 10.414062 27.71875 10.460938 C 27.671875 10.507812 27.609375 10.539062 27.550781 10.566406 C 27.425781 10.613281 27.304688 10.636719 27.183594 10.683594 Z M 27.183594 10.683594 " fill-opacity="1" fill-rule="nonzero"/><path fill="#26071a" d="M 25.765625 10.679688 C 25.839844 10.683594 25.90625 10.699219 25.972656 10.710938 C 26.042969 10.726562 26.109375 10.738281 26.179688 10.761719 C 26.109375 10.789062 26.03125 10.789062 25.960938 10.777344 C 25.890625 10.761719 25.820312 10.730469 25.765625 10.679688 Z M 25.765625 10.679688 " fill-opacity="1" fill-rule="nonzero"/><path fill="#26071a" d="M 26.15625 10.570312 C 26.277344 10.582031 26.386719 10.597656 26.5 10.605469 C 26.613281 10.613281 26.726562 10.617188 26.847656 10.621094 C 26.734375 10.667969 26.613281 10.679688 26.496094 10.671875 C 26.378906 10.660156 26.261719 10.632812 26.15625 10.570312 Z M 26.15625 10.570312 " fill-opacity="1" fill-rule="nonzero"/><path fill="#26071a" d="M 26.269531 12.644531 C 26.296875 12.621094 26.308594 12.609375 26.332031 12.597656 C 26.351562 12.585938 26.375 12.574219 26.410156 12.578125 C 26.40625 12.613281 26.390625 12.636719 26.363281 12.652344 C 26.335938 12.667969 26.296875 12.671875 26.269531 12.644531 Z M 26.269531 12.644531 " fill-opacity="1" fill-rule="nonzero"/><path fill="#26071a" d="M 25.28125 12.484375 C 25.410156 12.585938 25.527344 12.703125 25.625 12.832031 C 25.722656 12.964844 25.804688 13.117188 25.828125 13.277344 C 25.753906 13.132812 25.671875 13 25.574219 12.871094 C 25.480469 12.742188 25.375 12.621094 25.28125 12.484375 Z M 25.28125 12.484375 " fill-opacity="1" fill-rule="nonzero"/><path fill="#26071a" d="M 25.335938 12.480469 C 25.445312 12.519531 25.546875 12.578125 25.636719 12.65625 C 25.722656 12.734375 25.796875 12.835938 25.816406 12.953125 C 25.75 12.859375 25.675781 12.78125 25.589844 12.707031 C 25.507812 12.628906 25.417969 12.5625 25.335938 12.480469 Z M 25.335938 12.480469 " fill-opacity="1" fill-rule="nonzero"/><path fill="#26071a" d="M 25.230469 13.914062 C 25.246094 13.875 25.292969 13.863281 25.324219 13.855469 C 25.359375 13.84375 25.398438 13.84375 25.433594 13.84375 C 25.503906 13.84375 25.578125 13.863281 25.636719 13.910156 C 25.5625 13.914062 25.5 13.910156 25.429688 13.90625 L 25.332031 13.90625 C 25.296875 13.90625 25.265625 13.898438 25.230469 13.914062 Z M 25.230469 13.914062 " fill-opacity="1" fill-rule="nonzero"/><path fill="#26071a" d="M 25.332031 13.773438 C 25.367188 13.734375 25.417969 13.71875 25.46875 13.722656 C 25.519531 13.726562 25.570312 13.746094 25.597656 13.792969 C 25.546875 13.796875 25.507812 13.792969 25.464844 13.789062 C 25.421875 13.785156 25.382812 13.785156 25.332031 13.773438 Z M 25.332031 13.773438 " fill-opacity="1" fill-rule="nonzero"/><path fill="#26071a" d="M 26.761719 14.277344 C 26.789062 14.316406 26.796875 14.359375 26.789062 14.402344 C 26.785156 14.445312 26.765625 14.484375 26.726562 14.511719 C 26.71875 14.464844 26.71875 14.429688 26.726562 14.390625 C 26.730469 14.355469 26.738281 14.320312 26.761719 14.277344 Z M 26.761719 14.277344 " fill-opacity="1" fill-rule="nonzero"/><path fill="#26071a" d="M 26.867188 14.460938 C 26.882812 14.488281 26.875 14.511719 26.867188 14.527344 C 26.855469 14.539062 26.835938 14.550781 26.804688 14.546875 C 26.796875 14.515625 26.804688 14.5 26.8125 14.488281 C 26.820312 14.476562 26.835938 14.464844 26.867188 14.460938 Z M 26.867188 14.460938 " fill-opacity="1" fill-rule="nonzero"/><path fill="#26071a" d="M 23.546875 13.933594 C 23.578125 14.054688 23.59375 14.167969 23.621094 14.28125 C 23.644531 14.394531 23.675781 14.507812 23.699219 14.625 C 23.628906 14.527344 23.582031 14.414062 23.554688 14.292969 C 23.53125 14.175781 23.523438 14.054688 23.546875 13.933594 Z M 23.546875 13.933594 " fill-opacity="1" fill-rule="nonzero"/><path fill="#26071a" d="M 23.457031 14.285156 C 23.488281 14.332031 23.507812 14.378906 23.53125 14.425781 C 23.546875 14.476562 23.566406 14.523438 23.578125 14.582031 C 23.523438 14.550781 23.488281 14.503906 23.46875 14.453125 C 23.449219 14.398438 23.4375 14.339844 23.457031 14.285156 Z M 23.457031 14.285156 " fill-opacity="1" fill-rule="nonzero"/><path fill="#26071a" d="M 23.320312 14.367188 C 23.355469 14.394531 23.375 14.421875 23.390625 14.453125 C 23.40625 14.484375 23.414062 14.511719 23.417969 14.554688 C 23.375 14.546875 23.347656 14.515625 23.332031 14.480469 C 23.316406 14.449219 23.308594 14.410156 23.320312 14.367188 Z M 23.320312 14.367188 " fill-opacity="1" fill-rule="nonzero"/><path fill="#26071a" d="M 23.601562 12.019531 C 23.648438 11.941406 23.734375 11.890625 23.824219 11.863281 C 23.914062 11.839844 24.007812 11.839844 24.097656 11.847656 C 24.277344 11.863281 24.441406 11.910156 24.621094 11.886719 C 24.539062 11.921875 24.445312 11.933594 24.355469 11.933594 C 24.265625 11.933594 24.175781 11.917969 24.089844 11.914062 C 24.003906 11.902344 23.917969 11.902344 23.835938 11.914062 C 23.75 11.929688 23.667969 11.960938 23.601562 12.019531 Z M 23.601562 12.019531 " fill-opacity="1" fill-rule="nonzero"/><path fill="#26071a" d="M 23.839844 11.824219 C 23.886719 11.789062 23.9375 11.757812 24.003906 11.746094 C 24.070312 11.738281 24.132812 11.761719 24.1875 11.78125 C 24.296875 11.828125 24.394531 11.878906 24.511719 11.90625 C 24.449219 11.917969 24.386719 11.914062 24.332031 11.898438 C 24.273438 11.886719 24.214844 11.863281 24.160156 11.84375 C 24.109375 11.820312 24.058594 11.800781 24.007812 11.796875 C 23.953125 11.796875 23.898438 11.816406 23.839844 11.824219 Z M 23.839844 11.824219 " fill-opacity="1" fill-rule="nonzero"/><path fill="#f5dacf" d="M 25.679688 15.902344 C 25.6875 15.902344 25.785156 15.882812 25.785156 15.882812 C 25.785156 15.882812 25.722656 16.039062 25.695312 16.074219 C 25.667969 16.105469 25.679688 15.902344 25.679688 15.902344 Z M 25.679688 15.902344 " fill-opacity="1" fill-rule="nonzero"/><path fill="#930621" d="M 19.46875 14.625 C 19.542969 14.617188 19.617188 14.621094 19.691406 14.632812 C 19.761719 14.652344 19.832031 14.675781 19.902344 14.699219 L 20.003906 14.746094 C 20.035156 14.761719 20.070312 14.777344 20.101562 14.796875 L 20.195312 14.855469 L 20.242188 14.886719 C 20.257812 14.898438 20.269531 14.910156 20.285156 14.921875 C 20.519531 15.101562 20.703125 15.335938 20.851562 15.585938 C 21.148438 16.089844 21.316406 16.648438 21.429688 17.207031 C 21.546875 17.769531 21.605469 18.335938 21.636719 18.90625 C 21.648438 19.191406 21.65625 19.476562 21.65625 19.761719 C 21.660156 20.046875 21.65625 20.332031 21.605469 20.617188 C 21.566406 20.332031 21.566406 20.046875 21.5625 19.765625 C 21.554688 19.480469 21.542969 19.195312 21.519531 18.914062 C 21.5 18.632812 21.476562 18.347656 21.441406 18.070312 C 21.402344 17.789062 21.359375 17.507812 21.300781 17.234375 C 21.1875 16.679688 21.023438 16.132812 20.738281 15.652344 C 20.597656 15.414062 20.421875 15.191406 20.207031 15.019531 C 20.195312 15.007812 20.183594 14.996094 20.167969 14.984375 L 20.125 14.953125 L 20.039062 14.894531 C 19.984375 14.855469 19.921875 14.828125 19.859375 14.792969 C 19.796875 14.761719 19.730469 14.742188 19.667969 14.710938 C 19.601562 14.6875 19.535156 14.664062 19.46875 14.625 Z M 19.46875 14.625 " fill-opacity="1" fill-rule="nonzero"/><path fill="#930621" d="M 23.839844 16.347656 C 23.984375 16.652344 24.074219 16.972656 24.207031 17.277344 C 24.332031 17.585938 24.46875 17.890625 24.625 18.179688 C 24.785156 18.46875 24.96875 18.75 25.195312 18.980469 C 25.253906 19.039062 25.316406 19.085938 25.378906 19.140625 L 25.578125 19.300781 C 25.707031 19.40625 25.835938 19.515625 25.964844 19.625 C 26.476562 20.0625 26.96875 20.523438 27.445312 20.992188 C 27.925781 21.464844 28.402344 21.933594 28.902344 22.378906 L 28.929688 22.402344 L 28.921875 22.4375 C 28.828125 22.835938 28.71875 23.226562 28.605469 23.613281 C 28.492188 24.003906 28.371094 24.390625 28.238281 24.773438 C 28.109375 25.15625 27.972656 25.539062 27.824219 25.917969 L 27.710938 26.199219 L 27.585938 26.476562 C 27.503906 26.664062 27.410156 26.84375 27.316406 27.023438 C 27.449219 26.636719 27.597656 26.261719 27.738281 25.882812 C 27.882812 25.507812 28.015625 25.125 28.140625 24.742188 C 28.269531 24.359375 28.386719 23.972656 28.496094 23.582031 C 28.605469 23.195312 28.710938 22.804688 28.800781 22.414062 L 28.820312 22.472656 C 28.3125 22.027344 27.832031 21.554688 27.355469 21.085938 C 26.875 20.617188 26.386719 20.15625 25.878906 19.722656 C 25.75 19.617188 25.621094 19.507812 25.492188 19.402344 L 25.296875 19.246094 C 25.234375 19.1875 25.164062 19.132812 25.101562 19.074219 C 24.859375 18.828125 24.675781 18.539062 24.511719 18.242188 C 24.351562 17.945312 24.222656 17.632812 24.105469 17.316406 C 24.046875 17.160156 23.992188 17 23.945312 16.839844 C 23.894531 16.679688 23.855469 16.515625 23.839844 16.347656 Z M 23.839844 16.347656 " fill-opacity="1" fill-rule="nonzero"/><g clip-path="url(#afbffacdc8)"><path fill="#930621" d="M 27.226562 27.988281 C 27.210938 28.042969 27.210938 28.097656 27.203125 28.15625 L 27.1875 28.320312 L 27.144531 28.65625 L 27.0625 29.328125 C 27.007812 29.777344 26.960938 30.226562 26.910156 30.675781 C 26.8125 31.574219 26.726562 32.472656 26.648438 33.375 C 26.570312 34.273438 26.492188 35.175781 26.4375 36.074219 C 26.414062 36.527344 26.390625 36.976562 26.378906 37.429688 C 26.375 37.652344 26.375 37.878906 26.375 38.105469 C 26.375 38.214844 26.378906 38.328125 26.382812 38.441406 C 26.386719 38.496094 26.390625 38.550781 26.398438 38.609375 C 26.398438 38.636719 26.40625 38.664062 26.410156 38.691406 C 26.417969 38.714844 26.429688 38.742188 26.449219 38.765625 C 26.402344 38.726562 26.382812 38.667969 26.367188 38.613281 C 26.351562 38.558594 26.339844 38.503906 26.332031 38.445312 C 26.3125 38.332031 26.300781 38.21875 26.292969 38.105469 C 26.28125 37.878906 26.28125 37.652344 26.285156 37.425781 C 26.289062 36.972656 26.308594 36.523438 26.328125 36.070312 C 26.375 35.167969 26.4375 34.261719 26.515625 33.363281 C 26.59375 32.460938 26.679688 31.5625 26.777344 30.660156 C 26.828125 30.210938 26.878906 29.761719 26.941406 29.3125 C 26.972656 29.089844 27.003906 28.867188 27.042969 28.644531 C 27.0625 28.53125 27.082031 28.417969 27.105469 28.308594 C 27.121094 28.253906 27.132812 28.199219 27.152344 28.144531 C 27.160156 28.117188 27.171875 28.089844 27.183594 28.0625 C 27.195312 28.035156 27.207031 28.007812 27.226562 27.988281 Z M 27.226562 27.988281 " fill-opacity="1" fill-rule="nonzero"/></g><path fill="#930621" d="M 27.675781 16.347656 C 27.644531 16.441406 27.582031 16.5 27.527344 16.566406 L 27.363281 16.765625 C 27.253906 16.898438 27.148438 17.03125 27.042969 17.171875 C 26.839844 17.445312 26.660156 17.742188 26.515625 18.050781 C 26.378906 18.359375 26.304688 18.691406 26.292969 19.03125 C 26.285156 19.203125 26.289062 19.375 26.308594 19.542969 C 26.328125 19.714844 26.355469 19.878906 26.363281 20.058594 C 26.269531 19.902344 26.234375 19.730469 26.210938 19.554688 C 26.1875 19.382812 26.175781 19.207031 26.179688 19.03125 C 26.183594 18.679688 26.25 18.320312 26.398438 17.996094 C 26.546875 17.675781 26.730469 17.375 26.9375 17.09375 C 27.042969 16.953125 27.148438 16.8125 27.269531 16.683594 C 27.328125 16.621094 27.390625 16.558594 27.453125 16.496094 C 27.519531 16.4375 27.578125 16.371094 27.675781 16.347656 Z M 27.675781 16.347656 " fill-opacity="1" fill-rule="nonzero"/><path fill="#930621" d="M 27.671875 23.394531 C 27.738281 23.414062 27.785156 23.46875 27.8125 23.5625 C 27.839844 23.652344 27.839844 23.757812 27.808594 23.871094 C 27.78125 23.984375 27.730469 24.074219 27.664062 24.144531 C 27.59375 24.210938 27.527344 24.238281 27.457031 24.222656 C 27.390625 24.203125 27.34375 24.148438 27.316406 24.054688 C 27.289062 23.964844 27.289062 23.859375 27.320312 23.746094 C 27.347656 23.632812 27.398438 23.542969 27.464844 23.472656 C 27.535156 23.40625 27.601562 23.378906 27.671875 23.394531 Z M 27.671875 23.394531 " fill-opacity="1" fill-rule="nonzero"/><path fill="#26071a" d="M 27.496094 24.257812 C 27.4375 24.257812 27.386719 24.234375 27.347656 24.1875 C 27.277344 24.105469 27.25 23.960938 27.273438 23.804688 C 27.316406 23.554688 27.472656 23.359375 27.632812 23.359375 C 27.691406 23.359375 27.742188 23.382812 27.78125 23.429688 C 27.851562 23.511719 27.878906 23.65625 27.855469 23.8125 C 27.8125 24.0625 27.65625 24.257812 27.496094 24.257812 Z M 27.632812 23.425781 C 27.507812 23.425781 27.375 23.601562 27.339844 23.8125 C 27.316406 23.949219 27.339844 24.078125 27.398438 24.144531 C 27.425781 24.175781 27.457031 24.191406 27.496094 24.191406 C 27.621094 24.191406 27.753906 24.015625 27.789062 23.804688 C 27.8125 23.667969 27.789062 23.539062 27.730469 23.472656 C 27.703125 23.441406 27.671875 23.425781 27.632812 23.425781 Z M 27.632812 23.425781 " fill-opacity="1" fill-rule="nonzero"/></svg>