<svg xmlns="http://www.w3.org/2000/svg" xmlns:xlink="http://www.w3.org/1999/xlink" width="60" zoomAndPan="magnify" viewBox="0 0 45 44.999999" height="60" preserveAspectRatio="xMidYMid meet" version="1.0"><defs><clipPath id="cb761bad0c"><path d="M 6.777344 11 L 36.777344 11 L 36.777344 45 L 6.777344 45 Z M 6.777344 11 " clip-rule="nonzero"/></clipPath></defs><rect x="-4.5" width="54" fill="#ffffff" y="-4.5" height="53.999999" fill-opacity="1"/><rect x="-4.5" width="54" fill="#ffffff" y="-4.5" height="53.999999" fill-opacity="1"/><g clip-path="url(#cb761bad0c)"><path fill="#26071a" d="M 16.851562 11.054688 C 16.851562 11.054688 13.25 11.789062 11.117188 17.828125 C 8.984375 23.871094 7.515625 29.273438 7.074219 35.804688 C 6.777344 40.183594 7.441406 46.480469 7.441406 46.480469 L 36.777344 46.480469 C 36.777344 46.480469 34.0625 43.453125 33.273438 38.707031 C 32.8125 35.917969 33.351562 29.679688 33.339844 26.5625 C 33.324219 21.484375 32.832031 18.589844 31.363281 16.429688 C 29.703125 13.992188 28.628906 13.707031 24.8125 12.289062 C 20.996094 10.875 16.851562 11.054688 16.851562 11.054688 Z M 16.851562 11.054688 " fill-opacity="1" fill-rule="nonzero"/></g><path fill="#26071a" d="M 15.996094 9.1875 L 15.675781 8.421875 C 15.675781 8.421875 18.398438 7.015625 20.53125 7.199219 C 22.660156 7.382812 27.699219 9.835938 29.683594 10.796875 C 31.667969 11.753906 32.515625 13.417969 32.402344 13.230469 C 32.292969 13.042969 29.746094 12.738281 28.042969 15.066406 C 26.339844 17.398438 23.84375 18.566406 22.261719 18.160156 C 20.851562 17.800781 17.371094 15.28125 16.859375 12.289062 C 16.679688 11.226562 16.40625 10.183594 15.996094 9.1875 Z M 15.996094 9.1875 " fill-opacity="1" fill-rule="nonzero"/><path fill="#e00018" d="M 25.242188 15.808594 C 24.59375 15.808594 23.429688 15.421875 22.9375 14.691406 C 22.753906 14.425781 22.335938 14.101562 21.894531 13.761719 C 21.121094 13.160156 20.242188 12.480469 20.144531 11.734375 C 20.074219 11.222656 20.015625 10.839844 19.976562 10.578125 C 19.882812 10.699219 19.753906 10.800781 19.582031 10.800781 C 19.488281 10.800781 19.394531 10.769531 19.296875 10.703125 C 18.734375 10.324219 18.53125 9.773438 18.335938 9.242188 C 18.234375 8.972656 18.140625 8.71875 18.007812 8.496094 C 17.65625 7.921875 17.617188 7.085938 17.617188 6.753906 C 17.617188 6.609375 17.722656 6.492188 17.867188 6.476562 C 17.964844 6.46875 18.066406 6.460938 18.160156 6.460938 C 18.425781 6.460938 18.636719 6.503906 18.785156 6.582031 L 18.863281 6.625 C 18.820312 6.058594 18.796875 4.734375 19.398438 3.546875 C 20.128906 2.109375 21.625 0.570312 23.632812 0.570312 C 23.792969 0.570312 23.960938 0.578125 24.125 0.597656 C 26.308594 0.867188 28.507812 2.089844 28.921875 2.785156 C 29.058594 3.011719 28.949219 3.519531 28.902344 3.714844 C 29.433594 4.632812 29.390625 4.785156 29.359375 4.847656 C 29.355469 4.902344 29.398438 5.074219 29.433594 5.203125 C 29.542969 5.628906 29.695312 6.210938 29.410156 6.617188 C 29.261719 6.824219 29.089844 7.058594 28.925781 7.265625 C 28.890625 7.710938 28.792969 7.933594 28.6875 8.167969 C 28.578125 8.421875 28.449219 8.710938 28.367188 9.375 L 28.359375 9.421875 C 28.183594 10.804688 27.984375 12.371094 27.238281 13.394531 C 26.632812 14.222656 26.425781 14.519531 26.375 14.597656 C 26.332031 14.773438 26.105469 15.652344 25.511719 15.785156 C 25.433594 15.800781 25.34375 15.808594 25.242188 15.808594 Z M 25.242188 15.808594 " fill-opacity="1" fill-rule="nonzero"/><path fill="#26071a" d="M 23.632812 0.710938 C 23.785156 0.710938 23.945312 0.722656 24.109375 0.742188 C 26.3125 1.011719 28.433594 2.246094 28.800781 2.859375 C 28.929688 3.078125 28.75 3.734375 28.75 3.734375 C 28.75 3.734375 29.292969 4.664062 29.230469 4.792969 C 29.132812 4.988281 29.671875 5.996094 29.292969 6.535156 C 29.140625 6.75 28.953125 7 28.785156 7.210938 C 28.726562 8.148438 28.394531 8.039062 28.226562 9.359375 C 28.054688 10.710938 27.859375 12.304688 27.121094 13.3125 C 26.386719 14.320312 26.238281 14.539062 26.238281 14.539062 C 26.238281 14.539062 26.042969 15.519531 25.480469 15.644531 C 25.410156 15.660156 25.332031 15.667969 25.242188 15.667969 C 24.601562 15.667969 23.507812 15.28125 23.054688 14.613281 C 22.539062 13.851562 20.429688 12.820312 20.285156 11.714844 C 20.136719 10.609375 20.039062 10.121094 20.039062 10.121094 C 20.039062 10.121094 19.894531 10.660156 19.582031 10.660156 C 19.519531 10.660156 19.453125 10.636719 19.378906 10.585938 C 18.578125 10.046875 18.542969 9.105469 18.128906 8.421875 C 17.792969 7.875 17.757812 7.058594 17.757812 6.753906 C 17.757812 6.683594 17.8125 6.625 17.878906 6.621094 C 17.953125 6.613281 18.050781 6.605469 18.160156 6.605469 C 18.347656 6.605469 18.566406 6.625 18.714844 6.707031 C 19.035156 6.878906 19.035156 6.878906 19.035156 6.878906 C 19.035156 6.878906 18.765625 5.109375 19.523438 3.613281 C 20.230469 2.226562 21.667969 0.710938 23.632812 0.710938 M 23.632812 0.425781 C 21.558594 0.425781 20.019531 2.003906 19.269531 3.484375 C 18.730469 4.550781 18.679688 5.730469 18.707031 6.394531 C 18.558594 6.34375 18.375 6.320312 18.160156 6.320312 C 18.058594 6.320312 17.957031 6.324219 17.851562 6.335938 C 17.636719 6.355469 17.472656 6.535156 17.472656 6.753906 C 17.472656 7.097656 17.515625 7.964844 17.882812 8.570312 C 18.011719 8.78125 18.105469 9.027344 18.199219 9.289062 C 18.394531 9.816406 18.617188 10.417969 19.21875 10.824219 C 19.335938 10.902344 19.460938 10.945312 19.582031 10.945312 C 19.695312 10.945312 19.792969 10.914062 19.875 10.863281 C 19.910156 11.09375 19.953125 11.390625 20.003906 11.753906 C 20.109375 12.558594 21.011719 13.257812 21.808594 13.875 C 22.242188 14.207031 22.648438 14.523438 22.816406 14.773438 C 23.363281 15.578125 24.585938 15.953125 25.242188 15.953125 C 25.351562 15.953125 25.453125 15.941406 25.539062 15.921875 C 26.195312 15.78125 26.445312 14.910156 26.507812 14.65625 C 26.578125 14.550781 26.796875 14.242188 27.351562 13.480469 C 28.121094 12.425781 28.324219 10.839844 28.503906 9.4375 L 28.507812 9.394531 C 28.589844 8.75 28.710938 8.472656 28.820312 8.226562 C 28.925781 7.988281 29.023438 7.761719 29.0625 7.320312 C 29.21875 7.121094 29.386719 6.898438 29.523438 6.699219 C 29.851562 6.238281 29.679688 5.59375 29.570312 5.167969 C 29.542969 5.066406 29.511719 4.9375 29.503906 4.878906 C 29.550781 4.761719 29.546875 4.554688 29.054688 3.691406 C 29.117188 3.421875 29.195312 2.960938 29.046875 2.710938 C 28.613281 1.992188 26.367188 0.730469 24.140625 0.457031 C 23.972656 0.4375 23.800781 0.425781 23.632812 0.425781 Z M 23.632812 0.425781 " fill-opacity="1" fill-rule="nonzero"/><path fill="#930621" d="M 26.355469 13.121094 C 26.277344 13.101562 25.914062 13.238281 25.914062 13.238281 C 25.914062 13.238281 25.914062 13.238281 25.816406 13.117188 C 25.71875 12.992188 25.605469 12.929688 25.125 12.992188 C 24.644531 13.054688 24.21875 13.320312 24.21875 13.320312 C 24.21875 13.320312 24.484375 13.347656 24.8125 13.378906 C 24.628906 13.316406 24.546875 13.351562 24.546875 13.351562 C 24.546875 13.351562 24.589844 13.613281 24.71875 13.769531 C 24.847656 13.925781 25.179688 14.074219 25.648438 13.917969 C 26.117188 13.761719 26.183594 13.953125 26.28125 13.789062 C 26.339844 13.695312 26.332031 13.5625 26.316406 13.464844 C 26.488281 13.429688 26.59375 13.375 26.613281 13.375 C 26.644531 13.367188 26.4375 13.140625 26.355469 13.121094 Z M 26.355469 13.121094 " fill-opacity="1" fill-rule="nonzero"/><path fill="#ff6700" d="M 26.191406 10.34375 C 26.195312 10.367188 26.195312 10.472656 26.214844 10.484375 C 26.121094 10.40625 26.027344 10.328125 25.933594 10.25 C 25.964844 10.332031 25.988281 10.414062 25.996094 10.5 C 25.953125 10.476562 25.929688 10.421875 25.882812 10.40625 C 25.863281 10.402344 25.847656 10.402344 25.828125 10.40625 C 25.800781 10.40625 25.769531 10.410156 25.742188 10.410156 C 25.695312 10.496094 25.65625 10.5625 25.644531 10.574219 C 25.601562 10.617188 25.582031 10.667969 25.367188 10.851562 C 25.152344 11.039062 25.230469 11.359375 25.230469 11.359375 C 25.230469 11.359375 25.199219 11.390625 24.949219 11.714844 C 24.703125 12.042969 23.691406 13.011719 23.671875 13.011719 C 23.65625 13.011719 23.679688 12.167969 23.691406 11.742188 C 23.703125 11.320312 23.519531 9.648438 23.519531 9.648438 C 23.519531 9.648438 23.746094 9.363281 23.953125 9.441406 C 24.164062 9.515625 25.125 8.976562 25.503906 9.039062 C 25.882812 9.101562 26.050781 9.832031 26.050781 9.832031 C 26.050781 9.832031 26.046875 9.839844 26.042969 9.847656 C 26.054688 9.871094 26.066406 9.898438 26.074219 9.921875 C 26.109375 10.011719 26.136719 10.109375 26.160156 10.203125 C 26.171875 10.25 26.179688 10.296875 26.191406 10.34375 Z M 24.046875 15.25 C 24.195312 15.503906 25.15625 15.589844 25.160156 15.59375 C 25.164062 15.597656 24.785156 15.570312 24.519531 15.546875 C 24.648438 15.585938 24.773438 15.613281 24.894531 15.632812 C 25.007812 15.648438 25.132812 15.660156 25.257812 15.664062 C 25.339844 15.664062 25.414062 15.660156 25.480469 15.644531 C 25.808594 15.574219 26.011719 15.207031 26.125 14.917969 C 25.984375 14.882812 25.433594 14.761719 24.964844 14.765625 C 24.425781 14.773438 24.015625 15.207031 24.046875 15.25 Z M 24.949219 12.945312 C 25.425781 12.894531 25.707031 12.851562 25.707031 12.851562 C 25.707031 12.851562 25.855469 12.183594 25.847656 11.972656 C 25.839844 11.765625 25.832031 11.6875 25.832031 11.6875 L 25.460938 11.496094 C 25.460938 11.496094 25.007812 11.960938 24.738281 12.234375 C 24.46875 12.507812 24.316406 12.582031 24.207031 12.816406 C 24.097656 13.054688 23.957031 13.375 24.046875 13.328125 C 24.132812 13.28125 24.476562 12.992188 24.949219 12.945312 Z M 28.171875 9.652344 C 28.160156 9.433594 28.160156 9.433594 28.160156 9.433594 L 28.171875 9.203125 C 28.171875 9.203125 27.976562 9.339844 27.703125 9.335938 C 27.429688 9.328125 27.398438 9.335938 27.398438 9.335938 L 27.652344 10.140625 L 27.878906 11.308594 C 27.878906 11.308594 28.183594 9.867188 28.171875 9.652344 Z M 27.179688 11.414062 C 27.144531 11.414062 27.105469 11.414062 27.074219 11.429688 C 27.039062 11.445312 27.011719 11.472656 26.988281 11.503906 C 26.945312 11.5625 26.921875 11.632812 26.917969 11.703125 C 26.917969 11.765625 26.929688 11.828125 26.929688 11.890625 C 26.925781 12.007812 26.867188 12.125 26.882812 12.242188 C 26.988281 12.210938 27.082031 12.140625 27.15625 12.054688 C 27.265625 11.929688 27.488281 11.703125 27.371094 11.519531 C 27.332031 11.453125 27.253906 11.421875 27.179688 11.414062 Z M 26.617188 12.160156 C 26.617188 12.160156 26.375 12.582031 26.402344 12.757812 C 26.429688 12.933594 26.449219 13 26.449219 13 L 26.808594 13.367188 C 26.808594 13.367188 26.933594 13.035156 26.925781 12.773438 C 26.921875 12.507812 26.949219 12.292969 26.949219 12.292969 C 26.949219 12.292969 26.761719 12.253906 26.617188 12.160156 Z M 26.617188 12.160156 " fill-opacity="1" fill-rule="nonzero"/><path fill="#930621" d="M 23.375 8.632812 C 23.417969 8.648438 23.445312 8.65625 23.445312 8.65625 C 23.445312 8.65625 23.429688 8.640625 23.375 8.632812 Z M 23.375 8.632812 " fill-opacity="1" fill-rule="nonzero"/><path fill="#930621" d="M 22.605469 8.78125 C 23.058594 8.621094 23.273438 8.617188 23.375 8.632812 C 23.160156 8.558594 22.566406 8.347656 22.699219 8.328125 C 22.859375 8.304688 23.214844 8.203125 23.507812 8.089844 C 23.800781 7.972656 25.839844 8.121094 25.839844 8.121094 C 25.839844 8.121094 25.675781 7.875 25.292969 7.640625 C 24.914062 7.40625 24.558594 6.949219 24.558594 6.949219 C 24.558594 6.949219 25.03125 7.117188 25.003906 7.042969 C 24.976562 6.96875 24.730469 6.5 24.730469 6.5 L 25.214844 6.777344 L 24.773438 6.136719 C 24.773438 6.136719 24.832031 6.136719 25.527344 6.484375 C 26.226562 6.835938 27.257812 7.019531 28.453125 6.558594 C 29.652344 6.097656 28.992188 4.101562 28.949219 4.003906 C 28.25 2.386719 27.347656 3.042969 26.777344 2.691406 C 26.210938 2.34375 23.101562 2.046875 20.941406 2.804688 C 20.464844 2.96875 20.007812 3.21875 19.578125 3.507812 C 19.5625 3.542969 19.542969 3.578125 19.523438 3.613281 C 18.765625 5.109375 19.035156 6.878906 19.035156 6.878906 C 19.035156 6.878906 19.035156 6.878906 18.714844 6.707031 C 18.484375 6.582031 18.082031 6.601562 17.878906 6.621094 C 17.8125 6.625 17.757812 6.683594 17.757812 6.753906 C 17.757812 7.058594 17.792969 7.875 18.128906 8.421875 C 18.542969 9.105469 18.578125 10.046875 19.378906 10.585938 C 19.832031 10.894531 20.039062 10.121094 20.039062 10.121094 C 20.039062 10.121094 20.125 10.539062 20.253906 11.476562 L 20.339844 11.53125 C 20.339844 11.53125 21.890625 9.027344 22.605469 8.78125 Z M 22.605469 8.78125 " fill-opacity="1" fill-rule="nonzero"/><path fill="#26071a" d="M 28.5625 3.578125 C 28.5625 3.578125 27.917969 4.570312 27.347656 4.921875 C 27.347656 4.921875 27.347656 4.589844 26.246094 4.128906 C 25.144531 3.667969 24.832031 3.464844 25.050781 3.578125 C 25.273438 3.6875 25.898438 4.246094 25.839844 4.234375 C 25.785156 4.222656 24.371094 3.664062 23.894531 3.546875 C 23.414062 3.429688 22.386719 3.871094 22 4.351562 C 21.613281 4.828125 20.621094 5.953125 20.953125 5.898438 C 21.28125 5.839844 22.164062 5.527344 22.035156 5.621094 C 21.90625 5.710938 20.886719 6.300781 20.886719 6.300781 L 21.734375 6.300781 C 21.695312 6.300781 21.660156 6.335938 21.628906 6.351562 C 21.5 6.421875 21.371094 6.492188 21.242188 6.5625 L 22.6875 6.625 C 22.6875 6.625 22.175781 7.460938 21.613281 7.644531 C 21.054688 7.832031 21.007812 7.839844 21.007812 7.839844 C 21.007812 7.839844 21.355469 8.160156 21.125 8.53125 C 20.898438 8.898438 20.757812 9.25 20.757812 9.25 L 20.070312 9.109375 C 20.070312 9.109375 20.390625 8.417969 19.949219 7.859375 C 19.507812 7.296875 18.898438 6.816406 18.589844 6.65625 C 18.589844 6.65625 18.214844 1.605469 21.964844 0.816406 C 25.714844 0.0234375 27.972656 1.972656 28.453125 2.359375 C 28.929688 2.746094 28.984375 3.632812 28.984375 3.632812 C 28.984375 3.632812 29.5 4.148438 29.519531 4.570312 C 29.535156 4.996094 29.574219 5.691406 29.574219 5.691406 C 29.574219 5.691406 29.6875 6.242188 28.785156 7.210938 C 28.765625 7.113281 29.429688 5.160156 28.5625 3.578125 Z M 28.5625 3.578125 " fill-opacity="1" fill-rule="nonzero"/><path fill="#26071a" d="M 27.671875 8.117188 C 27.652344 8.136719 27.628906 8.179688 27.609375 8.214844 L 27.554688 8.328125 C 27.515625 8.402344 27.476562 8.476562 27.441406 8.554688 C 27.371094 8.707031 27.304688 8.863281 27.253906 9.023438 C 27.238281 9.0625 27.226562 9.101562 27.21875 9.140625 C 27.210938 9.175781 27.203125 9.222656 27.214844 9.234375 C 27.257812 9.3125 27.292969 9.390625 27.324219 9.46875 C 27.390625 9.628906 27.445312 9.792969 27.480469 9.960938 C 27.496094 10.046875 27.511719 10.132812 27.511719 10.222656 C 27.511719 10.308594 27.488281 10.40625 27.480469 10.480469 C 27.460938 10.640625 27.480469 10.808594 27.5 10.976562 C 27.515625 11.144531 27.535156 11.320312 27.515625 11.496094 C 27.503906 11.582031 27.480469 11.671875 27.441406 11.753906 C 27.402344 11.832031 27.359375 11.90625 27.308594 11.976562 C 27.261719 12.050781 27.207031 12.121094 27.144531 12.179688 C 27.078125 12.242188 27.007812 12.300781 26.910156 12.328125 C 26.863281 12.335938 26.808594 12.339844 26.761719 12.320312 C 26.710938 12.304688 26.671875 12.277344 26.636719 12.242188 C 26.574219 12.183594 26.515625 12.125 26.453125 12.078125 C 26.324219 11.980469 26.167969 11.914062 26.015625 11.835938 L 25.5625 11.601562 C 25.488281 11.5625 25.410156 11.523438 25.335938 11.476562 C 25.265625 11.429688 25.1875 11.375 25.136719 11.285156 C 25.117188 11.238281 25.105469 11.179688 25.121094 11.128906 C 25.132812 11.078125 25.160156 11.039062 25.183594 11 C 25.238281 10.929688 25.292969 10.867188 25.355469 10.800781 C 25.417969 10.742188 25.480469 10.683594 25.558594 10.632812 C 25.597656 10.609375 25.636719 10.589844 25.683594 10.578125 C 25.730469 10.5625 25.78125 10.558594 25.832031 10.574219 C 25.882812 10.589844 25.917969 10.621094 25.953125 10.648438 C 25.984375 10.675781 26.015625 10.707031 26.046875 10.738281 C 26.105469 10.804688 26.15625 10.871094 26.207031 10.941406 C 26.21875 10.957031 26.214844 10.976562 26.199219 10.984375 C 26.183594 10.996094 26.167969 10.992188 26.15625 10.980469 L 26.15625 10.976562 C 26.105469 10.914062 26.054688 10.847656 25.996094 10.789062 C 25.964844 10.757812 25.9375 10.730469 25.902344 10.707031 C 25.871094 10.683594 25.839844 10.660156 25.808594 10.648438 C 25.746094 10.628906 25.667969 10.660156 25.601562 10.703125 C 25.535156 10.746094 25.472656 10.804688 25.417969 10.863281 C 25.359375 10.921875 25.304688 10.988281 25.257812 11.050781 C 25.214844 11.117188 25.1875 11.183594 25.222656 11.242188 C 25.253906 11.300781 25.320312 11.351562 25.386719 11.394531 C 25.457031 11.441406 25.53125 11.480469 25.605469 11.519531 L 26.058594 11.75 C 26.207031 11.828125 26.363281 11.894531 26.507812 12.003906 C 26.578125 12.054688 26.640625 12.121094 26.699219 12.179688 C 26.753906 12.230469 26.820312 12.253906 26.886719 12.238281 C 26.957031 12.222656 27.023438 12.171875 27.082031 12.117188 C 27.136719 12.0625 27.1875 11.996094 27.234375 11.925781 C 27.28125 11.859375 27.324219 11.785156 27.359375 11.710938 C 27.394531 11.640625 27.414062 11.566406 27.425781 11.484375 C 27.445312 11.324219 27.425781 11.15625 27.410156 10.984375 C 27.394531 10.816406 27.371094 10.648438 27.390625 10.46875 C 27.40625 10.375 27.425781 10.304688 27.421875 10.222656 C 27.425781 10.140625 27.410156 10.058594 27.394531 9.976562 C 27.363281 9.816406 27.308594 9.65625 27.246094 9.5 C 27.214844 9.425781 27.179688 9.34375 27.140625 9.277344 L 27.140625 9.269531 L 27.132812 9.253906 C 27.128906 9.246094 27.128906 9.238281 27.125 9.230469 C 27.125 9.214844 27.125 9.203125 27.125 9.191406 C 27.128906 9.164062 27.132812 9.144531 27.136719 9.121094 C 27.148438 9.078125 27.160156 9.035156 27.175781 8.996094 C 27.230469 8.832031 27.300781 8.675781 27.371094 8.519531 C 27.40625 8.445312 27.441406 8.367188 27.480469 8.289062 L 27.542969 8.175781 L 27.574219 8.121094 C 27.585938 8.101562 27.59375 8.085938 27.617188 8.058594 C 27.628906 8.042969 27.652344 8.042969 27.671875 8.054688 C 27.6875 8.070312 27.6875 8.09375 27.675781 8.109375 Z M 27.671875 8.117188 " fill-opacity="1" fill-rule="nonzero"/><path fill="#26071a" d="M 23.945312 13.3125 C 24.003906 13.167969 24.0625 13.027344 24.128906 12.882812 C 24.160156 12.8125 24.191406 12.742188 24.230469 12.671875 C 24.25 12.640625 24.269531 12.605469 24.292969 12.570312 C 24.316406 12.53125 24.347656 12.5 24.375 12.476562 C 24.492188 12.371094 24.617188 12.277344 24.730469 12.175781 C 24.789062 12.128906 24.847656 12.078125 24.898438 12.023438 C 24.953125 11.96875 25.003906 11.917969 25.074219 11.863281 C 25.085938 11.851562 25.105469 11.855469 25.117188 11.867188 C 25.125 11.878906 25.125 11.894531 25.117188 11.90625 L 25.109375 11.914062 C 25.019531 12.019531 24.914062 12.152344 24.792969 12.25 L 24.4375 12.546875 C 24.410156 12.570312 24.382812 12.59375 24.367188 12.621094 C 24.347656 12.652344 24.328125 12.683594 24.308594 12.714844 C 24.273438 12.78125 24.238281 12.851562 24.207031 12.921875 C 24.140625 13.058594 24.078125 13.203125 24.019531 13.34375 C 24.007812 13.363281 23.988281 13.375 23.96875 13.363281 C 23.945312 13.355469 23.9375 13.335938 23.945312 13.3125 Z M 23.945312 13.3125 " fill-opacity="1" fill-rule="nonzero"/><path fill="#26071a" d="M 26.515625 12.066406 C 26.421875 12.207031 26.328125 12.347656 26.246094 12.492188 C 26.207031 12.550781 26.207031 12.632812 26.210938 12.714844 C 26.210938 12.796875 26.21875 12.878906 26.222656 12.960938 L 26.222656 12.964844 C 26.222656 12.980469 26.207031 12.996094 26.191406 12.996094 C 26.175781 12.996094 26.164062 12.988281 26.160156 12.972656 C 26.132812 12.890625 26.117188 12.804688 26.113281 12.71875 C 26.113281 12.671875 26.109375 12.628906 26.117188 12.582031 C 26.121094 12.558594 26.125 12.535156 26.132812 12.511719 C 26.140625 12.488281 26.152344 12.464844 26.164062 12.445312 C 26.253906 12.296875 26.355469 12.160156 26.453125 12.023438 C 26.464844 12.003906 26.488281 12 26.507812 12.011719 C 26.523438 12.023438 26.53125 12.050781 26.515625 12.066406 Z M 26.515625 12.066406 " fill-opacity="1" fill-rule="nonzero"/><path fill="#26071a" d="M 18.011719 6.761719 C 18.023438 6.761719 18.046875 6.769531 18.050781 6.773438 L 18.074219 6.785156 L 18.117188 6.808594 L 18.363281 6.960938 C 18.46875 7.027344 18.574219 7.097656 18.679688 7.175781 C 18.785156 7.25 18.886719 7.328125 18.984375 7.414062 C 19.03125 7.457031 19.078125 7.5 19.121094 7.550781 C 19.164062 7.601562 19.203125 7.660156 19.226562 7.726562 C 19.230469 7.742188 19.222656 7.761719 19.207031 7.765625 C 19.191406 7.769531 19.179688 7.765625 19.171875 7.753906 L 19.167969 7.75 C 19.109375 7.652344 19.011719 7.566406 18.921875 7.484375 C 18.828125 7.402344 18.726562 7.328125 18.625 7.25 C 18.523438 7.175781 18.421875 7.101562 18.316406 7.03125 L 18.15625 6.929688 L 18.074219 6.878906 L 18.015625 6.84375 C 18.003906 6.839844 18.011719 6.84375 18.011719 6.839844 L 17.996094 6.777344 C 17.992188 6.769531 17.996094 6.761719 18.003906 6.761719 C 18.007812 6.757812 18.007812 6.757812 18.011719 6.761719 Z M 18.011719 6.761719 " fill-opacity="1" fill-rule="nonzero"/><path fill="#26071a" d="M 19.417969 8.449219 C 19.355469 8.511719 19.296875 8.582031 19.242188 8.652344 C 19.191406 8.71875 19.140625 8.796875 19.117188 8.871094 C 19.109375 8.910156 19.109375 8.9375 19.128906 8.964844 C 19.152344 8.996094 19.183594 9.023438 19.214844 9.050781 C 19.28125 9.105469 19.359375 9.148438 19.4375 9.203125 C 19.472656 9.230469 19.511719 9.261719 19.546875 9.304688 C 19.578125 9.347656 19.59375 9.402344 19.605469 9.449219 C 19.625 9.542969 19.628906 9.636719 19.621094 9.730469 C 19.617188 9.824219 19.601562 9.917969 19.574219 10.007812 C 19.542969 10.097656 19.511719 10.175781 19.472656 10.261719 C 19.46875 10.277344 19.449219 10.285156 19.433594 10.277344 C 19.417969 10.273438 19.410156 10.257812 19.414062 10.242188 C 19.4375 10.15625 19.46875 10.066406 19.488281 9.984375 C 19.511719 9.898438 19.523438 9.8125 19.527344 9.726562 C 19.53125 9.636719 19.53125 9.550781 19.511719 9.46875 C 19.503906 9.425781 19.492188 9.390625 19.46875 9.363281 C 19.445312 9.332031 19.414062 9.304688 19.378906 9.28125 C 19.3125 9.226562 19.230469 9.179688 19.160156 9.121094 C 19.121094 9.089844 19.085938 9.054688 19.058594 9.015625 C 19.042969 8.996094 19.027344 8.957031 19.027344 8.929688 C 19.023438 8.914062 19.027344 8.902344 19.027344 8.886719 C 19.03125 8.875 19.03125 8.859375 19.035156 8.847656 C 19.066406 8.75 19.121094 8.675781 19.179688 8.601562 C 19.234375 8.527344 19.296875 8.460938 19.363281 8.394531 C 19.378906 8.378906 19.402344 8.378906 19.417969 8.394531 C 19.433594 8.410156 19.433594 8.433594 19.417969 8.449219 Z M 19.417969 8.449219 " fill-opacity="1" fill-rule="nonzero"/><path fill="#26071a" d="M 27.496094 8.351562 C 27.507812 8.328125 27.785156 8.167969 28.066406 7.917969 C 28.347656 7.664062 28.566406 7.605469 28.566406 7.605469 C 28.566406 7.605469 28.457031 8.371094 28.445312 8.664062 C 28.433594 8.957031 28.195312 9.589844 28.195312 9.589844 C 28.195312 9.589844 27.957031 9.714844 27.96875 9.695312 C 27.980469 9.679688 28.097656 9.277344 28.097656 9.277344 C 28.097656 9.277344 27.929688 9.402344 27.6875 9.378906 C 27.441406 9.351562 27.410156 9.347656 27.410156 9.347656 L 27.828125 10.261719 C 27.828125 10.261719 27.386719 9.988281 27.410156 9.964844 C 27.433594 9.945312 27.433594 9.777344 27.277344 9.46875 C 27.121094 9.15625 27.117188 9.132812 27.117188 9.132812 Z M 27.496094 8.351562 " fill-opacity="1" fill-rule="nonzero"/><path fill="#26071a" d="M 24.324219 7.214844 C 24.324219 7.214844 25.171875 7.914062 25.722656 8.089844 C 26.273438 8.261719 26.574219 8.199219 26.707031 8.105469 C 26.875 7.988281 27.15625 7.386719 27.15625 7.34375 C 27.15625 7.296875 27.136719 8.253906 26.878906 8.613281 C 26.621094 8.972656 25.613281 8.695312 25.613281 8.695312 L 26.246094 9.792969 C 26.246094 9.792969 25.402344 9.367188 25.226562 9.347656 C 25.050781 9.332031 24.570312 9.378906 24.050781 9.128906 C 23.527344 8.878906 22.972656 8.089844 22.972656 8.089844 C 22.972656 8.089844 23.304688 7.773438 23.695312 7.785156 C 24.085938 7.792969 24.371094 7.746094 24.371094 7.746094 L 24.050781 7.214844 L 24.050781 6.863281 Z M 24.324219 7.214844 " fill-opacity="1" fill-rule="nonzero"/><path fill="#f5dacf" d="M 23.792969 8.328125 C 23.792969 8.328125 24.527344 8.585938 25.402344 8.894531 C 25.402344 8.894531 25.046875 9.296875 24.457031 9.132812 C 23.867188 8.964844 23.792969 8.328125 23.792969 8.328125 Z M 23.792969 8.328125 " fill-opacity="1" fill-rule="nonzero"/><path fill="#f5dacf" d="M 27.699219 8.773438 C 27.699219 8.773438 27.730469 9.023438 27.667969 9.121094 C 27.601562 9.214844 27.578125 9.25 27.578125 9.25 C 27.578125 9.25 27.921875 9.269531 28.042969 8.949219 C 28.039062 8.917969 27.960938 8.691406 27.699219 8.773438 Z M 27.699219 8.773438 " fill-opacity="1" fill-rule="nonzero"/><path fill="#26071a" d="M 24.8125 8.683594 C 24.8125 8.78125 24.777344 8.867188 24.707031 8.933594 C 24.640625 9.003906 24.554688 9.039062 24.457031 9.039062 C 24.359375 9.039062 24.273438 9.003906 24.207031 8.933594 C 24.136719 8.867188 24.101562 8.78125 24.101562 8.683594 C 24.101562 8.585938 24.136719 8.5 24.207031 8.433594 C 24.273438 8.363281 24.359375 8.328125 24.457031 8.328125 C 24.554688 8.328125 24.640625 8.363281 24.707031 8.433594 C 24.777344 8.5 24.8125 8.585938 24.8125 8.683594 Z M 24.8125 8.683594 " fill-opacity="1" fill-rule="nonzero"/><path fill="#26071a" d="M 19.519531 10.796875 L 23.140625 11.949219 C 23.140625 11.949219 23.269531 14.859375 23.792969 15.25 C 24.316406 15.636719 25.066406 16.191406 25.066406 16.191406 C 25.066406 16.191406 22.441406 17.203125 21.300781 16.191406 C 20.160156 15.175781 19.519531 10.796875 19.519531 10.796875 Z M 19.519531 10.796875 " fill-opacity="1" fill-rule="nonzero"/><path fill="#e00018" d="M 30.199219 23.039062 L 28.90625 22.082031 C 28.90625 22.082031 28.5625 23.253906 28.085938 24.90625 C 27.605469 26.558594 27.796875 27.128906 27.628906 28.710938 C 27.460938 30.296875 27.402344 31 27.402344 30.933594 C 27.402344 30.867188 29.847656 24.402344 30.199219 23.039062 Z M 30.199219 23.039062 " fill-opacity="1" fill-rule="nonzero"/><path fill="#ff6700" d="M 27.859375 25.84375 C 27.859375 25.84375 27.089844 28.859375 27.015625 29.539062 C 26.945312 30.222656 26.984375 34.273438 26.984375 34.273438 C 26.984375 34.273438 27.339844 31.539062 27.550781 30.933594 C 27.8125 30.175781 28.125 28.960938 28.125 28.960938 C 28.125 28.960938 27.816406 28.265625 27.859375 25.84375 Z M 27.859375 25.84375 " fill-opacity="1" fill-rule="nonzero"/><path fill="#f5dacf" d="M 24.40625 13.339844 L 24.453125 13.753906 C 24.453125 13.753906 24.535156 13.695312 24.683594 13.367188 Z M 24.40625 13.339844 " fill-opacity="1" fill-rule="nonzero"/><path fill="#26071a" d="M 25.230469 9.296875 C 25.042969 9.371094 24.839844 9.386719 24.640625 9.375 C 24.539062 9.367188 24.441406 9.351562 24.34375 9.324219 L 24.199219 9.285156 L 24.058594 9.234375 C 23.871094 9.164062 23.699219 9.066406 23.539062 8.945312 C 23.382812 8.828125 23.238281 8.691406 23.121094 8.53125 C 23.25 8.675781 23.402344 8.804688 23.5625 8.910156 C 23.726562 9.019531 23.902344 9.105469 24.082031 9.171875 L 24.222656 9.214844 L 24.359375 9.246094 C 24.457031 9.265625 24.550781 9.273438 24.648438 9.28125 C 24.839844 9.296875 25.03125 9.296875 25.230469 9.296875 Z M 25.230469 9.296875 " fill-opacity="1" fill-rule="nonzero"/><path fill="#26071a" d="M 24.429688 9.554688 C 24.550781 9.53125 24.664062 9.519531 24.773438 9.5 C 24.886719 9.480469 24.996094 9.457031 25.121094 9.445312 C 25.027344 9.527344 24.910156 9.570312 24.789062 9.59375 C 24.671875 9.609375 24.542969 9.605469 24.429688 9.554688 Z M 24.429688 9.554688 " fill-opacity="1" fill-rule="nonzero"/><path fill="#26071a" d="M 24.738281 9.738281 C 24.777344 9.691406 24.8125 9.671875 24.851562 9.652344 C 24.890625 9.636719 24.925781 9.621094 24.984375 9.621094 C 24.976562 9.679688 24.9375 9.714844 24.890625 9.738281 C 24.84375 9.757812 24.792969 9.765625 24.738281 9.738281 Z M 24.738281 9.738281 " fill-opacity="1" fill-rule="nonzero"/><path fill="#26071a" d="M 24.859375 9.832031 C 24.878906 9.78125 24.902344 9.757812 24.929688 9.734375 C 24.957031 9.714844 24.988281 9.699219 25.042969 9.695312 C 25.046875 9.75 25.019531 9.785156 24.984375 9.8125 C 24.953125 9.835938 24.910156 9.851562 24.859375 9.832031 Z M 24.859375 9.832031 " fill-opacity="1" fill-rule="nonzero"/><path fill="#26071a" d="M 25.984375 10.738281 C 26.035156 10.769531 26.078125 10.804688 26.121094 10.84375 C 26.164062 10.882812 26.203125 10.921875 26.234375 10.972656 C 26.269531 11.019531 26.296875 11.074219 26.3125 11.132812 C 26.328125 11.1875 26.328125 11.253906 26.308594 11.308594 C 26.273438 11.195312 26.21875 11.113281 26.15625 11.023438 C 26.128906 10.980469 26.09375 10.9375 26.066406 10.890625 C 26.035156 10.84375 26.007812 10.792969 25.984375 10.738281 Z M 25.984375 10.738281 " fill-opacity="1" fill-rule="nonzero"/><path fill="#26071a" d="M 18.261719 7.332031 C 18.394531 7.277344 18.550781 7.277344 18.691406 7.316406 C 18.726562 7.328125 18.761719 7.339844 18.792969 7.359375 C 18.828125 7.378906 18.855469 7.402344 18.882812 7.425781 C 18.914062 7.449219 18.9375 7.472656 18.960938 7.5 C 18.984375 7.527344 19.007812 7.558594 19.019531 7.59375 C 18.964844 7.546875 18.902344 7.519531 18.84375 7.488281 C 18.785156 7.449219 18.726562 7.425781 18.664062 7.410156 C 18.535156 7.371094 18.40625 7.351562 18.261719 7.332031 Z M 18.261719 7.332031 " fill-opacity="1" fill-rule="nonzero"/><path fill="#26071a" d="M 19.277344 7.875 C 19.347656 7.90625 19.390625 7.96875 19.417969 8.03125 C 19.441406 8.097656 19.453125 8.171875 19.425781 8.242188 C 19.378906 8.183594 19.355469 8.125 19.328125 8.066406 C 19.308594 8.007812 19.285156 7.949219 19.277344 7.875 Z M 19.277344 7.875 " fill-opacity="1" fill-rule="nonzero"/><path fill="#26071a" d="M 27.261719 9.203125 C 27.324219 9.25 27.382812 9.289062 27.445312 9.324219 L 27.539062 9.378906 C 27.570312 9.398438 27.597656 9.414062 27.621094 9.414062 C 27.679688 9.421875 27.753906 9.414062 27.824219 9.402344 C 27.894531 9.390625 27.964844 9.375 28.042969 9.367188 C 27.980469 9.410156 27.914062 9.449219 27.84375 9.472656 C 27.769531 9.5 27.695312 9.515625 27.609375 9.507812 C 27.558594 9.5 27.519531 9.472656 27.492188 9.453125 C 27.460938 9.429688 27.429688 9.410156 27.402344 9.382812 C 27.34375 9.335938 27.292969 9.273438 27.261719 9.203125 Z M 27.261719 9.203125 " fill-opacity="1" fill-rule="nonzero"/><path fill="#26071a" d="M 27.347656 9.40625 C 27.425781 9.445312 27.484375 9.484375 27.546875 9.523438 C 27.609375 9.5625 27.667969 9.597656 27.738281 9.652344 C 27.652344 9.671875 27.566406 9.648438 27.496094 9.605469 C 27.425781 9.558594 27.367188 9.492188 27.347656 9.40625 Z M 27.347656 9.40625 " fill-opacity="1" fill-rule="nonzero"/><path fill="#26071a" d="M 27.464844 9.976562 C 27.566406 10.027344 27.652344 10.082031 27.738281 10.144531 C 27.820312 10.210938 27.90625 10.292969 27.9375 10.402344 C 27.847656 10.339844 27.765625 10.285156 27.679688 10.222656 C 27.597656 10.15625 27.511719 10.082031 27.464844 9.976562 Z M 27.464844 9.976562 " fill-opacity="1" fill-rule="nonzero"/><path fill="#26071a" d="M 27.746094 4.808594 C 27.933594 4.585938 28.09375 4.351562 28.210938 4.09375 C 28.328125 3.835938 28.40625 3.5625 28.453125 3.277344 C 28.480469 3.566406 28.417969 3.867188 28.296875 4.132812 C 28.171875 4.402344 27.988281 4.640625 27.746094 4.808594 Z M 27.746094 4.808594 " fill-opacity="1" fill-rule="nonzero"/><path fill="#26071a" d="M 28.445312 3.125 C 28.519531 3.203125 28.566406 3.304688 28.597656 3.410156 C 28.625 3.511719 28.636719 3.621094 28.632812 3.730469 C 28.628906 3.945312 28.570312 4.148438 28.488281 4.34375 C 28.5 4.132812 28.535156 3.929688 28.539062 3.726562 C 28.546875 3.523438 28.523438 3.324219 28.445312 3.125 Z M 28.445312 3.125 " fill-opacity="1" fill-rule="nonzero"/><path fill="#26071a" d="M 28.273438 4.558594 C 28.253906 4.460938 28.285156 4.363281 28.304688 4.273438 C 28.328125 4.183594 28.351562 4.09375 28.371094 4.003906 C 28.410156 3.820312 28.433594 3.640625 28.441406 3.449219 C 28.507812 3.632812 28.503906 3.835938 28.460938 4.023438 C 28.441406 4.117188 28.414062 4.207031 28.375 4.296875 C 28.339844 4.386719 28.292969 4.464844 28.273438 4.558594 Z M 28.273438 4.558594 " fill-opacity="1" fill-rule="nonzero"/><path fill="#26071a" d="M 23.050781 3.605469 C 23.226562 3.554688 23.414062 3.539062 23.597656 3.546875 C 23.78125 3.558594 23.964844 3.59375 24.140625 3.640625 C 24.496094 3.746094 24.824219 3.90625 25.136719 4.09375 C 24.792969 3.976562 24.460938 3.832031 24.113281 3.734375 C 23.769531 3.632812 23.414062 3.578125 23.050781 3.605469 Z M 23.050781 3.605469 " fill-opacity="1" fill-rule="nonzero"/><path fill="#26071a" d="M 22.46875 3.796875 C 22.589844 3.730469 22.722656 3.6875 22.863281 3.671875 C 23 3.648438 23.140625 3.652344 23.277344 3.667969 C 23.554688 3.699219 23.816406 3.78125 24.070312 3.886719 C 24.074219 3.886719 24.078125 3.890625 24.074219 3.894531 C 24.074219 3.898438 24.070312 3.898438 24.066406 3.898438 L 24.023438 3.882812 L 24.070312 3.886719 L 24.066406 3.898438 C 23.796875 3.855469 23.53125 3.789062 23.265625 3.761719 C 23 3.730469 22.734375 3.730469 22.46875 3.796875 Z M 22.46875 3.796875 " fill-opacity="1" fill-rule="nonzero"/><path fill="#26071a" d="M 21.761719 4.242188 C 21.992188 4.0625 22.277344 3.949219 22.570312 3.902344 C 22.863281 3.855469 23.167969 3.871094 23.445312 3.96875 C 23.15625 3.945312 22.867188 3.949219 22.585938 3.996094 C 22.304688 4.039062 22.03125 4.125 21.761719 4.242188 Z M 21.761719 4.242188 " fill-opacity="1" fill-rule="nonzero"/><path fill="#26071a" d="M 21.484375 4.863281 C 21.53125 4.730469 21.640625 4.621094 21.757812 4.542969 C 21.875 4.464844 22 4.398438 22.128906 4.34375 C 22.390625 4.230469 22.667969 4.160156 22.949219 4.152344 C 22.679688 4.234375 22.417969 4.320312 22.167969 4.429688 C 22.042969 4.484375 21.917969 4.542969 21.796875 4.605469 C 21.679688 4.671875 21.5625 4.746094 21.484375 4.863281 Z M 21.484375 4.863281 " fill-opacity="1" fill-rule="nonzero"/><path fill="#26071a" d="M 20.730469 6.058594 C 20.722656 5.996094 20.746094 5.933594 20.777344 5.875 C 20.808594 5.820312 20.851562 5.769531 20.890625 5.722656 C 20.96875 5.625 21.058594 5.535156 21.148438 5.449219 C 21.328125 5.277344 21.527344 5.121094 21.75 5.003906 C 21.574219 5.183594 21.390625 5.347656 21.210938 5.519531 L 20.945312 5.773438 C 20.855469 5.859375 20.761719 5.9375 20.730469 6.058594 Z M 20.730469 6.058594 " fill-opacity="1" fill-rule="nonzero"/><path fill="#26071a" d="M 20.378906 6.277344 C 20.542969 6.097656 20.722656 5.9375 20.910156 5.785156 C 21.097656 5.632812 21.289062 5.484375 21.5 5.363281 C 21.335938 5.542969 21.15625 5.703125 20.96875 5.855469 C 20.78125 6.007812 20.589844 6.152344 20.378906 6.277344 Z M 20.378906 6.277344 " fill-opacity="1" fill-rule="nonzero"/><path fill="#26071a" d="M 20.59375 6.242188 C 20.695312 6.136719 20.8125 6.054688 20.933594 5.980469 C 21.058594 5.910156 21.183594 5.84375 21.324219 5.800781 C 21.222656 5.90625 21.105469 5.988281 20.984375 6.0625 C 20.859375 6.132812 20.734375 6.199219 20.59375 6.242188 Z M 20.59375 6.242188 " fill-opacity="1" fill-rule="nonzero"/><path fill="#26071a" d="M 19.117188 7.605469 C 19.164062 7.660156 19.203125 7.71875 19.222656 7.792969 C 19.246094 7.867188 19.242188 7.953125 19.203125 8.027344 C 19.179688 8.0625 19.148438 8.09375 19.113281 8.113281 C 19.078125 8.132812 19.046875 8.144531 19.015625 8.160156 C 18.957031 8.1875 18.902344 8.222656 18.84375 8.265625 C 18.871094 8.199219 18.917969 8.140625 18.976562 8.09375 C 19.007812 8.070312 19.039062 8.058594 19.066406 8.039062 C 19.089844 8.023438 19.105469 8.003906 19.117188 7.980469 C 19.148438 7.929688 19.15625 7.871094 19.152344 7.808594 C 19.144531 7.742188 19.128906 7.675781 19.117188 7.605469 Z M 19.117188 7.605469 " fill-opacity="1" fill-rule="nonzero"/><path fill="#26071a" d="M 19.15625 9.808594 C 19.195312 9.828125 19.234375 9.835938 19.269531 9.839844 C 19.304688 9.84375 19.339844 9.84375 19.375 9.835938 C 19.441406 9.824219 19.511719 9.792969 19.597656 9.761719 C 19.5625 9.847656 19.488281 9.910156 19.390625 9.929688 C 19.34375 9.9375 19.292969 9.933594 19.246094 9.914062 C 19.203125 9.890625 19.167969 9.855469 19.15625 9.808594 Z M 19.15625 9.808594 " fill-opacity="1" fill-rule="nonzero"/><path fill="#26071a" d="M 18.851562 9.296875 C 18.808594 9.199219 18.777344 9.097656 18.761719 8.988281 C 18.742188 8.882812 18.746094 8.765625 18.777344 8.660156 C 18.8125 8.550781 18.878906 8.453125 18.96875 8.382812 C 19.054688 8.3125 19.160156 8.269531 19.269531 8.265625 C 19.171875 8.308594 19.085938 8.367188 19.015625 8.4375 C 18.949219 8.511719 18.894531 8.59375 18.867188 8.6875 C 18.808594 8.875 18.839844 9.082031 18.851562 9.296875 Z M 18.851562 9.296875 " fill-opacity="1" fill-rule="nonzero"/><path fill="#26071a" d="M 27.171875 12.070312 C 27.121094 12.164062 27.050781 12.25 26.96875 12.320312 L 26.976562 12.273438 C 27.007812 12.3125 27.03125 12.355469 27.042969 12.402344 C 27.058594 12.445312 27.070312 12.488281 27.078125 12.535156 C 27.097656 12.625 27.101562 12.71875 27.09375 12.8125 C 27.078125 12.996094 27.011719 13.179688 26.894531 13.316406 C 26.960938 13.148438 27 12.976562 27.003906 12.808594 C 27.007812 12.722656 27 12.636719 26.988281 12.550781 C 26.972656 12.46875 26.957031 12.382812 26.917969 12.308594 L 26.917969 12.304688 C 26.910156 12.289062 26.914062 12.273438 26.929688 12.261719 C 27.015625 12.207031 27.09375 12.144531 27.171875 12.070312 Z M 27.171875 12.070312 " fill-opacity="1" fill-rule="nonzero"/><path fill="#26071a" d="M 24.21875 13.320312 C 24.519531 13.316406 24.820312 13.335938 25.117188 13.367188 C 25.265625 13.386719 25.417969 13.40625 25.5625 13.441406 C 25.707031 13.480469 25.847656 13.519531 25.996094 13.519531 C 25.851562 13.574219 25.691406 13.554688 25.542969 13.527344 C 25.398438 13.5 25.253906 13.480469 25.105469 13.460938 C 24.808594 13.417969 24.515625 13.375 24.21875 13.320312 Z M 24.21875 13.320312 " fill-opacity="1" fill-rule="nonzero"/><path fill="#26071a" d="M 25.917969 14.144531 C 26.097656 14.230469 26.226562 14.414062 26.273438 14.617188 C 26.316406 14.816406 26.277344 15.039062 26.152344 15.195312 C 26.207031 15.003906 26.21875 14.816406 26.179688 14.636719 C 26.140625 14.457031 26.046875 14.292969 25.917969 14.144531 Z M 25.917969 14.144531 " fill-opacity="1" fill-rule="nonzero"/><path fill="#26071a" d="M 20.0625 9.210938 C 20.191406 9.210938 20.3125 9.242188 20.429688 9.28125 C 20.546875 9.320312 20.664062 9.367188 20.769531 9.441406 C 20.640625 9.4375 20.519531 9.40625 20.402344 9.371094 C 20.285156 9.332031 20.167969 9.285156 20.0625 9.210938 Z M 20.0625 9.210938 " fill-opacity="1" fill-rule="nonzero"/><path fill="#26071a" d="M 20.164062 9.34375 C 20.273438 9.367188 20.367188 9.40625 20.460938 9.449219 C 20.554688 9.496094 20.644531 9.542969 20.730469 9.613281 C 20.621094 9.613281 20.519531 9.578125 20.421875 9.535156 C 20.324219 9.488281 20.234375 9.429688 20.164062 9.34375 Z M 20.164062 9.34375 " fill-opacity="1" fill-rule="nonzero"/><path fill="#26071a" d="M 20.273438 9.597656 C 20.351562 9.582031 20.425781 9.601562 20.492188 9.628906 C 20.558594 9.65625 20.621094 9.699219 20.664062 9.765625 C 20.585938 9.761719 20.519531 9.742188 20.457031 9.714844 C 20.390625 9.6875 20.328125 9.65625 20.273438 9.597656 Z M 20.273438 9.597656 " fill-opacity="1" fill-rule="nonzero"/><path fill="#26071a" d="M 20.25 9.792969 L 20.320312 9.800781 C 20.34375 9.800781 20.363281 9.808594 20.386719 9.8125 C 20.410156 9.820312 20.433594 9.828125 20.457031 9.847656 C 20.476562 9.863281 20.496094 9.886719 20.503906 9.917969 C 20.445312 9.917969 20.410156 9.917969 20.359375 9.902344 C 20.335938 9.894531 20.3125 9.886719 20.292969 9.867188 C 20.269531 9.851562 20.25 9.824219 20.25 9.792969 Z M 20.25 9.792969 " fill-opacity="1" fill-rule="nonzero"/><path fill="#26071a" d="M 20.355469 9.960938 C 20.410156 9.953125 20.449219 9.96875 20.488281 9.988281 C 20.523438 10.011719 20.554688 10.042969 20.570312 10.097656 C 20.515625 10.105469 20.476562 10.089844 20.4375 10.070312 C 20.402344 10.046875 20.371094 10.015625 20.355469 9.960938 Z M 20.355469 9.960938 " fill-opacity="1" fill-rule="nonzero"/><path fill="#26071a" d="M 20.339844 10.171875 C 20.390625 10.144531 20.441406 10.144531 20.492188 10.167969 C 20.515625 10.183594 20.535156 10.199219 20.550781 10.226562 C 20.5625 10.25 20.570312 10.28125 20.558594 10.308594 C 20.53125 10.292969 20.515625 10.285156 20.496094 10.277344 C 20.480469 10.269531 20.464844 10.261719 20.449219 10.253906 C 20.414062 10.234375 20.378906 10.21875 20.339844 10.171875 Z M 20.339844 10.171875 " fill-opacity="1" fill-rule="nonzero"/><path fill="#26071a" d="M 22.460938 7.148438 C 22.355469 7.257812 22.25 7.359375 22.132812 7.453125 C 22.011719 7.542969 21.878906 7.621094 21.734375 7.667969 C 21.589844 7.71875 21.449219 7.753906 21.300781 7.785156 C 21.152344 7.816406 21 7.832031 20.847656 7.820312 L 20.882812 7.746094 C 21.011719 7.886719 21.183594 7.992188 21.316406 8.15625 C 21.378906 8.234375 21.433594 8.328125 21.453125 8.429688 C 21.46875 8.53125 21.457031 8.640625 21.398438 8.722656 C 21.441406 8.632812 21.441406 8.53125 21.414062 8.4375 C 21.386719 8.347656 21.332031 8.265625 21.269531 8.195312 C 21.136719 8.054688 20.960938 7.957031 20.816406 7.808594 C 20.800781 7.789062 20.800781 7.761719 20.816406 7.742188 C 20.828125 7.734375 20.839844 7.730469 20.851562 7.730469 C 20.996094 7.738281 21.140625 7.71875 21.28125 7.695312 C 21.425781 7.664062 21.570312 7.632812 21.707031 7.589844 C 21.847656 7.550781 21.980469 7.492188 22.101562 7.410156 C 22.226562 7.332031 22.339844 7.238281 22.460938 7.148438 Z M 22.460938 7.148438 " fill-opacity="1" fill-rule="nonzero"/><path fill="#26071a" d="M 20.984375 8.160156 C 21.042969 8.148438 21.109375 8.171875 21.15625 8.214844 C 21.203125 8.253906 21.234375 8.308594 21.257812 8.363281 C 21.28125 8.417969 21.296875 8.476562 21.296875 8.535156 C 21.300781 8.59375 21.289062 8.65625 21.257812 8.707031 C 21.242188 8.589844 21.210938 8.496094 21.171875 8.398438 C 21.152344 8.351562 21.128906 8.304688 21.101562 8.265625 C 21.074219 8.222656 21.039062 8.1875 20.984375 8.160156 Z M 20.984375 8.160156 " fill-opacity="1" fill-rule="nonzero"/><path fill="#26071a" d="M 21.050781 8.335938 C 21.136719 8.425781 21.164062 8.558594 21.152344 8.683594 C 21.136719 8.804688 21.078125 8.925781 20.972656 8.996094 C 21.015625 8.882812 21.042969 8.777344 21.054688 8.671875 C 21.070312 8.5625 21.066406 8.457031 21.050781 8.335938 Z M 21.050781 8.335938 " fill-opacity="1" fill-rule="nonzero"/><path fill="#26071a" d="M 26.746094 8.757812 C 26.828125 8.667969 26.90625 8.59375 26.96875 8.507812 C 27.027344 8.425781 27.074219 8.332031 27.097656 8.21875 C 27.125 8.269531 27.128906 8.335938 27.117188 8.398438 C 27.105469 8.457031 27.078125 8.515625 27.042969 8.566406 C 26.96875 8.664062 26.863281 8.734375 26.746094 8.757812 Z M 26.746094 8.757812 " fill-opacity="1" fill-rule="nonzero"/><path fill="#26071a" d="M 26.546875 6.378906 C 26.914062 6.4375 27.28125 6.445312 27.640625 6.386719 C 28 6.332031 28.34375 6.214844 28.675781 6.046875 C 28.382812 6.277344 28.023438 6.421875 27.652344 6.480469 C 27.285156 6.539062 26.894531 6.511719 26.546875 6.378906 Z M 26.546875 6.378906 " fill-opacity="1" fill-rule="nonzero"/><path fill="#26071a" d="M 27.261719 6.214844 C 27.386719 6.179688 27.5 6.152344 27.617188 6.121094 C 27.738281 6.089844 27.855469 6.058594 27.988281 6.050781 C 27.882812 6.128906 27.765625 6.179688 27.644531 6.210938 C 27.519531 6.242188 27.386719 6.253906 27.261719 6.214844 Z M 27.261719 6.214844 " fill-opacity="1" fill-rule="nonzero"/><path fill="#26071a" d="M 28.210938 5.976562 C 28.273438 5.910156 28.359375 5.859375 28.441406 5.820312 C 28.527344 5.78125 28.613281 5.753906 28.695312 5.71875 C 28.777344 5.683594 28.855469 5.644531 28.925781 5.59375 C 29 5.546875 29.0625 5.484375 29.109375 5.402344 C 29.101562 5.5 29.042969 5.585938 28.972656 5.652344 C 28.902344 5.71875 28.820312 5.765625 28.730469 5.804688 C 28.554688 5.875 28.382812 5.90625 28.210938 5.976562 Z M 28.210938 5.976562 " fill-opacity="1" fill-rule="nonzero"/><path fill="#26071a" d="M 26.179688 5.96875 C 26.289062 5.976562 26.382812 5.996094 26.480469 6.015625 C 26.578125 6.035156 26.671875 6.054688 26.773438 6.089844 C 26.671875 6.128906 26.5625 6.128906 26.460938 6.109375 C 26.359375 6.085938 26.257812 6.042969 26.179688 5.96875 Z M 26.179688 5.96875 " fill-opacity="1" fill-rule="nonzero"/><path fill="#26071a" d="M 26.742188 5.816406 C 26.910156 5.832031 27.070312 5.851562 27.234375 5.863281 C 27.394531 5.875 27.554688 5.878906 27.726562 5.886719 C 27.566406 5.953125 27.394531 5.96875 27.226562 5.957031 C 27.058594 5.945312 26.886719 5.902344 26.742188 5.816406 Z M 26.742188 5.816406 " fill-opacity="1" fill-rule="nonzero"/><path fill="#26071a" d="M 26.902344 8.804688 C 26.941406 8.769531 26.960938 8.75 26.988281 8.734375 C 27.019531 8.71875 27.050781 8.703125 27.105469 8.707031 C 27.097656 8.761719 27.074219 8.792969 27.035156 8.816406 C 27 8.835938 26.941406 8.847656 26.902344 8.804688 Z M 26.902344 8.804688 " fill-opacity="1" fill-rule="nonzero"/><path fill="#26071a" d="M 25.492188 8.574219 C 25.675781 8.71875 25.839844 8.886719 25.984375 9.074219 C 26.125 9.265625 26.238281 9.484375 26.273438 9.71875 C 26.167969 9.507812 26.046875 9.316406 25.90625 9.132812 C 25.773438 8.945312 25.621094 8.769531 25.492188 8.574219 Z M 25.492188 8.574219 " fill-opacity="1" fill-rule="nonzero"/><path fill="#26071a" d="M 25.566406 8.566406 C 25.726562 8.621094 25.871094 8.707031 25.996094 8.820312 C 26.121094 8.933594 26.226562 9.082031 26.257812 9.25 C 26.160156 9.113281 26.054688 9 25.933594 8.890625 C 25.816406 8.785156 25.683594 8.6875 25.566406 8.566406 Z M 25.566406 8.566406 " fill-opacity="1" fill-rule="nonzero"/><path fill="#26071a" d="M 25.417969 10.632812 C 25.441406 10.582031 25.507812 10.5625 25.554688 10.550781 C 25.601562 10.535156 25.65625 10.53125 25.707031 10.53125 C 25.8125 10.535156 25.914062 10.5625 26 10.628906 C 25.894531 10.632812 25.800781 10.628906 25.703125 10.625 L 25.5625 10.621094 C 25.511719 10.621094 25.46875 10.613281 25.417969 10.632812 Z M 25.417969 10.632812 " fill-opacity="1" fill-rule="nonzero"/><path fill="#26071a" d="M 25.5625 10.429688 C 25.613281 10.375 25.6875 10.355469 25.757812 10.359375 C 25.828125 10.367188 25.902344 10.394531 25.945312 10.457031 C 25.867188 10.464844 25.8125 10.457031 25.75 10.453125 C 25.691406 10.449219 25.632812 10.445312 25.5625 10.429688 Z M 25.5625 10.429688 " fill-opacity="1" fill-rule="nonzero"/><path fill="#26071a" d="M 27.601562 11.160156 C 27.644531 11.210938 27.652344 11.277344 27.644531 11.339844 C 27.636719 11.398438 27.613281 11.460938 27.554688 11.5 C 27.542969 11.433594 27.546875 11.378906 27.550781 11.324219 C 27.5625 11.269531 27.570312 11.21875 27.601562 11.160156 Z M 27.601562 11.160156 " fill-opacity="1" fill-rule="nonzero"/><path fill="#26071a" d="M 27.753906 11.425781 C 27.777344 11.464844 27.769531 11.496094 27.753906 11.519531 C 27.738281 11.539062 27.710938 11.554688 27.667969 11.546875 C 27.65625 11.5 27.664062 11.480469 27.675781 11.460938 C 27.691406 11.445312 27.707031 11.433594 27.753906 11.425781 Z M 27.753906 11.425781 " fill-opacity="1" fill-rule="nonzero"/><path fill="#26071a" d="M 23.015625 10.667969 C 23.054688 10.835938 23.082031 11 23.117188 11.164062 C 23.152344 11.328125 23.195312 11.488281 23.230469 11.660156 C 23.125 11.519531 23.0625 11.355469 23.027344 11.183594 C 22.992188 11.015625 22.980469 10.835938 23.015625 10.667969 Z M 23.015625 10.667969 " fill-opacity="1" fill-rule="nonzero"/><path fill="#26071a" d="M 22.882812 11.167969 C 22.929688 11.238281 22.957031 11.304688 22.988281 11.375 C 23.015625 11.445312 23.042969 11.511719 23.054688 11.597656 C 22.980469 11.554688 22.929688 11.484375 22.898438 11.410156 C 22.871094 11.335938 22.855469 11.25 22.882812 11.167969 Z M 22.882812 11.167969 " fill-opacity="1" fill-rule="nonzero"/><path fill="#26071a" d="M 22.6875 11.292969 C 22.742188 11.324219 22.765625 11.367188 22.789062 11.410156 C 22.808594 11.457031 22.824219 11.496094 22.832031 11.5625 C 22.765625 11.546875 22.730469 11.5 22.703125 11.453125 C 22.683594 11.40625 22.671875 11.351562 22.6875 11.292969 Z M 22.6875 11.292969 " fill-opacity="1" fill-rule="nonzero"/><path fill="#26071a" d="M 23.089844 7.902344 C 23.160156 7.789062 23.28125 7.714844 23.40625 7.679688 C 23.535156 7.640625 23.667969 7.644531 23.796875 7.652344 C 24.054688 7.679688 24.292969 7.746094 24.546875 7.710938 C 24.429688 7.765625 24.296875 7.78125 24.167969 7.777344 C 24.039062 7.777344 23.914062 7.757812 23.789062 7.75 C 23.664062 7.734375 23.542969 7.730469 23.421875 7.75 C 23.304688 7.773438 23.1875 7.816406 23.089844 7.902344 Z M 23.089844 7.902344 " fill-opacity="1" fill-rule="nonzero"/><path fill="#26071a" d="M 23.429688 7.625 C 23.496094 7.570312 23.570312 7.523438 23.664062 7.511719 C 23.761719 7.496094 23.851562 7.53125 23.925781 7.5625 C 24.082031 7.625 24.222656 7.699219 24.386719 7.738281 C 24.304688 7.757812 24.214844 7.75 24.132812 7.730469 C 24.046875 7.710938 23.96875 7.679688 23.890625 7.648438 C 23.8125 7.617188 23.742188 7.585938 23.671875 7.582031 C 23.59375 7.582031 23.515625 7.605469 23.429688 7.625 Z M 23.429688 7.625 " fill-opacity="1" fill-rule="nonzero"/><path fill="#f5dacf" d="M 26.058594 13.503906 C 26.070312 13.503906 26.210938 13.476562 26.210938 13.476562 C 26.210938 13.476562 26.121094 13.699219 26.082031 13.75 C 26.042969 13.796875 26.058594 13.503906 26.058594 13.503906 Z M 26.058594 13.503906 " fill-opacity="1" fill-rule="nonzero"/><path fill="#930621" d="M 17.1875 11.660156 C 17.292969 11.648438 17.402344 11.65625 17.503906 11.671875 C 17.605469 11.703125 17.707031 11.734375 17.804688 11.769531 L 17.949219 11.835938 C 17.996094 11.859375 18.046875 11.878906 18.089844 11.910156 L 18.222656 11.996094 L 18.292969 12.039062 C 18.3125 12.054688 18.332031 12.070312 18.351562 12.085938 C 18.6875 12.347656 18.953125 12.6875 19.164062 13.046875 C 19.585938 13.769531 19.824219 14.578125 19.988281 15.382812 C 20.15625 16.195312 20.238281 17.015625 20.28125 17.835938 C 20.304688 18.25 20.3125 18.660156 20.3125 19.070312 C 20.316406 19.480469 20.3125 19.894531 20.242188 20.300781 C 20.183594 19.890625 20.183594 19.480469 20.175781 19.074219 C 20.164062 18.664062 20.148438 18.253906 20.117188 17.847656 C 20.089844 17.441406 20.054688 17.03125 20.003906 16.628906 C 19.953125 16.222656 19.886719 15.820312 19.804688 15.421875 C 19.640625 14.625 19.40625 13.835938 19 13.140625 C 18.796875 12.796875 18.550781 12.476562 18.242188 12.226562 C 18.222656 12.210938 18.207031 12.195312 18.1875 12.179688 L 18.125 12.136719 L 18.003906 12.050781 C 17.921875 11.996094 17.832031 11.953125 17.746094 11.902344 C 17.65625 11.859375 17.5625 11.828125 17.472656 11.785156 C 17.378906 11.753906 17.28125 11.71875 17.1875 11.660156 Z M 17.1875 11.660156 " fill-opacity="1" fill-rule="nonzero"/><path fill="#930621" d="M 23.429688 14.144531 C 23.636719 14.585938 23.769531 15.042969 23.953125 15.488281 C 24.132812 15.933594 24.328125 16.371094 24.554688 16.789062 C 24.78125 17.207031 25.042969 17.609375 25.371094 17.945312 C 25.453125 18.023438 25.542969 18.097656 25.632812 18.175781 L 25.914062 18.40625 C 26.101562 18.558594 26.28125 18.714844 26.464844 18.871094 C 27.199219 19.5 27.898438 20.167969 28.582031 20.847656 C 29.269531 21.523438 29.949219 22.199219 30.660156 22.84375 L 30.699219 22.882812 L 30.6875 22.929688 C 30.554688 23.503906 30.402344 24.066406 30.238281 24.625 C 30.078125 25.1875 29.902344 25.746094 29.714844 26.296875 C 29.53125 26.851562 29.332031 27.402344 29.121094 27.945312 L 28.960938 28.355469 L 28.785156 28.753906 C 28.667969 29.023438 28.53125 29.28125 28.398438 29.539062 C 28.585938 28.988281 28.796875 28.445312 29 27.898438 C 29.203125 27.355469 29.394531 26.804688 29.574219 26.253906 C 29.757812 25.699219 29.925781 25.140625 30.082031 24.582031 C 30.238281 24.023438 30.386719 23.457031 30.515625 22.890625 L 30.542969 22.976562 C 29.820312 22.335938 29.136719 21.65625 28.453125 20.980469 C 27.769531 20.304688 27.070312 19.640625 26.34375 19.015625 C 26.160156 18.859375 25.976562 18.703125 25.792969 18.550781 L 25.515625 18.324219 C 25.421875 18.242188 25.324219 18.164062 25.234375 18.078125 C 24.886719 17.722656 24.625 17.304688 24.394531 16.875 C 24.164062 16.449219 23.976562 16 23.808594 15.542969 C 23.726562 15.316406 23.652344 15.085938 23.578125 14.855469 C 23.511719 14.621094 23.453125 14.386719 23.429688 14.144531 Z M 23.429688 14.144531 " fill-opacity="1" fill-rule="nonzero"/><path fill="#930621" d="M 28.273438 30.933594 C 28.246094 31.011719 28.25 31.09375 28.238281 31.175781 L 28.210938 31.417969 L 28.148438 31.898438 L 28.035156 32.871094 C 27.960938 33.515625 27.886719 34.164062 27.816406 34.8125 C 27.679688 36.105469 27.554688 37.40625 27.441406 38.703125 C 27.332031 40 27.222656 41.300781 27.144531 42.601562 C 27.105469 43.25 27.074219 43.902344 27.058594 44.550781 C 27.050781 44.875 27.050781 45.203125 27.050781 45.527344 C 27.054688 45.6875 27.054688 45.851562 27.0625 46.011719 C 27.066406 46.09375 27.074219 46.171875 27.082031 46.253906 C 27.089844 46.292969 27.09375 46.332031 27.105469 46.371094 C 27.117188 46.410156 27.128906 46.449219 27.15625 46.480469 C 27.089844 46.425781 27.066406 46.339844 27.042969 46.261719 C 27.019531 46.183594 27.003906 46.101562 26.988281 46.019531 C 26.964844 45.855469 26.945312 45.691406 26.9375 45.53125 C 26.917969 45.203125 26.917969 44.875 26.921875 44.550781 C 26.929688 43.894531 26.957031 43.242188 26.988281 42.589844 C 27.054688 41.289062 27.140625 39.984375 27.253906 38.6875 C 27.367188 37.386719 27.488281 36.089844 27.628906 34.792969 C 27.699219 34.144531 27.773438 33.496094 27.859375 32.847656 C 27.902344 32.523438 27.953125 32.203125 28.007812 31.878906 C 28.035156 31.71875 28.0625 31.558594 28.097656 31.398438 C 28.117188 31.316406 28.136719 31.238281 28.164062 31.160156 C 28.175781 31.121094 28.1875 31.082031 28.207031 31.042969 C 28.226562 31.003906 28.238281 30.964844 28.273438 30.933594 Z M 28.273438 30.933594 " fill-opacity="1" fill-rule="nonzero"/><path fill="#930621" d="M 28.90625 14.144531 C 28.867188 14.277344 28.777344 14.363281 28.699219 14.460938 L 28.464844 14.746094 C 28.308594 14.9375 28.15625 15.132812 28.007812 15.332031 C 27.71875 15.730469 27.460938 16.15625 27.253906 16.601562 C 27.058594 17.042969 26.953125 17.527344 26.933594 18.019531 C 26.925781 18.261719 26.929688 18.511719 26.957031 18.753906 C 26.984375 19 27.023438 19.242188 27.03125 19.496094 C 26.902344 19.273438 26.851562 19.023438 26.820312 18.773438 C 26.785156 18.523438 26.769531 18.269531 26.769531 18.015625 C 26.777344 17.507812 26.875 16.992188 27.085938 16.523438 C 27.296875 16.0625 27.558594 15.628906 27.855469 15.21875 C 28.003906 15.015625 28.160156 14.816406 28.328125 14.632812 C 28.414062 14.539062 28.5 14.449219 28.59375 14.359375 C 28.6875 14.277344 28.769531 14.179688 28.90625 14.144531 Z M 28.90625 14.144531 " fill-opacity="1" fill-rule="nonzero"/><path fill="#930621" d="M 28.902344 24.3125 C 29 24.335938 29.066406 24.414062 29.105469 24.550781 C 29.144531 24.683594 29.144531 24.832031 29.101562 24.996094 C 29.058594 25.160156 28.988281 25.292969 28.890625 25.390625 C 28.792969 25.488281 28.695312 25.527344 28.601562 25.5 C 28.503906 25.476562 28.4375 25.398438 28.398438 25.265625 C 28.359375 25.128906 28.359375 24.980469 28.402344 24.816406 C 28.445312 24.652344 28.515625 24.523438 28.613281 24.421875 C 28.710938 24.324219 28.808594 24.289062 28.902344 24.3125 Z M 28.902344 24.3125 " fill-opacity="1" fill-rule="nonzero"/><path fill="#26071a" d="M 28.652344 25.554688 C 28.574219 25.554688 28.5 25.519531 28.441406 25.453125 C 28.339844 25.332031 28.300781 25.125 28.335938 24.898438 C 28.394531 24.539062 28.621094 24.257812 28.851562 24.257812 C 28.929688 24.257812 29.003906 24.292969 29.0625 24.359375 C 29.164062 24.480469 29.203125 24.6875 29.167969 24.914062 C 29.109375 25.273438 28.882812 25.554688 28.652344 25.554688 Z M 28.851562 24.351562 C 28.671875 24.351562 28.480469 24.609375 28.429688 24.914062 C 28.398438 25.109375 28.429688 25.292969 28.515625 25.390625 C 28.554688 25.4375 28.601562 25.460938 28.652344 25.460938 C 28.832031 25.460938 29.023438 25.203125 29.074219 24.898438 C 29.105469 24.703125 29.074219 24.519531 28.988281 24.421875 C 28.949219 24.375 28.902344 24.351562 28.851562 24.351562 Z M 28.851562 24.351562 " fill-opacity="1" fill-rule="nonzero"/></svg>